<svg width="320" height="287" viewBox="0 0 320 287" fill="none" xmlns="http://www.w3.org/2000/svg">
<path d="M47.0353 83.3202L48.0726 85.7216L50.3904 86.1108L48.7129 87.9834L49.1099 90.6271L47.0353 89.3787L44.9672 90.6271L45.3642 87.9834L43.6866 86.1108L46.0045 85.7216L47.0353 83.3202Z" fill="#EBEBEB"/>
<path d="M254.263 196.581L255.301 198.99L257.618 199.379L255.941 201.244L256.338 203.895L254.263 202.647L252.195 203.895L252.592 201.244L250.915 199.379L253.232 198.99L254.263 196.581Z" fill="#F5F5F5"/>
<path d="M316.645 68.8318L317.682 71.2405L320 71.6297L318.322 73.495L318.719 76.146L316.645 74.8976L314.577 76.146L314.974 73.495L313.296 71.6297L315.614 71.2405L316.645 68.8318Z" fill="#F5F5F5"/>
<path d="M213.221 266.411L214.259 268.813L216.57 269.202L214.892 271.075L215.289 273.718L213.221 272.47L211.153 273.718L211.544 271.075L209.873 269.202L212.184 268.813L213.221 266.411Z" fill="#F5F5F5"/>
<path d="M293.349 233L294.386 235.401L296.697 235.791L295.02 237.663L295.417 240.307L293.349 239.058L291.281 240.307L291.671 237.663L290 235.791L292.311 235.401L293.349 233Z" fill="#F5F5F5"/>
<path d="M119.317 40.6537L119.701 41.5496L120.566 41.6965C120.614 41.7037 120.659 41.7266 120.697 41.7623C120.734 41.7981 120.762 41.8453 120.776 41.8985C120.791 41.9517 120.792 42.0086 120.78 42.0625C120.768 42.1165 120.742 42.1653 120.706 42.2032L120.066 42.9008L120.213 43.8849C120.221 43.9396 120.215 43.9957 120.197 44.047C120.178 44.0982 120.148 44.1426 120.109 44.1753C120.07 44.208 120.023 44.2276 119.975 44.2321C119.927 44.2366 119.879 44.2257 119.836 44.2007L119.067 43.7307L118.299 44.2007C118.256 44.2257 118.207 44.2366 118.159 44.2321C118.111 44.2276 118.065 44.208 118.026 44.1753C117.987 44.1426 117.956 44.0982 117.938 44.047C117.919 43.9957 117.914 43.9396 117.921 43.8849L118.062 42.9008L117.422 42.2032C117.386 42.1648 117.36 42.1154 117.348 42.0609C117.336 42.0063 117.338 41.949 117.354 41.8956C117.369 41.8423 117.398 41.7951 117.436 41.7598C117.474 41.7245 117.52 41.7025 117.569 41.6965L118.427 41.5496L118.811 40.6537C118.827 40.5903 118.86 40.5344 118.905 40.4946C118.951 40.4548 119.007 40.4333 119.064 40.4333C119.121 40.4333 119.177 40.4548 119.223 40.4946C119.269 40.5344 119.302 40.5903 119.317 40.6537Z" fill="#EBEBEB"/>
<path d="M13.5673 254.977L13.9515 255.866L14.8095 256.012C14.8582 256.02 14.904 256.043 14.9418 256.079C14.9796 256.116 15.0077 256.163 15.0231 256.217C15.0384 256.27 15.0403 256.328 15.0286 256.383C15.0169 256.437 14.992 256.487 14.9567 256.526L14.3165 257.217L14.4637 258.201C14.4713 258.256 14.4655 258.312 14.4471 258.363C14.4286 258.414 14.3981 258.459 14.3591 258.491C14.32 258.524 14.2738 258.544 14.2256 258.548C14.1774 258.553 14.1291 258.542 14.086 258.517L13.3176 258.054L12.5493 258.517C12.5061 258.542 12.4578 258.553 12.4096 258.548C12.3614 258.544 12.3152 258.524 12.2762 258.491C12.2371 258.459 12.2067 258.414 12.1882 258.363C12.1697 258.312 12.1639 258.256 12.1715 258.201L12.3188 257.217L11.6785 256.526C11.6434 256.488 11.6184 256.438 11.6063 256.384C11.5943 256.33 11.5957 256.273 11.6103 256.22C11.6249 256.166 11.6522 256.118 11.6892 256.082C11.7261 256.045 11.7712 256.021 11.8194 256.012L12.6773 255.866L13.0679 254.977C13.085 254.916 13.1184 254.864 13.1633 254.826C13.2081 254.789 13.2622 254.769 13.3176 254.769C13.3731 254.769 13.4271 254.789 13.472 254.826C13.5168 254.864 13.5502 254.916 13.5673 254.977Z" fill="#F5F5F5"/>
<path d="M30.8362 31.2173L31.2204 32.1132L32.0847 32.2528C32.1329 32.2616 32.178 32.2856 32.2149 32.3222C32.2519 32.3588 32.2792 32.4064 32.2938 32.4598C32.3084 32.5132 32.3098 32.5702 32.2978 32.6245C32.2857 32.6787 32.2607 32.728 32.2256 32.7668L31.5853 33.5012L31.7326 34.4779C31.7428 34.5333 31.7388 34.591 31.7212 34.6439C31.7035 34.6968 31.6728 34.7427 31.6329 34.7761C31.5929 34.8095 31.5454 34.8289 31.4961 34.832C31.4468 34.8351 31.3977 34.8218 31.3548 34.7937L30.5865 34.331L29.8181 34.7937C29.7753 34.8218 29.7262 34.8351 29.6768 34.832C29.6275 34.8289 29.58 34.8095 29.5401 34.7761C29.5002 34.7427 29.4695 34.6968 29.4518 34.6439C29.4341 34.591 29.4301 34.5333 29.4404 34.4779L29.5812 33.5012L28.9409 32.7668C28.9057 32.7275 28.8808 32.6776 28.8691 32.6228C28.8574 32.5681 28.8593 32.5106 28.8746 32.4571C28.89 32.4035 28.9181 32.3559 28.9559 32.3198C28.9937 32.2837 29.0395 32.2605 29.0882 32.2528L29.9462 32.1132L30.356 31.2173C30.3765 31.164 30.4102 31.1186 30.4528 31.0868C30.4954 31.0549 30.5452 31.038 30.5961 31.038C30.647 31.038 30.6967 31.0549 30.7394 31.0868C30.782 31.1186 30.8156 31.164 30.8362 31.2173Z" fill="#EBEBEB"/>
<path d="M29.799 208.213C29.8002 208.406 29.7514 208.596 29.6586 208.758C29.5658 208.919 29.4332 209.046 29.2777 209.121C29.1222 209.196 28.9508 209.216 28.7852 209.179C28.6196 209.142 28.4673 209.05 28.3475 208.914C28.2278 208.777 28.146 208.603 28.1127 208.414C28.0793 208.224 28.0958 208.027 28.16 207.848C28.2243 207.669 28.3334 207.516 28.4736 207.409C28.6138 207.301 28.7787 207.244 28.9474 207.244C29.1721 207.244 29.3878 207.346 29.5473 207.527C29.7068 207.709 29.7973 207.955 29.799 208.213Z" fill="#EBEBEB"/>
<path d="M151.158 85.9931C151.159 86.1865 151.111 86.3761 151.018 86.5377C150.925 86.6993 150.792 86.8256 150.637 86.9006C150.481 86.9757 150.31 86.9961 150.144 86.9592C149.979 86.9224 149.827 86.8299 149.707 86.6936C149.587 86.5573 149.505 86.3833 149.472 86.1937C149.439 86.004 149.455 85.8073 149.519 85.6284C149.584 85.4495 149.693 85.2965 149.833 85.1888C149.973 85.0812 150.138 85.0237 150.307 85.0237C150.418 85.0227 150.529 85.0471 150.632 85.0954C150.735 85.1436 150.829 85.2149 150.908 85.305C150.988 85.3951 151.05 85.5023 151.093 85.6204C151.136 85.7385 151.158 85.8651 151.158 85.9931Z" fill="#EBEBEB"/>
<path d="M107.004 32.025C107.004 32.2182 106.954 32.4071 106.861 32.5677C106.767 32.7283 106.634 32.8535 106.479 32.9274C106.323 33.0013 106.152 33.0207 105.987 32.983C105.821 32.9453 105.67 32.8523 105.551 32.7157C105.432 32.5791 105.35 32.405 105.318 32.2156C105.285 32.0261 105.302 31.8297 105.366 31.6513C105.43 31.4728 105.54 31.3203 105.68 31.2129C105.82 31.1056 105.984 31.0483 106.153 31.0483C106.378 31.0503 106.594 31.1538 106.753 31.3365C106.912 31.5193 107.003 31.7666 107.004 32.025Z" fill="#F5F5F5"/>
<path d="M108.353 270.064C110.883 269.379 112.449 266.472 111.852 263.571C111.255 260.669 108.721 258.872 106.191 259.557C103.661 260.242 102.095 263.149 102.692 266.05C103.289 268.952 105.824 270.748 108.353 270.064Z" fill="#F0F0F0"/>
<path d="M105.653 261.653C104.689 261.651 103.749 262.001 102.97 262.652C102.572 263.699 102.475 264.864 102.691 265.978C102.908 267.093 103.428 268.1 104.175 268.854C104.923 269.608 105.861 270.07 106.852 270.174C107.844 270.277 108.839 270.017 109.693 269.43C110.071 268.628 110.261 267.727 110.245 266.815C110.228 265.903 110.005 265.012 109.598 264.229C109.19 263.446 108.613 262.797 107.921 262.347C107.23 261.897 106.448 261.66 105.653 261.66V261.653Z" fill="#E6E6E6"/>
<path d="M69.2083 170.996H30.247V150.823L69.2083 97.6992H87.8534V151.969H97.5153V170.996H87.8534V187.504H69.2083V170.996ZM69.2083 151.969V124.18L48.6168 151.969H69.2083Z" fill="#8715BC"/>
<path d="M104.181 142.995C104.181 126.207 106.814 114.457 112.082 107.745C117.349 101.033 125.376 97.6796 136.163 97.6845C141.341 97.6845 145.594 98.4188 148.924 99.8875C151.948 101.138 154.718 103.084 157.062 105.608C159.037 107.772 160.711 110.271 162.024 113.018C163.323 115.886 164.302 118.931 164.937 122.08C166.385 128.807 167.107 135.713 167.089 142.642C167.089 158.661 164.726 170.384 160.001 177.811C155.275 185.238 147.137 188.953 135.587 188.958C129.107 188.958 123.871 187.774 119.88 185.404C115.857 182.996 112.468 179.398 110.065 174.983C108.208 171.733 106.763 167.285 105.73 161.64C104.658 155.502 104.138 149.254 104.181 142.995ZM125.4 143.053C125.4 154.314 126.264 161.993 127.993 166.09C129.722 170.188 132.234 172.247 135.529 172.266C136.575 172.28 137.612 172.055 138.582 171.605C139.551 171.155 140.433 170.489 141.176 169.645C142.773 167.897 143.947 165.136 144.698 161.361C145.449 157.586 145.825 151.711 145.825 143.736C145.825 132.016 144.958 124.136 143.225 120.097C141.492 116.058 138.893 114.041 135.426 114.046C131.892 114.046 129.331 116.105 127.743 120.222C126.155 124.339 125.374 131.95 125.4 143.053Z" fill="#8715BC"/>
<path d="M212.67 170.996H173.709V150.823L212.67 97.6989H231.316V151.968H241.009V170.996H231.316V187.504H212.67V170.996ZM212.67 151.968V124.18L192.085 151.968H212.67Z" fill="#8715BC"/>
<g opacity="0.3">
<path d="M103.348 66.7016C103.348 66.9736 103.278 67.2394 103.146 67.4653C103.014 67.6913 102.827 67.8673 102.608 67.9711C102.388 68.0748 102.147 68.1015 101.915 68.048C101.683 67.9944 101.469 67.8629 101.302 67.6701C101.135 67.4773 101.021 67.2319 100.976 66.965C100.93 66.6982 100.955 66.4218 101.047 66.171C101.138 65.9202 101.293 65.7062 101.49 65.5562C101.688 65.4062 101.92 65.3269 102.157 65.3284C102.314 65.3284 102.47 65.364 102.615 65.4331C102.759 65.5022 102.891 65.6034 103.002 65.731C103.112 65.8587 103.2 66.0101 103.259 66.1767C103.319 66.3432 103.349 66.5217 103.348 66.7016Z" fill="#8715BC"/>
<path d="M21.3726 119.451C21.8394 119.451 22.2178 119.017 22.2178 118.481C22.2178 117.946 21.8394 117.512 21.3726 117.512C20.9058 117.512 20.5274 117.946 20.5274 118.481C20.5274 119.017 20.9058 119.451 21.3726 119.451Z" fill="#8715BC"/>
<path d="M161.006 261.014C161.674 261.014 162.216 260.392 162.216 259.626C162.216 258.859 161.674 258.238 161.006 258.238C160.337 258.238 159.796 258.859 159.796 259.626C159.796 260.392 160.337 261.014 161.006 261.014Z" fill="#8715BC"/>
<path d="M190.107 204.541C190.573 204.541 190.952 204.107 190.952 203.572C190.952 203.036 190.573 202.602 190.107 202.602C189.64 202.602 189.261 203.036 189.261 203.572C189.261 204.107 189.64 204.541 190.107 204.541Z" fill="#8715BC"/>
<path d="M246.24 29.9834C246.24 30.1751 246.191 30.3625 246.098 30.5219C246.005 30.6814 245.873 30.8056 245.719 30.879C245.564 30.9523 245.394 30.9715 245.23 30.9341C245.066 30.8967 244.916 30.8044 244.797 30.6688C244.679 30.5333 244.599 30.3605 244.566 30.1725C244.534 29.9845 244.55 29.7896 244.614 29.6124C244.678 29.4353 244.787 29.2839 244.926 29.1774C245.065 29.0709 245.228 29.014 245.395 29.014C245.619 29.014 245.834 29.1162 245.993 29.298C246.151 29.4797 246.24 29.7263 246.24 29.9834Z" fill="#8715BC"/>
<path d="M85.2598 10.4348C85.2598 10.6265 85.2102 10.8139 85.1174 10.9733C85.0245 11.1327 84.8925 11.257 84.7381 11.3303C84.5836 11.4037 84.4137 11.4229 84.2498 11.3855C84.0858 11.3481 83.9352 11.2558 83.817 11.1202C83.6988 10.9846 83.6183 10.8119 83.5857 10.6239C83.5531 10.4358 83.5698 10.2409 83.6338 10.0638C83.6978 9.88667 83.8061 9.73527 83.9451 9.62876C84.0841 9.52224 84.2475 9.46539 84.4146 9.46539C84.6383 9.46731 84.8523 9.57006 85.0104 9.75144C85.1686 9.93281 85.2581 10.1783 85.2598 10.4348Z" fill="#8715BC"/>
<path d="M152.458 61.2964C152.924 61.2964 153.303 60.8625 153.303 60.3271C153.303 59.7917 152.924 59.3577 152.458 59.3577C151.991 59.3577 151.612 59.7917 151.612 60.3271C151.612 60.8625 151.991 61.2964 152.458 61.2964Z" fill="#8715BC"/>
</g>
<path d="M65.0781 61.3041C72.8259 61.3041 79.1068 54.1004 79.1068 45.2142C79.1068 36.328 72.8259 29.1243 65.0781 29.1243C57.3303 29.1243 51.0495 36.328 51.0495 45.2142C51.0495 54.1004 57.3303 61.3041 65.0781 61.3041Z" fill="#8715BC"/>
<path opacity="0.7" d="M65.0781 61.3041C72.8259 61.3041 79.1068 54.1004 79.1068 45.2142C79.1068 36.328 72.8259 29.1243 65.0781 29.1243C57.3303 29.1243 51.0495 36.328 51.0495 45.2142C51.0495 54.1004 57.3303 61.3041 65.0781 61.3041Z" fill="white"/>
<path opacity="0.2" d="M60.2439 33.0753C58.3333 33.0686 56.4419 33.5109 54.6862 34.3751C52.5284 37.0951 51.2477 40.5805 51.0571 44.2513C50.8665 47.9222 51.7775 51.5573 53.6386 54.5518C55.4997 57.5462 58.1986 59.7196 61.2863 60.7103C64.374 61.701 67.6644 61.4493 70.6101 59.997C72.4364 57.6886 73.639 54.8217 74.072 51.7445C74.505 48.6672 74.1497 45.512 73.0493 42.6619C71.9488 39.8118 70.1506 37.3894 67.8729 35.6889C65.5952 33.9885 62.936 33.0831 60.2183 33.0826L60.2439 33.0753Z" fill="#8715BC"/>
<path opacity="0.2" d="M58.848 37.3272C58.848 37.6177 58.7729 37.9016 58.6322 38.1432C58.4915 38.3847 58.2915 38.5729 58.0575 38.6841C57.8235 38.7953 57.566 38.8244 57.3176 38.7677C57.0692 38.711 56.841 38.5711 56.6619 38.3657C56.4828 38.1603 56.3609 37.8986 56.3115 37.6137C56.2621 37.3288 56.2874 37.0335 56.3843 36.7651C56.4813 36.4967 56.6454 36.2674 56.856 36.106C57.0666 35.9446 57.3142 35.8585 57.5674 35.8585C57.9071 35.8585 58.2328 36.0132 58.4729 36.2886C58.7131 36.5641 58.848 36.9377 58.848 37.3272Z" fill="#8715BC"/>
<path opacity="0.2" d="M73.9334 35.8583C73.9334 36.1487 73.8583 36.4327 73.7176 36.6742C73.5769 36.9158 73.3769 37.104 73.1429 37.2152C72.9089 37.3263 72.6514 37.3554 72.403 37.2988C72.1546 37.2421 71.9264 37.1022 71.7473 36.8968C71.5682 36.6914 71.4463 36.4297 71.3969 36.1448C71.3475 35.8599 71.3728 35.5646 71.4697 35.2962C71.5666 35.0278 71.7308 34.7984 71.9414 34.637C72.152 34.4757 72.3995 34.3895 72.6528 34.3895C72.9924 34.3895 73.3182 34.5443 73.5583 34.8197C73.7985 35.0951 73.9334 35.4687 73.9334 35.8583Z" fill="#8715BC"/>
<path opacity="0.2" d="M71.372 46.345C71.372 46.8214 71.2488 47.2871 71.018 47.6833C70.7873 48.0794 70.4593 48.3881 70.0755 48.5704C69.6918 48.7527 69.2695 48.8004 68.8621 48.7075C68.4547 48.6145 68.0805 48.3851 67.7868 48.0483C67.4931 47.7114 67.2931 47.2822 67.212 46.815C67.131 46.3477 67.1726 45.8634 67.3316 45.4233C67.4905 44.9831 67.7597 44.607 68.1051 44.3423C68.4504 44.0776 68.8565 43.9363 69.2718 43.9363C69.8288 43.9363 70.363 44.1901 70.7568 44.6418C71.1507 45.0936 71.372 45.7062 71.372 46.345Z" fill="#8715BC"/>
<path opacity="0.2" d="M64.7006 53.2113C64.7006 53.8475 64.5362 54.4694 64.228 54.9983C63.9198 55.5273 63.4818 55.9395 62.9694 56.183C62.457 56.4264 61.8931 56.4901 61.3491 56.366C60.8051 56.2419 60.3054 55.9356 59.9131 55.4857C59.5209 55.0359 59.2538 54.4628 59.1456 53.8388C59.0374 53.2149 59.093 52.5682 59.3052 51.9804C59.5175 51.3927 59.8769 50.8903 60.3381 50.5369C60.7993 50.1835 61.3415 49.9948 61.8962 49.9948C62.64 49.9948 63.3533 50.3337 63.8792 50.9369C64.4052 51.5401 64.7006 52.3582 64.7006 53.2113Z" fill="#8715BC"/>
<path d="M231.341 239.296C232.903 231.705 228.804 224.099 222.186 222.308C215.568 220.516 208.936 225.217 207.374 232.808C205.812 240.399 209.911 248.005 216.529 249.796C223.147 251.588 229.779 246.887 231.341 239.296Z" fill="#8715BC"/>
<path opacity="0.3" d="M231.341 239.296C232.903 231.705 228.804 224.099 222.186 222.308C215.568 220.516 208.936 225.217 207.374 232.808C205.812 240.399 209.911 248.005 216.529 249.796C223.147 251.588 229.779 246.887 231.341 239.296Z" fill="white"/>
<path opacity="0.4" d="M227.135 225.118C224.405 224.173 221.474 224.345 218.843 225.603C216.211 226.861 214.042 229.129 212.707 232.018C211.371 234.907 210.951 238.238 211.519 241.442C212.087 244.647 213.608 247.526 215.821 249.587C216.969 249.987 218.162 250.19 219.362 250.189C221.903 250.189 224.383 249.286 226.459 247.604C228.536 245.923 230.108 243.546 230.96 240.799C231.811 238.052 231.901 235.07 231.216 232.262C230.531 229.455 229.105 226.959 227.135 225.118Z" fill="#8715BC"/>
<path d="M207.606 240.29C194.461 247.384 204.263 252.855 222.787 245.218C239.94 238.146 246.477 229.23 231.11 231.999C231.936 235.708 210.455 245.306 207.606 240.29Z" fill="#8715BC"/>
<path opacity="0.2" d="M226.987 97.6989C209.77 111.042 187.482 128.667 181.329 170.996H180.016C186.003 129.137 207.478 111.094 224.702 97.6989H226.987Z" fill="#06021C"/>
<path d="M137.924 230.207C127.039 230.207 116.276 224.575 111.032 215.38C107.799 209.697 104.04 197.793 115.232 181.908L116.225 182.834C108.311 194.069 106.851 205.342 112.108 214.58C118.511 225.816 133.615 231.47 146.51 227.446C159.719 223.326 167.736 210.152 168.51 191.301C171.155 126.816 201.024 106.952 222.832 92.4483C236.387 83.4376 246.177 76.9312 244.025 63.1913C243.725 61.2893 243.065 59.9748 241.996 59.167C239.211 57.0594 233.768 58.5207 227.468 60.2024C215.104 63.5071 198.175 68.0307 188.09 48.3572L189.198 47.6228C198.802 66.3711 214.534 62.1632 227.18 58.7851C233.768 57.03 239.454 55.5099 242.7 57.9553C244.077 58.9907 244.922 60.6284 245.261 62.9489C247.573 77.6949 236.938 84.7742 223.46 93.7334C201.901 108.068 172.384 127.698 169.772 191.404C168.965 210.938 160.603 224.604 146.824 228.9C143.921 229.787 140.928 230.226 137.924 230.207Z" fill="#8715BC"/>
<path opacity="0.2" d="M137.924 230.207C127.039 230.207 116.276 224.575 111.032 215.38C107.799 209.697 104.04 197.793 115.232 181.908L116.225 182.834C108.311 194.069 106.851 205.342 112.108 214.58C118.511 225.816 133.615 231.47 146.51 227.446C159.719 223.326 167.736 210.152 168.51 191.301C171.155 126.816 201.024 106.952 222.832 92.4483C236.387 83.4376 246.177 76.9312 244.025 63.1913C243.725 61.2893 243.065 59.9748 241.996 59.167C239.211 57.0594 233.768 58.5207 227.468 60.2024C215.104 63.5071 198.175 68.0307 188.09 48.3572L189.198 47.6228C198.802 66.3711 214.534 62.1632 227.18 58.7851C233.768 57.03 239.454 55.5099 242.7 57.9553C244.077 58.9907 244.922 60.6284 245.261 62.9489C247.573 77.6949 236.938 84.7742 223.46 93.7334C201.901 108.068 172.384 127.698 169.772 191.404C168.965 210.938 160.603 224.604 146.824 228.9C143.921 229.787 140.928 230.226 137.924 230.207Z" fill="white"/>
<path d="M174.907 30.9967C177.857 31.0162 180.788 31.5435 183.602 32.5609C183.602 32.5609 190.645 46.3449 191.477 49.5026C191.183 52.6163 186.605 57.7201 186.605 57.7201L174.907 30.9967Z" fill="#8715BC"/>
<path opacity="0.3" d="M174.907 30.9967C177.857 31.0162 180.788 31.5435 183.602 32.5609C183.602 32.5609 190.645 46.3449 191.477 49.5026C191.183 52.6163 186.605 57.7201 186.605 57.7201L174.907 30.9967Z" fill="white"/>
<path d="M195.767 97.9192C193.055 94.1155 190.581 90.0958 188.365 85.8904C187.827 84.828 187.317 83.746 186.835 82.6445C186.56 82.0203 186.297 81.3961 186.041 80.7645C185.705 80.15 185.444 79.4853 185.266 78.7891C184.498 69.4847 187.277 62.6331 184.626 55.1647L174.074 59.894C174.074 59.894 174.971 73.2006 177.019 81.1905C178.3 86.1327 181.168 90.4067 183.941 94.3649C184.805 95.5987 185.638 96.8691 186.502 98.1102C187.366 99.3512 188.237 100.357 189.063 101.525C190.312 103.295 190.722 104.991 189.78 107.077L189.62 107.407C189.351 107.951 190.606 108.567 191.4 107.407C192.681 105.513 192.502 105.63 193.616 104.014C194.294 103.038 195.069 101.973 195.741 101.077C196.066 100.636 196.246 100.08 196.25 99.5034C196.255 98.9269 196.084 98.3666 195.767 97.9192Z" fill="#8715BC"/>
<path opacity="0.7" d="M195.767 97.9192C193.055 94.1155 190.581 90.0958 188.365 85.8904C187.827 84.828 187.317 83.746 186.835 82.6445C186.56 82.0203 186.297 81.3961 186.041 80.7645C185.705 80.15 185.444 79.4853 185.266 78.7891C184.498 69.4847 187.277 62.6331 184.626 55.1647L174.074 59.894C174.074 59.894 174.971 73.2006 177.019 81.1905C178.3 86.1327 181.168 90.4067 183.941 94.3649C184.805 95.5987 185.638 96.8691 186.502 98.1102C187.366 99.3512 188.237 100.357 189.063 101.525C190.312 103.295 190.722 104.991 189.78 107.077L189.62 107.407C189.351 107.951 190.606 108.567 191.4 107.407C192.681 105.513 192.502 105.63 193.616 104.014C194.294 103.038 195.069 101.973 195.741 101.077C196.066 100.636 196.246 100.08 196.25 99.5034C196.255 98.9269 196.084 98.3666 195.767 97.9192Z" fill="white"/>
<path opacity="0.3" d="M193.187 94.0932C191.512 96.1518 189.654 98.0028 187.642 99.6156C187.917 99.9681 188.186 100.35 188.461 100.688C190.476 99.1269 192.305 97.2731 193.904 95.1727L193.187 94.0932Z" fill="#8715BC"/>
<path opacity="0.3" d="M195.767 97.9193L195.69 97.8165C195.197 98.4648 194.911 99.2854 194.877 100.144C194.836 100.734 194.919 101.326 195.12 101.87L195.728 101.04C196.046 100.604 196.224 100.056 196.231 99.4877C196.238 98.9193 196.074 98.3655 195.767 97.9193Z" fill="#8715BC"/>
<path d="M172.397 39.809C171.253 41.7736 169.881 43.5499 168.318 45.0891C167.452 45.9456 166.502 46.6849 165.488 47.2922C164.956 47.6053 164.403 47.8728 163.836 48.0927L163.401 48.2542L163.26 48.2983L162.959 48.3937C162.774 48.4442 162.585 48.4785 162.396 48.4966C161.856 48.5439 161.312 48.4868 160.789 48.3276C160.128 48.1127 159.495 47.7991 158.906 47.395C158.432 47.0772 157.973 46.7316 157.53 46.3596C156.729 45.6766 155.964 44.941 155.237 44.1565C153.837 42.6345 152.552 40.9786 151.396 39.2069C151.173 38.8617 151.062 38.4383 151.083 38.0096C151.104 37.5809 151.254 37.1739 151.508 36.8588C151.762 36.5437 152.105 36.3403 152.476 36.2836C152.847 36.227 153.223 36.3206 153.541 36.5485H153.592C155.103 37.65 156.627 38.8103 158.112 39.8458C158.868 40.3525 159.598 40.8665 160.321 41.2631C160.651 41.4614 160.991 41.638 161.339 41.7918C161.556 41.9016 161.788 41.9662 162.024 41.9828C162.063 41.9828 162.024 41.9314 161.787 41.9387C161.713 41.9336 161.638 41.9336 161.563 41.9387L161.422 41.9754L161.634 41.8506C161.918 41.675 162.194 41.4813 162.46 41.2704C163.033 40.8071 163.568 40.2861 164.06 39.7136C165.179 38.3691 166.227 36.9493 167.198 35.4616C167.73 34.7789 168.465 34.3488 169.26 34.2558C170.054 34.1627 170.85 34.4135 171.491 34.9588C172.133 35.5041 172.573 36.3046 172.727 37.2033C172.88 38.102 172.735 39.034 172.32 39.8164L172.397 39.809Z" fill="#8715BC"/>
<path opacity="0.7" d="M172.397 39.809C171.253 41.7736 169.881 43.5499 168.318 45.0891C167.452 45.9456 166.502 46.6849 165.488 47.2922C164.956 47.6053 164.403 47.8728 163.836 48.0927L163.401 48.2542L163.26 48.2983L162.959 48.3937C162.774 48.4442 162.585 48.4785 162.396 48.4966C161.856 48.5439 161.312 48.4868 160.789 48.3276C160.128 48.1127 159.495 47.7991 158.906 47.395C158.432 47.0772 157.973 46.7316 157.53 46.3596C156.729 45.6766 155.964 44.941 155.237 44.1565C153.837 42.6345 152.552 40.9786 151.396 39.2069C151.173 38.8617 151.062 38.4383 151.083 38.0096C151.104 37.5809 151.254 37.1739 151.508 36.8588C151.762 36.5437 152.105 36.3403 152.476 36.2836C152.847 36.227 153.223 36.3206 153.541 36.5485H153.592C155.103 37.65 156.627 38.8103 158.112 39.8458C158.868 40.3525 159.598 40.8665 160.321 41.2631C160.651 41.4614 160.991 41.638 161.339 41.7918C161.556 41.9016 161.788 41.9662 162.024 41.9828C162.063 41.9828 162.024 41.9314 161.787 41.9387C161.713 41.9336 161.638 41.9336 161.563 41.9387L161.422 41.9754L161.634 41.8506C161.918 41.675 162.194 41.4813 162.46 41.2704C163.033 40.8071 163.568 40.2861 164.06 39.7136C165.179 38.3691 166.227 36.9493 167.198 35.4616C167.73 34.7789 168.465 34.3488 169.26 34.2558C170.054 34.1627 170.85 34.4135 171.491 34.9588C172.133 35.5041 172.573 36.3046 172.727 37.2033C172.88 38.102 172.735 39.034 172.32 39.8164L172.397 39.809Z" fill="white"/>
<path d="M148.995 34.9769L149.744 36.4457C149.744 36.4457 150.314 38.3697 151.46 38.7222L154.571 37.5692L154.411 37.2681C154.014 36.5778 154.059 35.234 154.194 34.1177C154.328 33.0015 153.829 32.9648 153.457 33.2438C153.194 33.591 153.009 34.0072 152.919 34.4555C152.767 34.213 152.598 33.9847 152.414 33.7726L151.466 32.6857C151.267 32.4629 151.002 32.3345 150.724 32.3263C150.447 32.3181 150.176 32.4308 149.968 32.6417L149.199 33.4274C149.017 33.6208 148.898 33.8795 148.86 34.161C148.823 34.4426 148.87 34.7303 148.995 34.9769Z" fill="#8715BC"/>
<path opacity="0.7" d="M148.995 34.9769L149.744 36.4457C149.744 36.4457 150.314 38.3697 151.46 38.7222L154.571 37.5692L154.411 37.2681C154.014 36.5778 154.059 35.234 154.194 34.1177C154.328 33.0015 153.829 32.9648 153.457 33.2438C153.194 33.591 153.009 34.0072 152.919 34.4555C152.767 34.213 152.598 33.9847 152.414 33.7726L151.466 32.6857C151.267 32.4629 151.002 32.3345 150.724 32.3263C150.447 32.3181 150.176 32.4308 149.968 32.6417L149.199 33.4274C149.017 33.6208 148.898 33.8795 148.86 34.161C148.823 34.4426 148.87 34.7303 148.995 34.9769Z" fill="white"/>
<path d="M178.051 29.6894C174.599 30.7387 171.293 32.3381 168.229 34.4407C167.751 34.7839 167.376 35.2864 167.154 35.881C166.932 36.4756 166.873 37.1338 166.987 37.7674C168.222 44.6998 171.033 53.9821 174.068 59.8937L188.225 53.1743C188.321 50.3103 184.883 41.0427 181.38 32.0834C180.753 30.4752 179.543 29.2782 178.051 29.6894Z" fill="#8715BC"/>
<path opacity="0.8" d="M178.051 29.6894C174.599 30.7387 171.293 32.3381 168.229 34.4407C167.751 34.7839 167.376 35.2864 167.154 35.881C166.932 36.4756 166.873 37.1338 166.987 37.7674C168.222 44.6998 171.033 53.9821 174.068 59.8937L188.225 53.1743C188.321 50.3103 184.883 41.0427 181.38 32.0834C180.753 30.4752 179.543 29.2782 178.051 29.6894Z" fill="white"/>
<path opacity="0.3" d="M183.576 37.7604L180.765 36.6808C181.405 38.5682 183.666 40.9548 185.247 42.3575C184.735 40.8887 184.165 39.3466 183.576 37.7604Z" fill="#8715BC"/>
<path d="M177.122 22.4194C175.95 19.8639 173.421 18.5787 170.386 18.8651C167.825 19.1148 165.559 22.111 165.828 23.7266C166.096 25.3422 168.248 26.0325 168.658 26.5906L166.884 28.0593C166.674 28.2333 166.497 28.4542 166.363 28.7087C166.229 28.9633 166.142 29.2462 166.106 29.5405C166.07 29.8349 166.086 30.1345 166.154 30.4213C166.222 30.7082 166.339 30.9764 166.5 31.2097C167.249 32.2966 168.235 33.4128 168.805 34.2353C173.709 34.0884 177.34 31.9441 178.652 29.8806C178.159 27.2662 178.262 24.9603 177.122 22.4194Z" fill="#8715BC"/>
<path opacity="0.8" d="M177.122 22.4194C175.95 19.8639 173.421 18.5787 170.386 18.8651C167.825 19.1148 165.559 22.111 165.828 23.7266C166.096 25.3422 168.248 26.0325 168.658 26.5906L166.884 28.0593C166.674 28.2333 166.497 28.4542 166.363 28.7087C166.229 28.9633 166.142 29.2462 166.106 29.5405C166.07 29.8349 166.086 30.1345 166.154 30.4213C166.222 30.7082 166.339 30.9764 166.5 31.2097C167.249 32.2966 168.235 33.4128 168.805 34.2353C173.709 34.0884 177.34 31.9441 178.652 29.8806C178.159 27.2662 178.262 24.9603 177.122 22.4194Z" fill="white"/>
<path d="M174.715 24.0056C175.063 25.0297 175.138 26.1493 174.932 27.2227C174.725 28.2962 174.246 29.2753 173.555 30.0364C172.863 30.7974 171.99 31.3062 171.047 31.4985C170.103 31.6908 169.131 31.5579 168.253 31.1166C167.375 30.6753 166.631 29.9454 166.115 29.0192C165.599 28.093 165.333 27.0121 165.353 25.9131C165.372 24.814 165.675 23.7463 166.223 22.8447C166.772 21.9431 167.541 21.2482 168.433 20.8478C169.631 20.3125 170.966 20.3444 172.144 20.9364C173.321 21.5284 174.246 22.6323 174.715 24.0056Z" fill="#263238"/>
<path d="M216.288 90.1864C216.218 87.7704 216.122 87.9833 216.064 85.9491C216.026 84.7007 216.019 83.3128 216.013 82.1158C216.011 81.5473 215.838 80.9972 215.523 80.5583C215.208 80.1194 214.77 79.8187 214.284 79.7071C213.439 79.5088 212.588 79.3252 211.723 79.1196C210.615 78.8479 209.521 78.5541 208.438 78.1943C207.593 77.9152 206.761 77.6068 205.935 77.2616C205.109 76.9165 204.181 76.5273 203.323 76.072C202.311 75.58 201.312 75.0512 200.326 74.5004C199.218 73.8983 198.123 73.2667 197.029 72.6278C192.816 64.6306 192.726 59.3579 188.205 53.1746L178.499 58.2123C178.499 58.2123 185.632 72.7233 190.485 78.8772C193.283 82.4169 197.669 84.0178 201.581 85.1781C204.405 86.0079 207.267 86.6468 210.129 87.2563C211.243 87.4913 212.453 87.5794 213.413 88.3432C214.124 88.968 214.611 89.8689 214.784 90.8767C214.826 91.0823 214.865 91.288 214.899 91.4936C215.021 92.1104 216.333 91.6405 216.288 90.1864Z" fill="#8715BC"/>
<path opacity="0.8" d="M216.288 90.1864C216.218 87.7704 216.122 87.9833 216.064 85.9491C216.026 84.7007 216.019 83.3128 216.013 82.1158C216.011 81.5473 215.838 80.9972 215.523 80.5583C215.208 80.1194 214.77 79.8187 214.284 79.7071C213.439 79.5088 212.588 79.3252 211.723 79.1196C210.615 78.8479 209.521 78.5541 208.438 78.1943C207.593 77.9152 206.761 77.6068 205.935 77.2616C205.109 76.9165 204.181 76.5273 203.323 76.072C202.311 75.58 201.312 75.0512 200.326 74.5004C199.218 73.8983 198.123 73.2667 197.029 72.6278C192.816 64.6306 192.726 59.3579 188.205 53.1746L178.499 58.2123C178.499 58.2123 185.632 72.7233 190.485 78.8772C193.283 82.4169 197.669 84.0178 201.581 85.1781C204.405 86.0079 207.267 86.6468 210.129 87.2563C211.243 87.4913 212.453 87.5794 213.413 88.3432C214.124 88.968 214.611 89.8689 214.784 90.8767C214.826 91.0823 214.865 91.288 214.899 91.4936C215.021 92.1104 216.333 91.6405 216.288 90.1864Z" fill="white"/>
<path opacity="0.3" d="M211.365 79.0239C210.981 78.9284 210.596 78.8329 210.206 78.7228C210.238 81.2637 209.201 85.6405 208.823 86.9697L210.039 87.234C210.837 84.5887 211.283 81.8212 211.365 79.0239Z" fill="#8715BC"/>
<path opacity="0.3" d="M216.038 82.1156C216.037 81.5482 215.864 80.9989 215.551 80.5601C215.237 80.1214 214.801 79.8201 214.316 79.7069L213.676 79.5674C213.779 80.4022 214.151 81.1623 214.719 81.697C215.085 82.0846 215.523 82.371 216 82.5342C216.038 82.402 216.038 82.2551 216.038 82.1156Z" fill="#8715BC"/>
<path d="M173.812 24.0498C174.068 25.166 172.979 26.3336 172.115 25.3716C171.308 24.3795 170.425 23.4726 169.477 22.6618C168.587 22.0229 169.771 20.9067 171.174 21.34C171.772 21.5124 172.325 21.8491 172.784 22.3212C173.244 22.7933 173.596 23.3865 173.812 24.0498Z" fill="white"/>
<path d="M173.882 59.5341C173.434 59.725 174.254 60.6063 174.254 60.6063C174.254 60.6063 183.218 57.0887 188.66 53.4683C188.673 53.2491 188.64 53.0295 188.565 52.8277C188.489 52.6259 188.372 52.4477 188.225 52.308C183.567 55.0255 178.778 57.4381 173.882 59.5341Z" fill="#8715BC"/>
<path opacity="0.5" d="M173.882 59.5341C173.434 59.725 174.254 60.6063 174.254 60.6063C174.254 60.6063 183.218 57.0887 188.66 53.4683C188.673 53.2491 188.64 53.0295 188.565 52.8277C188.489 52.6259 188.372 52.4477 188.225 52.308C183.567 55.0255 178.778 57.4381 173.882 59.5341Z" fill="white"/>
<path d="M180.477 29.2049C182.244 30.2331 183.903 31.3126 185.599 32.5096C186.425 33.1118 187.245 33.7213 188.058 34.3822C188.871 35.0431 189.678 35.7187 190.491 36.4825L190.792 36.7689L191.17 37.1654C191.395 37.3964 191.609 37.6416 191.81 37.8998C192.015 38.1568 192.188 38.4065 192.354 38.6342C192.521 38.8618 192.7 39.1335 192.847 39.3685C193.444 40.3126 193.996 41.2932 194.499 42.306C195.492 44.2699 196.348 46.3202 197.061 48.4379C197.192 48.838 197.199 49.2781 197.08 49.6833C196.961 50.0885 196.723 50.4339 196.406 50.6606C196.09 50.8874 195.715 50.9815 195.346 50.9271C194.976 50.8726 194.634 50.6729 194.378 50.3619L194.346 50.3179C193.065 48.7537 191.829 47.1087 190.587 45.5739C189.345 44.0391 188.084 42.4822 187.04 41.7993C185.587 40.7638 183.967 39.7284 182.36 38.7149L177.519 35.6306C176.768 35.1749 176.206 34.3958 175.957 33.4648C175.707 32.5338 175.79 31.5272 176.187 30.6663C176.585 29.8055 177.264 29.1609 178.076 28.8745C178.887 28.588 179.765 28.6831 180.516 29.1389L180.477 29.2049Z" fill="#8715BC"/>
<path opacity="0.8" d="M180.477 29.2049C182.244 30.2331 183.903 31.3126 185.599 32.5096C186.425 33.1118 187.245 33.7213 188.058 34.3822C188.871 35.0431 189.678 35.7187 190.491 36.4825L190.792 36.7689L191.17 37.1654C191.395 37.3964 191.609 37.6416 191.81 37.8998C192.015 38.1568 192.188 38.4065 192.354 38.6342C192.521 38.8618 192.7 39.1335 192.847 39.3685C193.444 40.3126 193.996 41.2932 194.499 42.306C195.492 44.2699 196.348 46.3202 197.061 48.4379C197.192 48.838 197.199 49.2781 197.08 49.6833C196.961 50.0885 196.723 50.4339 196.406 50.6606C196.09 50.8874 195.715 50.9815 195.346 50.9271C194.976 50.8726 194.634 50.6729 194.378 50.3619L194.346 50.3179C193.065 48.7537 191.829 47.1087 190.587 45.5739C189.345 44.0391 188.084 42.4822 187.04 41.7993C185.587 40.7638 183.967 39.7284 182.36 38.7149L177.519 35.6306C176.768 35.1749 176.206 34.3958 175.957 33.4648C175.707 32.5338 175.79 31.5272 176.187 30.6663C176.585 29.8055 177.264 29.1609 178.076 28.8745C178.887 28.588 179.765 28.6831 180.516 29.1389L180.477 29.2049Z" fill="white"/>
<path d="M198.578 52.1026L198.034 50.5384C198.034 50.5384 197.733 48.5409 196.651 47.9828L193.449 48.5629L193.558 48.8861C193.853 49.6204 193.629 50.9643 193.34 52.0365C193.052 53.1086 193.539 53.2482 193.949 53.0352C194.179 52.9177 194.403 52.4404 194.647 51.9337C194.766 52.1889 194.901 52.4343 195.05 52.668L195.838 53.9091C196.002 54.1663 196.245 54.3425 196.519 54.4025C196.792 54.4624 197.075 54.4016 197.31 54.2322L198.181 53.5933C198.385 53.4333 198.535 53.1986 198.607 52.9277C198.679 52.6568 198.669 52.3658 198.578 52.1026Z" fill="#8715BC"/>
<path opacity="0.8" d="M198.578 52.1026L198.034 50.5384C198.034 50.5384 197.733 48.5409 196.651 47.9828L193.449 48.5629L193.558 48.8861C193.853 49.6204 193.629 50.9643 193.34 52.0365C193.052 53.1086 193.539 53.2482 193.949 53.0352C194.179 52.9177 194.403 52.4404 194.647 51.9337C194.766 52.1889 194.901 52.4343 195.05 52.668L195.838 53.9091C196.002 54.1663 196.245 54.3425 196.519 54.4025C196.792 54.4624 197.075 54.4016 197.31 54.2322L198.181 53.5933C198.385 53.4333 198.535 53.1986 198.607 52.9277C198.679 52.6568 198.669 52.3658 198.578 52.1026Z" fill="white"/>
<path opacity="0.3" d="M177.775 37.65L176.994 37.7235L172.198 51.0007C172.461 51.0224 172.724 50.9976 172.98 50.9273C172.98 50.9273 179.229 48.2542 181.118 47.2555C179.85 44.2519 177.775 37.65 177.775 37.65Z" fill="#8715BC"/>
<path d="M169.023 41.1311C169.605 44.6019 170.687 47.9373 172.224 51.001C174.568 50.0757 178.473 48.3279 180.369 47.3291C179.095 44.197 177.964 40.9909 176.981 37.7237C174.977 37.8779 170.579 39.8093 169.023 41.1311Z" fill="white"/>
<path opacity="0.3" d="M173.78 44.0025C173.686 44.3616 173.502 44.6808 173.25 44.9197C172.998 45.1587 172.691 45.3065 172.365 45.3447C172.04 45.3828 171.713 45.3095 171.424 45.134C171.135 44.9585 170.898 44.6887 170.743 44.3587C170.588 44.0288 170.522 43.6535 170.553 43.2803C170.584 42.9072 170.711 42.553 170.917 42.2625C171.124 41.972 171.401 41.7583 171.713 41.6484C172.026 41.5385 172.359 41.5374 172.672 41.6452C173.092 41.7896 173.444 42.119 173.652 42.561C173.859 43.003 173.905 43.5214 173.78 44.0025Z" fill="#8715BC"/>
<path opacity="0.6" d="M175.003 41.4762C174.978 41.5987 174.921 41.7098 174.84 41.7948C174.759 41.8797 174.658 41.9346 174.549 41.9523C174.44 41.9699 174.33 41.9495 174.231 41.8936C174.133 41.8377 174.051 41.749 173.998 41.6392C173.944 41.5294 173.921 41.4035 173.931 41.2782C173.941 41.1528 173.983 41.0338 174.053 40.9367C174.123 40.8397 174.217 40.7691 174.322 40.7343C174.428 40.6995 174.54 40.7021 174.644 40.7418C174.774 40.7894 174.883 40.8916 174.95 41.0279C175.016 41.1642 175.035 41.3244 175.003 41.4762Z" fill="#8715BC"/>
<path opacity="0.6" d="M176.437 40.8374C176.422 40.9226 176.392 41.0032 176.348 41.0742C176.304 41.1451 176.248 41.2048 176.183 41.2494C176.118 41.294 176.045 41.3225 175.97 41.3331C175.895 41.3437 175.819 41.3362 175.746 41.311C175.673 41.2859 175.606 41.2436 175.549 41.187C175.491 41.1303 175.445 41.0605 175.412 40.9821C175.38 40.9036 175.362 40.8182 175.36 40.7313C175.357 40.6444 175.371 40.558 175.4 40.4775C175.42 40.3998 175.454 40.3275 175.499 40.2648C175.544 40.202 175.599 40.15 175.661 40.1118C175.724 40.0736 175.792 40.0499 175.863 40.0421C175.933 40.0343 176.004 40.0425 176.072 40.0663C176.209 40.1139 176.324 40.2215 176.393 40.3659C176.461 40.5102 176.477 40.6796 176.437 40.8374Z" fill="#8715BC"/>
<path opacity="0.5" d="M178.448 46.5578L172.525 49.2382L172.173 47.9017L178.089 45.2213L178.448 46.5578Z" fill="#8715BC"/>
<path opacity="0.2" d="M145.774 148.62C145.76 152.896 145.4 157.161 144.698 161.361C143.943 165.135 142.769 167.897 141.176 169.644C140.435 170.489 139.554 171.155 138.586 171.605C137.617 172.055 136.58 172.28 135.536 172.266C132.245 172.266 129.732 170.207 127.999 166.09C127.695 165.35 127.436 164.587 127.225 163.806C123.565 167.411 120.156 171.34 117.031 175.556L113.631 180.153C115.461 182.28 117.572 184.062 119.887 185.433C123.874 187.798 129.107 188.983 135.587 188.987C136.727 188.987 137.828 188.951 138.897 188.877C142.817 182.224 146.061 175.079 148.565 167.581L158.074 139.146L145.774 148.62Z" fill="#06021C"/>
<path d="M60.0588 187.416L71.2638 200.267L102.638 166.362C91.8233 161.625 70.7963 175.071 60.0588 187.416Z" fill="#263238"/>
<path d="M99.1355 232.212C95.5563 228.1 87.9305 219.361 87.9305 219.361L117.492 183.377C121.597 195.751 109.873 219.889 99.1355 232.212Z" fill="#263238"/>
<path d="M142.021 151.212L154.244 124.18L130.676 138.214C123.105 142.717 116.115 148.401 109.905 155.104L69.7269 198.483L89.4669 221.123L127.288 175.042C133.136 167.917 138.094 159.898 142.021 151.212Z" fill="#8715BC"/>
<path opacity="0.6" d="M142.021 151.212L154.244 124.18L130.676 138.214C123.105 142.717 116.115 148.401 109.905 155.104L69.7269 198.483L89.4669 221.123L127.288 175.042C133.136 167.917 138.094 159.898 142.021 151.212Z" fill="white"/>
<path d="M116.923 176.459C121.484 176.459 125.182 172.218 125.182 166.986C125.182 161.754 121.484 157.513 116.923 157.513C112.361 157.513 108.663 161.754 108.663 166.986C108.663 172.218 112.361 176.459 116.923 176.459Z" fill="white"/>
<path d="M116.922 173.074C119.854 173.074 122.23 170.348 122.23 166.986C122.23 163.624 119.854 160.898 116.922 160.898C113.991 160.898 111.615 163.624 111.615 166.986C111.615 170.348 113.991 173.074 116.922 173.074Z" fill="#8715BC"/>
<path opacity="0.3" d="M96.1454 212.986L76.8152 190.816L92.6431 173.735L111.038 194.84L96.1454 212.986Z" fill="#8715BC"/>
<path d="M64.4319 207.699C49.9614 209.043 45.1657 219.669 43.5266 233.791C42.6942 240.995 42.3228 248.287 37.0533 252.502C36.7363 252.75 36.4976 253.108 36.373 253.524C36.2484 253.939 36.2446 254.39 36.3621 254.809C36.4796 255.227 36.7122 255.59 37.0249 255.845C37.3377 256.099 37.7138 256.23 38.097 256.218C57.5232 255.521 66.5832 244.615 67.7229 240.062C67.4238 242.442 66.8889 244.776 66.1286 247.017C65.9889 247.412 65.9615 247.848 66.0504 248.262C66.1393 248.677 66.34 249.048 66.6238 249.324C66.9077 249.6 67.2602 249.766 67.6311 249.799C68.0021 249.832 68.3725 249.729 68.6898 249.506C74.1386 245.592 80.9768 238.381 81.4314 226.682C77.4232 220.168 64.4319 207.699 64.4319 207.699Z" fill="#8715BC"/>
<path opacity="0.2" d="M64.4319 207.699C49.9614 209.043 45.1657 219.669 43.5266 233.791C42.6942 240.995 42.3228 248.287 37.0533 252.502C36.7363 252.75 36.4976 253.108 36.373 253.524C36.2484 253.939 36.2446 254.39 36.3621 254.809C36.4796 255.227 36.7122 255.59 37.0249 255.845C37.3377 256.099 37.7138 256.23 38.097 256.218C57.5232 255.521 66.5832 244.615 67.7229 240.062C67.4238 242.442 66.8889 244.776 66.1286 247.017C65.9889 247.412 65.9615 247.848 66.0504 248.262C66.1393 248.677 66.34 249.048 66.6238 249.324C66.9077 249.6 67.2602 249.766 67.6311 249.799C68.0021 249.832 68.3725 249.729 68.6898 249.506C74.1386 245.592 80.9768 238.381 81.4314 226.682C77.4232 220.168 64.4319 207.699 64.4319 207.699Z" fill="white"/>
<path d="M83.6785 231.698L60.5002 205.114L72.8449 202.052L86.3485 217.539L83.6785 231.698Z" fill="#8715BC"/>
</svg>
