<svg width="898" height="710" viewBox="0 0 898 710" fill="none" xmlns="http://www.w3.org/2000/svg">
<path d="M267.534 148.948L269.663 153.249L274.42 153.946L270.977 157.3L271.792 162.034L267.534 159.799L263.289 162.034L264.104 157.3L260.661 153.946L265.418 153.249L267.534 148.948Z" fill="#EBEBEB"/>
<path d="M692.842 351.794L694.971 356.108L699.728 356.805L696.285 360.145L697.1 364.893L692.842 362.657L688.598 364.893L689.413 360.145L685.97 356.805L690.727 356.108L692.842 351.794Z" fill="#F5F5F5"/>
<path d="M820.873 123L823.002 127.314L827.759 128.011L824.316 131.352L825.13 136.1L820.873 133.864L816.628 136.1L817.443 131.352L814 128.011L818.757 127.314L820.873 123Z" fill="#F5F5F5"/>
<path d="M608.609 476.858L610.738 481.159L615.482 481.856L612.039 485.209L612.854 489.944L608.609 487.708L604.365 489.944L605.166 485.209L601.736 481.856L606.48 481.159L608.609 476.858Z" fill="#F5F5F5"/>
<path d="M415.883 72.534L416.671 74.1386L418.445 74.4016C418.544 74.4146 418.638 74.4555 418.714 74.5196C418.791 74.5836 418.848 74.6682 418.878 74.7634C418.908 74.8586 418.911 74.9605 418.885 75.0572C418.86 75.1538 418.808 75.2412 418.734 75.3091L417.42 76.5586L417.722 78.321C417.738 78.419 417.726 78.5195 417.688 78.6113C417.65 78.7031 417.588 78.7826 417.508 78.8411C417.427 78.8996 417.333 78.9348 417.234 78.9428C417.135 78.9508 417.036 78.9313 416.947 78.8865L415.37 78.0447L413.793 78.8865C413.705 78.9313 413.606 78.9508 413.507 78.9428C413.408 78.9348 413.313 78.8996 413.233 78.8411C413.153 78.7826 413.09 78.7031 413.052 78.6113C413.014 78.5195 413.002 78.419 413.018 78.321L413.307 76.5586L411.993 75.3091C411.919 75.2403 411.867 75.1519 411.842 75.0542C411.818 74.9566 411.821 74.8539 411.853 74.7583C411.885 74.6627 411.944 74.5783 412.022 74.515C412.1 74.4518 412.195 74.4124 412.295 74.4016L414.056 74.1386L414.845 72.534C414.876 72.4205 414.944 72.3204 415.038 72.2492C415.131 72.1779 415.246 72.1393 415.364 72.1393C415.481 72.1393 415.596 72.1779 415.69 72.2492C415.783 72.3204 415.851 72.4205 415.883 72.534Z" fill="#EBEBEB"/>
<path d="M198.845 456.379L199.634 457.971L201.394 458.234C201.494 458.248 201.589 458.289 201.666 458.354C201.744 458.419 201.801 458.504 201.833 458.6C201.864 458.696 201.868 458.799 201.844 458.897C201.82 458.995 201.769 459.084 201.697 459.155L200.383 460.391L200.685 462.153C200.7 462.251 200.689 462.352 200.651 462.444C200.613 462.535 200.55 462.615 200.47 462.673C200.39 462.732 200.295 462.767 200.196 462.775C200.097 462.783 199.998 462.764 199.91 462.719L198.333 461.89L196.756 462.719C196.667 462.764 196.568 462.783 196.469 462.775C196.37 462.767 196.275 462.732 196.195 462.673C196.115 462.615 196.052 462.535 196.015 462.444C195.977 462.352 195.965 462.251 195.98 462.153L196.283 460.391L194.968 459.155C194.896 459.085 194.845 458.997 194.82 458.9C194.796 458.802 194.798 458.7 194.828 458.605C194.859 458.509 194.915 458.424 194.99 458.358C195.066 458.293 195.159 458.25 195.258 458.234L197.018 457.971L197.82 456.379C197.855 456.271 197.924 456.177 198.016 456.11C198.108 456.043 198.219 456.007 198.333 456.007C198.446 456.007 198.557 456.043 198.649 456.11C198.741 456.177 198.81 456.271 198.845 456.379Z" fill="#F5F5F5"/>
<path d="M234.287 55.6337L235.076 57.2383L236.85 57.4882C236.949 57.504 237.041 57.5471 237.117 57.6126C237.193 57.6781 237.249 57.7634 237.279 57.859C237.309 57.9546 237.312 58.0567 237.287 58.1538C237.262 58.251 237.211 58.3393 237.139 58.4088L235.825 59.7241L236.127 61.4733C236.148 61.5726 236.14 61.6758 236.103 61.7706C236.067 61.8654 236.004 61.9476 235.922 62.0074C235.84 62.0672 235.743 62.1019 235.642 62.1075C235.54 62.1131 235.44 62.0892 235.352 62.0388L233.775 61.2103L232.198 62.0388C232.11 62.0892 232.009 62.1131 231.908 62.1075C231.806 62.1019 231.709 62.0672 231.627 62.0074C231.545 61.9476 231.482 61.8654 231.446 61.7706C231.41 61.6758 231.401 61.5726 231.422 61.4733L231.712 59.7241L230.397 58.4088C230.325 58.3384 230.274 58.2491 230.25 58.151C230.226 58.0529 230.23 57.95 230.261 57.8541C230.293 57.7581 230.351 57.6729 230.428 57.6083C230.506 57.5436 230.6 57.502 230.7 57.4882L232.461 57.2383L233.302 55.6337C233.344 55.5382 233.413 55.4569 233.5 55.3999C233.588 55.3429 233.69 55.3125 233.794 55.3125C233.899 55.3125 234.001 55.3429 234.088 55.3999C234.176 55.4569 234.245 55.5382 234.287 55.6337Z" fill="#EBEBEB"/>
<path d="M232.159 372.627C232.161 372.973 232.061 373.313 231.87 373.602C231.68 373.891 231.408 374.118 231.089 374.252C230.77 374.386 230.418 374.423 230.078 374.357C229.738 374.291 229.425 374.125 229.18 373.881C228.934 373.637 228.766 373.326 228.698 372.986C228.629 372.646 228.663 372.294 228.795 371.973C228.927 371.653 229.151 371.379 229.438 371.186C229.726 370.993 230.065 370.891 230.411 370.891C230.872 370.89 231.315 371.073 231.642 371.398C231.969 371.723 232.155 372.165 232.159 372.627Z" fill="#EBEBEB"/>
<path d="M481.233 153.735C481.235 154.082 481.135 154.421 480.945 154.71C480.754 155 480.482 155.226 480.163 155.36C479.844 155.495 479.492 155.531 479.152 155.465C478.812 155.399 478.5 155.234 478.254 154.99C478.008 154.746 477.84 154.434 477.772 154.094C477.703 153.755 477.737 153.402 477.869 153.082C478.001 152.761 478.225 152.487 478.513 152.295C478.8 152.102 479.139 151.999 479.485 151.999C479.714 151.997 479.941 152.041 480.153 152.127C480.365 152.214 480.558 152.341 480.72 152.503C480.883 152.664 481.011 152.856 481.099 153.068C481.187 153.279 481.233 153.506 481.233 153.735Z" fill="#EBEBEB"/>
<path d="M390.613 57.0803C390.613 57.4263 390.51 57.7645 390.318 58.0521C390.126 58.3398 389.853 58.564 389.534 58.6964C389.214 58.8288 388.863 58.8634 388.524 58.7959C388.185 58.7284 387.874 58.5618 387.629 58.3172C387.385 58.0726 387.218 57.7609 387.151 57.4216C387.083 57.0822 387.118 56.7305 387.25 56.4109C387.383 56.0913 387.607 55.8181 387.894 55.6259C388.181 55.4336 388.519 55.3311 388.865 55.3311C389.327 55.3345 389.77 55.5199 390.097 55.8472C390.424 56.1745 390.609 56.6174 390.613 57.0803Z" fill="#F5F5F5"/>
<path d="M393.381 483.399C398.572 482.173 401.788 476.966 400.562 471.77C399.337 466.574 394.135 463.356 388.943 464.582C383.752 465.809 380.536 471.015 381.762 476.211C382.987 481.407 388.189 484.625 393.381 483.399Z" fill="#F0F0F0"/>
<path d="M387.839 468.335C385.86 468.331 383.932 468.958 382.333 470.124C381.516 471.999 381.316 474.085 381.76 476.082C382.205 478.078 383.272 479.882 384.807 481.232C386.342 482.583 388.265 483.41 390.301 483.596C392.336 483.781 394.378 483.315 396.131 482.264C396.907 480.827 397.297 479.213 397.263 477.58C397.228 475.947 396.771 474.351 395.935 472.948C395.099 471.546 393.913 470.384 392.494 469.578C391.075 468.772 389.471 468.348 387.839 468.349V468.335Z" fill="#E6E6E6"/>
<path d="M313.041 305.972H233.078V269.843L313.041 174.7H351.308V271.895H371.138V305.972H351.308V335.538H313.041V305.972ZM313.041 271.895V222.127L270.78 271.895H313.041Z" fill="#8715BC"/>
<path d="M384.817 255.823C384.817 225.757 390.223 204.713 401.033 192.692C411.844 180.671 428.318 174.665 450.457 174.674C461.083 174.674 469.813 175.989 476.647 178.62C482.854 180.858 488.538 184.345 493.349 188.865C497.404 192.74 500.839 197.216 503.533 202.136C506.2 207.273 508.209 212.726 509.512 218.365C512.483 230.414 513.966 242.782 513.928 255.191C513.928 283.881 509.079 304.876 499.381 318.177C489.683 331.478 472.98 338.133 449.274 338.142C435.975 338.142 425.23 336.02 417.039 331.776C408.782 327.464 401.827 321.02 396.894 313.114C393.083 307.292 390.118 299.326 387.997 289.216C385.796 278.223 384.731 267.034 384.817 255.823ZM428.367 255.928C428.367 276.095 430.141 289.847 433.689 297.186C437.237 304.525 442.393 308.212 449.156 308.247C451.302 308.271 453.432 307.869 455.421 307.063C457.411 306.257 459.221 305.063 460.746 303.552C464.023 300.422 466.432 295.476 467.974 288.716C469.516 281.956 470.286 271.434 470.286 257.151C470.286 236.16 468.508 222.048 464.951 214.814C461.394 207.581 456.059 203.968 448.946 203.977C441.692 203.977 436.435 207.664 433.176 215.038C429.917 222.412 428.314 236.042 428.367 255.928Z" fill="#8715BC"/>
<path d="M607.479 305.972H527.516V269.843L607.479 174.7H645.745V271.894H665.641V305.972H645.745V335.538H607.479V305.972ZM607.479 271.894V222.127L565.23 271.894H607.479Z" fill="#8715BC"/>
<g opacity="0.3">
<path d="M383.109 119.185C383.109 119.672 382.965 120.148 382.694 120.553C382.423 120.957 382.039 121.273 381.589 121.458C381.139 121.644 380.644 121.692 380.167 121.596C379.69 121.5 379.253 121.265 378.909 120.919C378.566 120.574 378.333 120.135 378.24 119.657C378.147 119.179 378.197 118.684 378.385 118.235C378.573 117.785 378.89 117.402 379.296 117.134C379.702 116.865 380.178 116.723 380.665 116.725C380.987 116.725 381.306 116.789 381.603 116.913C381.901 117.037 382.171 117.218 382.398 117.447C382.625 117.675 382.805 117.946 382.927 118.245C383.049 118.543 383.111 118.863 383.109 119.185Z" fill="#8715BC"/>
<path d="M214.864 213.657C215.822 213.657 216.599 212.879 216.599 211.921C216.599 210.962 215.822 210.185 214.864 210.185C213.906 210.185 213.13 210.962 213.13 211.921C213.13 212.879 213.906 213.657 214.864 213.657Z" fill="#8715BC"/>
<path d="M501.444 467.191C502.815 467.191 503.927 466.078 503.927 464.705C503.927 463.332 502.815 462.219 501.444 462.219C500.072 462.219 498.96 463.332 498.96 464.705C498.96 466.078 500.072 467.191 501.444 467.191Z" fill="#8715BC"/>
<path d="M561.169 366.05C562.127 366.05 562.904 365.273 562.904 364.314C562.904 363.356 562.127 362.578 561.169 362.578C560.211 362.578 559.435 363.356 559.435 364.314C559.435 365.273 560.211 366.05 561.169 366.05Z" fill="#8715BC"/>
<path d="M676.376 53.424C676.376 53.7673 676.275 54.103 676.084 54.3885C675.894 54.674 675.623 54.8965 675.306 55.0279C674.989 55.1593 674.64 55.1937 674.303 55.1267C673.967 55.0597 673.658 54.8943 673.415 54.6515C673.173 54.4088 673.007 54.0994 672.941 53.7626C672.874 53.4259 672.908 53.0768 673.039 52.7596C673.171 52.4424 673.393 52.1712 673.678 51.9804C673.963 51.7897 674.299 51.6879 674.642 51.6879C675.102 51.6879 675.543 51.8708 675.868 52.1964C676.194 52.5219 676.376 52.9635 676.376 53.424Z" fill="#8715BC"/>
<path d="M345.985 18.4128C345.985 18.7562 345.883 19.0919 345.693 19.3774C345.502 19.6629 345.231 19.8854 344.914 20.0168C344.597 20.1482 344.248 20.1826 343.912 20.1156C343.575 20.0486 343.266 19.8832 343.024 19.6404C342.781 19.3976 342.616 19.0883 342.549 18.7515C342.482 18.4148 342.516 18.0657 342.648 17.7485C342.779 17.4312 343.001 17.1601 343.287 16.9693C343.572 16.7786 343.907 16.6768 344.25 16.6768C344.709 16.6802 345.148 16.8642 345.473 17.189C345.798 17.5139 345.981 17.9535 345.985 18.4128Z" fill="#8715BC"/>
<path d="M483.9 109.504C484.858 109.504 485.634 108.727 485.634 107.768C485.634 106.81 484.858 106.032 483.9 106.032C482.942 106.032 482.165 106.81 482.165 107.768C482.165 108.727 482.942 109.504 483.9 109.504Z" fill="#8715BC"/>
</g>
<path d="M304.564 109.518C320.466 109.518 333.356 96.6165 333.356 80.7016C333.356 64.7868 320.466 51.8853 304.564 51.8853C288.663 51.8853 275.772 64.7868 275.772 80.7016C275.772 96.6165 288.663 109.518 304.564 109.518Z" fill="#8715BC"/>
<path opacity="0.7" d="M304.564 109.518C320.466 109.518 333.356 96.6165 333.356 80.7016C333.356 64.7868 320.466 51.8853 304.564 51.8853C288.663 51.8853 275.772 64.7868 275.772 80.7016C275.772 96.6165 288.663 109.518 304.564 109.518Z" fill="white"/>
<path opacity="0.2" d="M294.643 58.9613C290.722 58.9492 286.84 59.7415 283.236 61.2892C278.808 66.1606 276.179 72.4028 275.788 78.9772C275.397 85.5516 277.267 92.0618 281.086 97.4249C284.906 102.788 290.445 106.68 296.782 108.455C303.119 110.229 309.873 109.778 315.918 107.177C319.666 103.043 322.135 97.9084 323.023 92.3971C323.912 86.8859 323.183 81.235 320.924 76.1305C318.666 71.0261 314.975 66.6877 310.3 63.6423C305.626 60.5968 300.168 58.9752 294.59 58.9744L294.643 58.9613Z" fill="#8715BC"/>
<path opacity="0.2" d="M291.778 66.5762C291.778 67.0965 291.624 67.605 291.335 68.0376C291.046 68.4702 290.636 68.8073 290.155 69.0064C289.675 69.2055 289.147 69.2576 288.637 69.1561C288.127 69.0546 287.659 68.8041 287.291 68.4362C286.924 68.0683 286.673 67.5997 286.572 67.0894C286.471 66.5791 286.523 66.0502 286.722 65.5696C286.92 65.089 287.257 64.6781 287.69 64.3891C288.122 64.1001 288.63 63.9458 289.15 63.9458C289.847 63.9458 290.515 64.2229 291.008 64.7162C291.501 65.2095 291.778 65.8786 291.778 66.5762Z" fill="#8715BC"/>
<path opacity="0.2" d="M322.739 63.9456C322.739 64.4659 322.585 64.9744 322.296 65.407C322.007 65.8396 321.597 66.1767 321.116 66.3758C320.636 66.5749 320.108 66.627 319.598 66.5255C319.088 66.424 318.62 66.1735 318.252 65.8056C317.885 65.4377 317.634 64.969 317.533 64.4588C317.432 63.9485 317.484 63.4196 317.682 62.939C317.881 62.4583 318.218 62.0475 318.65 61.7585C319.083 61.4695 319.591 61.3152 320.111 61.3152C320.808 61.3152 321.476 61.5923 321.969 62.0856C322.462 62.5789 322.739 63.248 322.739 63.9456Z" fill="#8715BC"/>
<path opacity="0.2" d="M317.482 82.7271C317.482 83.5803 317.229 84.4143 316.755 85.1237C316.282 85.8331 315.609 86.3861 314.821 86.7126C314.033 87.0391 313.167 87.1245 312.331 86.9581C311.495 86.7916 310.727 86.3808 310.124 85.7774C309.521 85.1741 309.11 84.4055 308.944 83.5687C308.778 82.7318 308.863 81.8645 309.189 81.0762C309.516 80.2879 310.068 79.6142 310.777 79.1402C311.486 78.6662 312.319 78.4131 313.172 78.4131C314.315 78.4131 315.411 78.8676 316.219 79.6767C317.028 80.4857 317.482 81.5829 317.482 82.7271Z" fill="#8715BC"/>
<path opacity="0.2" d="M303.79 95.0243C303.79 96.1637 303.452 97.2774 302.82 98.2248C302.187 99.1721 301.288 99.9104 300.237 100.346C299.185 100.782 298.028 100.897 296.911 100.674C295.795 100.452 294.769 99.9033 293.964 99.0977C293.159 98.2921 292.611 97.2656 292.389 96.1482C292.167 95.0307 292.281 93.8724 292.716 92.8198C293.152 91.7672 293.89 90.8675 294.836 90.2345C295.783 89.6015 296.896 89.2637 298.034 89.2637C299.561 89.2637 301.025 89.8706 302.104 90.9509C303.183 92.0312 303.79 93.4965 303.79 95.0243Z" fill="#8715BC"/>
<path d="M645.797 428.295C649.003 414.7 640.591 401.078 627.008 397.87C613.425 394.661 599.814 403.081 596.609 416.675C593.403 430.27 601.815 443.892 615.398 447.1C628.981 450.309 642.591 441.889 645.797 428.295Z" fill="#8715BC"/>
<path opacity="0.3" d="M645.797 428.295C649.003 414.7 640.591 401.078 627.008 397.87C613.425 394.661 599.814 403.081 596.609 416.675C593.403 430.27 601.815 443.892 615.398 447.1C628.981 450.309 642.591 441.889 645.797 428.295Z" fill="white"/>
<path opacity="0.4" d="M637.164 402.903C631.563 401.211 625.547 401.518 620.147 403.771C614.746 406.025 610.294 410.086 607.553 415.26C604.811 420.434 603.95 426.4 605.116 432.139C606.281 437.878 609.402 443.034 613.944 446.726C616.3 447.442 618.749 447.805 621.211 447.804C626.428 447.803 631.517 446.186 635.779 443.175C640.041 440.164 643.267 435.906 645.015 430.986C646.763 426.067 646.947 420.726 645.541 415.698C644.136 410.67 641.209 406.2 637.164 402.903Z" fill="#8715BC"/>
<path d="M597.084 430.076C570.105 442.781 590.224 452.579 628.241 438.901C663.446 426.235 676.863 410.268 645.324 415.227C647.02 421.869 602.931 439.058 597.084 430.076Z" fill="#8715BC"/>
<path opacity="0.2" d="M636.862 174.7C601.526 198.597 555.782 230.162 543.154 305.972H540.46C552.747 231.004 596.822 198.689 632.171 174.7H636.862Z" fill="black"/>
<path d="M454.071 412.018C431.731 412.018 409.641 401.93 398.879 385.463C392.243 375.284 384.529 353.964 407.499 325.516L409.536 327.173C393.294 347.296 390.298 367.484 401.087 384.03C414.228 404.153 445.227 414.28 471.693 407.072C498.803 399.694 515.256 376.099 516.846 342.337C522.273 226.848 583.576 191.272 628.334 165.296C656.154 149.159 676.246 137.506 671.831 112.898C671.213 109.492 669.86 107.137 667.665 105.691C661.949 101.916 650.779 104.533 637.848 107.545C612.473 113.464 577.728 121.565 557.031 86.3307L559.304 85.0154C579.016 118.593 611.303 111.057 637.257 105.007C650.779 101.863 662.448 99.1409 669.111 103.521C671.936 105.375 673.671 108.308 674.367 112.464C679.111 138.874 657.284 151.552 629.622 167.598C585.376 193.271 524.796 228.427 519.434 342.522C517.779 377.506 500.617 401.982 472.337 409.676C466.379 411.264 460.237 412.052 454.071 412.018Z" fill="#8715BC"/>
<path opacity="0.2" d="M454.071 412.018C431.731 412.018 409.641 401.93 398.879 385.463C392.243 375.284 384.529 353.964 407.499 325.516L409.536 327.173C393.294 347.296 390.298 367.484 401.087 384.03C414.228 404.153 445.227 414.28 471.693 407.072C498.803 399.694 515.256 376.099 516.846 342.337C522.273 226.848 583.576 191.272 628.334 165.296C656.154 149.159 676.246 137.506 671.831 112.898C671.213 109.492 669.86 107.137 667.665 105.691C661.949 101.916 650.779 104.533 637.848 107.545C612.473 113.464 577.728 121.565 557.031 86.3307L559.304 85.0154C579.016 118.593 611.303 111.057 637.257 105.007C650.779 101.863 662.448 99.1409 669.111 103.521C671.936 105.375 673.671 108.308 674.367 112.464C679.111 138.874 657.284 151.552 629.622 167.598C585.376 193.271 524.796 228.427 519.434 342.522C517.779 377.506 500.617 401.982 472.337 409.676C466.379 411.264 460.237 412.052 454.071 412.018Z" fill="white"/>
<path d="M529.974 55.2387C536.029 55.2737 542.044 56.218 547.819 58.0401C547.819 58.0401 562.274 82.7267 563.983 88.3821C563.378 93.9587 553.982 103.099 553.982 103.099L529.974 55.2387Z" fill="#8715BC"/>
<path opacity="0.3" d="M529.974 55.2387C536.029 55.2737 542.044 56.218 547.819 58.0401C547.819 58.0401 562.274 82.7267 563.983 88.3821C563.378 93.9587 553.982 103.099 553.982 103.099L529.974 55.2387Z" fill="white"/>
<path d="M572.786 175.094C567.22 168.282 562.143 161.083 557.595 153.551C556.492 151.648 555.445 149.711 554.455 147.738C553.89 146.62 553.351 145.502 552.825 144.371C552.135 143.27 551.6 142.08 551.235 140.833C549.658 124.169 555.361 111.898 549.921 98.5225L528.265 106.992C528.265 106.992 530.104 130.824 534.31 145.134C536.938 153.985 542.825 161.64 548.515 168.729C550.289 170.938 551.997 173.214 553.771 175.436C555.545 177.659 557.333 179.461 559.028 181.552C561.59 184.722 562.431 187.76 560.5 191.495L560.171 192.087C559.619 193.06 562.195 194.165 563.824 192.087C566.452 188.694 566.085 188.904 568.371 186.011C569.764 184.261 571.354 182.354 572.734 180.75C573.399 179.961 573.769 178.964 573.779 177.932C573.788 176.899 573.437 175.896 572.786 175.094Z" fill="#8715BC"/>
<path opacity="0.7" d="M572.786 175.094C567.22 168.282 562.143 161.083 557.595 153.551C556.492 151.648 555.445 149.711 554.455 147.738C553.89 146.62 553.351 145.502 552.825 144.371C552.135 143.27 551.6 142.08 551.235 140.833C549.658 124.169 555.361 111.898 549.921 98.5225L528.265 106.992C528.265 106.992 530.104 130.824 534.31 145.134C536.938 153.985 542.825 161.64 548.515 168.729C550.289 170.938 551.997 173.214 553.771 175.436C555.545 177.659 557.333 179.461 559.028 181.552C561.59 184.722 562.431 187.76 560.5 191.495L560.171 192.087C559.619 193.06 562.195 194.165 563.824 192.087C566.452 188.694 566.085 188.904 568.371 186.011C569.764 184.261 571.354 182.354 572.734 180.75C573.399 179.961 573.769 178.964 573.779 177.932C573.788 176.899 573.437 175.896 572.786 175.094Z" fill="white"/>
<path opacity="0.3" d="M567.49 168.242C564.054 171.929 560.24 175.244 556.11 178.133C556.675 178.764 557.227 179.448 557.792 180.053C561.927 177.257 565.681 173.937 568.962 170.176L567.49 168.242Z" fill="#8715BC"/>
<path opacity="0.3" d="M572.786 175.095L572.628 174.91C571.617 176.071 571.029 177.541 570.96 179.08C570.875 180.135 571.046 181.195 571.459 182.17L572.707 180.684C573.36 179.903 573.724 178.921 573.738 177.903C573.753 176.886 573.416 175.894 572.786 175.095Z" fill="#8715BC"/>
<path d="M524.822 71.0213C522.475 74.5396 519.658 77.7211 516.452 80.4777C514.673 82.0117 512.724 83.3356 510.643 84.4233C509.55 84.984 508.417 85.4632 507.253 85.8569L506.359 86.1463L506.07 86.2252L505.452 86.3962C505.072 86.4865 504.686 86.548 504.296 86.5803C503.187 86.6651 502.072 86.5629 500.998 86.2778C499.642 85.8928 498.343 85.3312 497.134 84.6075C496.161 84.0382 495.218 83.4192 494.309 82.753C492.666 81.5299 491.095 80.2125 489.604 78.8074C486.73 76.0815 484.092 73.116 481.72 69.9428C481.263 69.3246 481.036 68.5662 481.078 67.7985C481.12 67.0308 481.429 66.3018 481.951 65.7375C482.473 65.1732 483.175 64.8089 483.936 64.7074C484.698 64.6059 485.471 64.7737 486.122 65.1817H486.227C489.328 67.1545 492.456 69.2326 495.505 71.087C497.055 71.9945 498.553 72.9152 500.038 73.6254C500.716 73.9806 501.414 74.2968 502.128 74.5724C502.573 74.7689 503.049 74.8847 503.534 74.9143C503.613 74.9143 503.534 74.8223 503.048 74.8354C502.894 74.8262 502.741 74.8262 502.588 74.8354L502.299 74.9012L502.732 74.6776C503.316 74.3631 503.882 74.0163 504.427 73.6386C505.603 72.8088 506.703 71.8757 507.713 70.8503C510.009 68.4424 512.159 65.8995 514.152 63.2352C515.244 62.0124 516.753 61.2422 518.383 61.0755C520.013 60.9089 521.647 61.358 522.963 62.3346C524.28 63.3113 525.184 64.745 525.499 66.3545C525.814 67.964 525.516 69.6331 524.665 71.0344L524.822 71.0213Z" fill="#8715BC"/>
<path opacity="0.7" d="M524.822 71.0213C522.475 74.5396 519.658 77.7211 516.452 80.4777C514.673 82.0117 512.724 83.3356 510.643 84.4233C509.55 84.984 508.417 85.4632 507.253 85.8569L506.359 86.1463L506.07 86.2252L505.452 86.3962C505.072 86.4865 504.686 86.548 504.296 86.5803C503.187 86.6651 502.072 86.5629 500.998 86.2778C499.642 85.8928 498.343 85.3312 497.134 84.6075C496.161 84.0382 495.218 83.4192 494.309 82.753C492.666 81.5299 491.095 80.2125 489.604 78.8074C486.73 76.0815 484.092 73.116 481.72 69.9428C481.263 69.3246 481.036 68.5662 481.078 67.7985C481.12 67.0308 481.429 66.3018 481.951 65.7375C482.473 65.1732 483.175 64.8089 483.936 64.7074C484.698 64.6059 485.471 64.7737 486.122 65.1817H486.227C489.328 67.1545 492.456 69.2326 495.505 71.087C497.055 71.9945 498.553 72.9152 500.038 73.6254C500.716 73.9806 501.414 74.2968 502.128 74.5724C502.573 74.7689 503.049 74.8847 503.534 74.9143C503.613 74.9143 503.534 74.8223 503.048 74.8354C502.894 74.8262 502.741 74.8262 502.588 74.8354L502.299 74.9012L502.732 74.6776C503.316 74.3631 503.882 74.0163 504.427 73.6386C505.603 72.8088 506.703 71.8757 507.713 70.8503C510.009 68.4424 512.159 65.8995 514.152 63.2352C515.244 62.0124 516.753 61.2422 518.383 61.0755C520.013 60.9089 521.647 61.358 522.963 62.3346C524.28 63.3113 525.184 64.745 525.499 66.3545C525.814 67.964 525.516 69.6331 524.665 71.0344L524.822 71.0213Z" fill="white"/>
<path d="M476.792 62.3671L478.329 64.9975C478.329 64.9975 479.499 68.4434 481.851 69.0747L488.238 67.0098L487.909 66.4706C487.095 65.2343 487.187 62.8274 487.463 60.8283C487.738 58.8292 486.713 58.7634 485.951 59.2632C485.411 59.885 485.032 60.6303 484.847 61.4333C484.534 60.999 484.187 60.59 483.809 60.2101L481.864 58.2636C481.456 57.8645 480.913 57.6345 480.342 57.6199C479.772 57.6052 479.217 57.807 478.789 58.1847L477.212 59.592C476.838 59.9383 476.593 60.4016 476.517 60.9058C476.44 61.4101 476.537 61.9253 476.792 62.3671Z" fill="#8715BC"/>
<path opacity="0.7" d="M476.792 62.3671L478.329 64.9975C478.329 64.9975 479.499 68.4434 481.851 69.0747L488.238 67.0098L487.909 66.4706C487.095 65.2343 487.187 62.8274 487.463 60.8283C487.738 58.8292 486.713 58.7634 485.951 59.2632C485.411 59.885 485.032 60.6303 484.847 61.4333C484.534 60.999 484.187 60.59 483.809 60.2101L481.864 58.2636C481.456 57.8645 480.913 57.6345 480.342 57.6199C479.772 57.6052 479.217 57.807 478.789 58.1847L477.212 59.592C476.838 59.9383 476.593 60.4016 476.517 60.9058C476.44 61.4101 476.537 61.9253 476.792 62.3671Z" fill="white"/>
<path d="M536.426 52.8974C529.342 54.7766 522.557 57.641 516.268 61.4068C515.287 62.0214 514.517 62.9214 514.061 63.9863C513.605 65.0511 513.486 66.23 513.718 67.3647C516.255 79.7804 522.023 96.4047 528.252 106.992L557.307 94.958C557.504 89.8286 550.447 73.2306 543.259 57.185C541.971 54.3047 539.488 52.1608 536.426 52.8974Z" fill="#8715BC"/>
<path opacity="0.8" d="M536.426 52.8974C529.342 54.7766 522.557 57.641 516.268 61.4068C515.287 62.0214 514.517 62.9214 514.061 63.9863C513.605 65.0511 513.486 66.23 513.718 67.3647C516.255 79.7804 522.023 96.4047 528.252 106.992L557.307 94.958C557.504 89.8286 550.447 73.2306 543.259 57.185C541.971 54.3047 539.488 52.1608 536.426 52.8974Z" fill="white"/>
<path opacity="0.3" d="M547.766 67.3521L541.997 65.4187C543.311 68.7988 547.95 73.0733 551.196 75.5853C550.144 72.9549 548.975 70.1929 547.766 67.3521Z" fill="#8715BC"/>
<path d="M534.52 39.8771C532.115 35.3001 526.925 32.9985 520.696 33.5114C515.44 33.9586 510.788 39.3247 511.34 42.2182C511.891 45.1116 516.307 46.3479 517.148 47.3475L513.508 49.9779C513.077 50.2894 512.713 50.6851 512.438 51.1409C512.164 51.5968 511.984 52.1036 511.911 52.6307C511.837 53.1578 511.871 53.6944 512.01 54.2082C512.149 54.7219 512.39 55.2023 512.719 55.6202C514.257 57.5667 516.281 59.5659 517.45 61.0389C527.516 60.7759 534.967 56.9354 537.661 53.2397C536.649 48.5575 536.859 44.4277 534.52 39.8771Z" fill="#8715BC"/>
<path opacity="0.8" d="M534.52 39.8771C532.115 35.3001 526.925 32.9985 520.696 33.5114C515.44 33.9586 510.788 39.3247 511.34 42.2182C511.891 45.1116 516.307 46.3479 517.148 47.3475L513.508 49.9779C513.077 50.2894 512.713 50.6851 512.438 51.1409C512.164 51.5968 511.984 52.1036 511.911 52.6307C511.837 53.1578 511.871 53.6944 512.01 54.2082C512.149 54.7219 512.39 55.2023 512.719 55.6202C514.257 57.5667 516.281 59.5659 517.45 61.0389C527.516 60.7759 534.967 56.9354 537.661 53.2397C536.649 48.5575 536.859 44.4277 534.52 39.8771Z" fill="white"/>
<path d="M529.579 42.7178C530.294 44.552 530.449 46.5571 530.025 48.4796C529.601 50.4021 528.618 52.1557 527.198 53.5187C525.779 54.8817 523.988 55.793 522.051 56.1374C520.114 56.4817 518.119 56.2437 516.317 55.4533C514.516 54.663 512.989 53.3558 511.929 51.697C510.87 50.0383 510.326 48.1024 510.365 46.1341C510.405 44.1657 511.027 42.2534 512.152 40.6387C513.277 39.024 514.856 37.7794 516.688 37.0624C519.147 36.1036 521.885 36.1607 524.302 37.221C526.719 38.2814 528.617 40.2583 529.579 42.7178Z" fill="#263238"/>
<path d="M614.904 161.245C614.759 156.918 614.562 157.3 614.444 153.657C614.365 151.421 614.352 148.935 614.339 146.791C614.334 145.773 613.979 144.788 613.333 144.002C612.686 143.216 611.788 142.677 610.791 142.477C609.056 142.122 607.308 141.793 605.534 141.425C603.261 140.938 601.014 140.412 598.793 139.768C597.058 139.268 595.35 138.716 593.655 138.098C591.96 137.479 590.054 136.782 588.293 135.967C586.217 135.086 584.167 134.139 582.143 133.152C579.87 132.074 577.623 130.943 575.376 129.799C566.729 115.476 566.545 106.033 557.267 94.9584L537.346 103.981C537.346 103.981 551.985 129.969 561.946 140.991C567.688 147.33 576.69 150.197 584.719 152.276C590.514 153.762 596.388 154.906 602.262 155.998C604.549 156.418 607.032 156.576 609.004 157.944C610.462 159.063 611.462 160.677 611.816 162.482C611.903 162.85 611.982 163.218 612.052 163.586C612.302 164.691 614.996 163.849 614.904 161.245Z" fill="#8715BC"/>
<path opacity="0.8" d="M614.904 161.245C614.759 156.918 614.562 157.3 614.444 153.657C614.365 151.421 614.352 148.935 614.339 146.791C614.334 145.773 613.979 144.788 613.333 144.002C612.686 143.216 611.788 142.677 610.791 142.477C609.056 142.122 607.308 141.793 605.534 141.425C603.261 140.938 601.014 140.412 598.793 139.768C597.058 139.268 595.35 138.716 593.655 138.098C591.96 137.479 590.054 136.782 588.293 135.967C586.217 135.086 584.167 134.139 582.143 133.152C579.87 132.074 577.623 130.943 575.376 129.799C566.729 115.476 566.545 106.033 557.267 94.9584L537.346 103.981C537.346 103.981 551.985 129.969 561.946 140.991C567.688 147.33 576.69 150.197 584.719 152.276C590.514 153.762 596.388 154.906 602.262 155.998C604.549 156.418 607.032 156.576 609.004 157.944C610.462 159.063 611.462 160.677 611.816 162.482C611.903 162.85 611.982 163.218 612.052 163.586C612.302 164.691 614.996 163.849 614.904 161.245Z" fill="white"/>
<path opacity="0.3" d="M604.799 141.254C604.011 141.083 603.222 140.912 602.42 140.714C602.486 145.265 600.357 153.104 599.582 155.484L602.079 155.958C603.715 151.22 604.632 146.264 604.799 141.254Z" fill="#8715BC"/>
<path opacity="0.3" d="M614.391 146.791C614.387 145.775 614.034 144.791 613.39 144.005C612.746 143.219 611.851 142.68 610.856 142.477L609.542 142.227C609.753 143.722 610.518 145.083 611.684 146.041C612.434 146.735 613.333 147.248 614.312 147.54C614.391 147.304 614.391 147.041 614.391 146.791Z" fill="#8715BC"/>
<path d="M527.726 42.7968C528.251 44.7959 526.017 46.8871 524.243 45.1642C522.588 43.3874 520.776 41.7631 518.829 40.311C517.003 39.1668 519.434 37.1676 522.312 37.9436C523.54 38.2524 524.674 38.8555 525.618 39.701C526.561 40.5465 527.284 41.609 527.726 42.7968Z" fill="white"/>
<path d="M527.871 106.348C526.951 106.69 528.633 108.268 528.633 108.268C528.633 108.268 547.03 101.968 558.2 95.4844C558.227 95.0918 558.16 94.6985 558.005 94.3371C557.849 93.9756 557.61 93.6565 557.307 93.4063C547.747 98.2734 537.919 102.594 527.871 106.348Z" fill="#8715BC"/>
<path opacity="0.5" d="M527.871 106.348C526.951 106.69 528.633 108.268 528.633 108.268C528.633 108.268 547.03 101.968 558.2 95.4844C558.227 95.0918 558.16 94.6985 558.005 94.3371C557.849 93.9756 557.61 93.6565 557.307 93.4063C547.747 98.2734 537.919 102.594 527.871 106.348Z" fill="white"/>
<path d="M541.406 52.0296C545.033 53.8709 548.437 55.8043 551.919 57.9481C553.614 59.0266 555.296 60.1182 556.965 61.3019C558.634 62.4856 560.29 63.6956 561.959 65.0634L562.576 65.5764L563.352 66.2866C563.814 66.7003 564.252 67.1394 564.666 67.6018C565.086 68.0621 565.441 68.5093 565.783 68.917C566.124 69.3247 566.492 69.8114 566.795 70.2322C568.019 71.923 569.151 73.6793 570.185 75.4931C572.222 79.0104 573.979 82.6824 575.441 86.4751C575.712 87.1917 575.726 87.9799 575.481 88.7056C575.236 89.4314 574.748 90.0499 574.099 90.456C573.45 90.8621 572.681 91.0307 571.922 90.9332C571.163 90.8356 570.461 90.478 569.935 89.921L569.87 89.8421C567.241 87.0407 564.705 84.0946 562.156 81.3458C559.606 78.597 557.018 75.8087 554.876 74.5856C551.893 72.7311 548.568 70.8767 545.27 69.0617L535.335 63.5378C533.795 62.7215 532.641 61.3263 532.129 59.6589C531.616 57.9916 531.786 56.1887 532.602 54.6469C533.417 53.1051 534.811 51.9508 536.477 51.4377C538.143 50.9247 539.944 51.095 541.485 51.9113L541.406 52.0296Z" fill="#8715BC"/>
<path opacity="0.8" d="M541.406 52.0296C545.033 53.8709 548.437 55.8043 551.919 57.9481C553.614 59.0266 555.296 60.1182 556.965 61.3019C558.634 62.4856 560.29 63.6956 561.959 65.0634L562.576 65.5764L563.352 66.2866C563.814 66.7003 564.252 67.1394 564.666 67.6018C565.086 68.0621 565.441 68.5093 565.783 68.917C566.124 69.3247 566.492 69.8114 566.795 70.2322C568.019 71.923 569.151 73.6793 570.185 75.4931C572.222 79.0104 573.979 82.6824 575.441 86.4751C575.712 87.1917 575.726 87.9799 575.481 88.7056C575.236 89.4314 574.748 90.0499 574.099 90.456C573.45 90.8621 572.681 91.0307 571.922 90.9332C571.163 90.8356 570.461 90.478 569.935 89.921L569.87 89.8421C567.241 87.0407 564.705 84.0946 562.156 81.3458C559.606 78.597 557.018 75.8087 554.876 74.5856C551.893 72.7311 548.568 70.8767 545.27 69.0617L535.335 63.5378C533.795 62.7215 532.641 61.3263 532.129 59.6589C531.616 57.9916 531.786 56.1887 532.602 54.6469C533.417 53.1051 534.811 51.9508 536.477 51.4377C538.143 50.9247 539.944 51.095 541.485 51.9113L541.406 52.0296Z" fill="white"/>
<path d="M578.556 93.0384L577.439 90.237C577.439 90.237 576.821 86.6596 574.6 85.66L568.03 86.6991L568.253 87.2778C568.858 88.593 568.398 90.9998 567.806 92.92C567.215 94.8402 568.214 95.0901 569.055 94.7087C569.528 94.4983 569.988 93.6434 570.487 92.7359C570.732 93.1931 571.009 93.6326 571.315 94.0511L572.931 96.2738C573.269 96.7344 573.768 97.0501 574.329 97.1574C574.89 97.2648 575.47 97.1559 575.954 96.8525L577.741 95.7083C578.159 95.4218 578.468 95.0014 578.616 94.5162C578.764 94.0311 578.743 93.5099 578.556 93.0384Z" fill="#8715BC"/>
<path opacity="0.8" d="M578.556 93.0384L577.439 90.237C577.439 90.237 576.821 86.6596 574.6 85.66L568.03 86.6991L568.253 87.2778C568.858 88.593 568.398 90.9998 567.806 92.92C567.215 94.8402 568.214 95.0901 569.055 94.7087C569.528 94.4983 569.988 93.6434 570.487 92.7359C570.732 93.1931 571.009 93.6326 571.315 94.0511L572.931 96.2738C573.269 96.7344 573.768 97.0501 574.329 97.1574C574.89 97.2648 575.47 97.1559 575.954 96.8525L577.741 95.7083C578.159 95.4218 578.468 95.0014 578.616 94.5162C578.764 94.0311 578.743 93.5099 578.556 93.0384Z" fill="white"/>
<path opacity="0.3" d="M535.861 67.1546L534.258 67.2861L524.415 91.0652C524.953 91.104 525.494 91.0596 526.018 90.9337C526.018 90.9337 538.844 86.1463 542.72 84.3576C540.119 78.9784 535.861 67.1546 535.861 67.1546Z" fill="#8715BC"/>
<path d="M517.897 73.3891C519.093 79.6051 521.314 85.5787 524.468 91.0656C529.278 89.4084 537.294 86.2782 541.183 84.4895C538.569 78.88 536.249 73.1379 534.232 67.2865C530.119 67.5627 521.091 71.0217 517.897 73.3891Z" fill="white"/>
<path opacity="0.3" d="M527.661 78.5315C527.469 79.1747 527.091 79.7464 526.574 80.1743C526.057 80.6022 525.425 80.867 524.758 80.9353C524.091 81.0036 523.418 80.8723 522.825 80.5579C522.233 80.2436 521.747 79.7604 521.428 79.1695C521.11 78.5786 520.974 77.9064 521.038 77.2382C521.101 76.5699 521.361 75.9355 521.785 75.4152C522.209 74.895 522.778 74.5122 523.419 74.3155C524.06 74.1187 524.745 74.1167 525.388 74.3097C526.248 74.5683 526.971 75.1582 527.397 75.9498C527.824 76.7414 527.919 77.67 527.661 78.5315Z" fill="#8715BC"/>
<path opacity="0.6" d="M530.171 74.0069C530.119 74.2265 530.003 74.4254 529.837 74.5776C529.671 74.7298 529.462 74.8281 529.239 74.8597C529.016 74.8913 528.789 74.8546 528.587 74.7546C528.385 74.6545 528.218 74.4957 528.108 74.299C527.998 74.1023 527.95 73.8769 527.97 73.6523C527.991 73.4278 528.078 73.2147 528.222 73.0408C528.365 72.867 528.558 72.7407 528.774 72.6784C528.991 72.6161 529.221 72.6207 529.435 72.6917C529.701 72.777 529.925 72.9601 530.062 73.2042C530.198 73.4483 530.237 73.7352 530.171 74.0069Z" fill="#8715BC"/>
<path opacity="0.6" d="M533.114 72.863C533.083 73.0156 533.021 73.16 532.931 73.2871C532.841 73.4141 532.726 73.521 532.592 73.6009C532.459 73.6807 532.31 73.7318 532.156 73.7508C532.001 73.7699 531.845 73.7564 531.696 73.7113C531.547 73.6663 531.409 73.5906 531.291 73.4891C531.173 73.3877 531.078 73.2627 531.011 73.1221C530.944 72.9816 530.907 72.8287 530.903 72.6731C530.898 72.5175 530.926 72.3627 530.985 72.2185C531.027 72.0794 531.096 71.9499 531.189 71.8375C531.281 71.7251 531.394 71.632 531.522 71.5636C531.651 71.4951 531.791 71.4527 531.936 71.4387C532.08 71.4247 532.226 71.4394 532.365 71.482C532.646 71.5673 532.883 71.7601 533.023 72.0186C533.163 72.2771 533.196 72.5805 533.114 72.863Z" fill="#8715BC"/>
<path opacity="0.5" d="M537.241 83.1081L525.085 87.9086L524.362 85.5149L536.505 80.7144L537.241 83.1081Z" fill="#8715BC"/>
<path opacity="0.2" d="M470.182 265.897C470.154 273.555 469.415 281.194 467.974 288.716C466.423 295.476 464.014 300.421 460.746 303.551C459.224 305.064 457.417 306.258 455.429 307.064C453.442 307.87 451.314 308.272 449.169 308.247C442.415 308.247 437.259 304.56 433.702 297.186C433.077 295.861 432.546 294.494 432.112 293.095C424.6 299.553 417.606 306.589 411.192 314.139L404.214 322.372C407.969 326.181 412.302 329.373 417.053 331.829C425.235 336.064 435.976 338.185 449.274 338.194C451.614 338.194 453.874 338.128 456.068 337.997C464.114 326.082 470.772 313.285 475.911 299.856L495.426 248.93L470.182 265.897Z" fill="black"/>
<path d="M294.263 335.38L317.259 358.396L381.65 297.673C359.455 289.19 316.3 313.271 294.263 335.38Z" fill="#263238"/>
<path d="M374.463 415.608C367.117 408.243 351.466 392.592 351.466 392.592L412.138 328.146C420.561 350.307 396.5 393.539 374.463 415.608Z" fill="#263238"/>
<path d="M462.481 270.54L487.567 222.127L439.195 247.26C423.657 255.325 409.311 265.505 396.565 277.51L314.105 355.2L354.619 395.748L432.243 313.219C444.244 300.459 454.42 286.096 462.481 270.54Z" fill="#8715BC"/>
<path opacity="0.6" d="M462.481 270.54L487.567 222.127L439.195 247.26C423.657 255.325 409.311 265.505 396.565 277.51L314.105 355.2L354.619 395.748L432.243 313.219C444.244 300.459 454.42 286.096 462.481 270.54Z" fill="white"/>
<path d="M410.968 315.757C420.331 315.757 427.92 308.161 427.92 298.79C427.92 289.42 420.331 281.824 410.968 281.824C401.606 281.824 394.017 289.42 394.017 298.79C394.017 308.161 401.606 315.757 410.968 315.757Z" fill="white"/>
<path d="M410.968 309.694C416.985 309.694 421.862 304.812 421.862 298.79C421.862 292.769 416.985 287.887 410.968 287.887C404.952 287.887 400.074 292.769 400.074 298.79C400.074 304.812 404.952 309.694 410.968 309.694Z" fill="#8715BC"/>
<path opacity="0.3" d="M368.326 381.175L328.653 341.469L361.138 310.877L398.892 348.676L368.326 381.175Z" fill="#8715BC"/>
<path d="M303.238 371.706C273.539 374.113 263.697 393.144 260.333 418.436C258.624 431.338 257.862 444.398 247.047 451.947C246.396 452.39 245.907 453.031 245.651 453.776C245.395 454.521 245.387 455.328 245.628 456.077C245.87 456.827 246.347 457.478 246.989 457.933C247.631 458.388 248.403 458.623 249.189 458.602C289.059 457.353 307.653 437.822 309.993 429.668C309.379 433.93 308.281 438.109 306.72 442.123C306.434 442.831 306.377 443.612 306.56 444.354C306.742 445.096 307.154 445.761 307.737 446.255C308.319 446.749 309.043 447.047 309.804 447.105C310.565 447.164 311.326 446.98 311.977 446.581C323.16 439.571 337.194 426.656 338.127 405.704C329.901 394.038 303.238 371.706 303.238 371.706Z" fill="#8715BC"/>
<path opacity="0.2" d="M303.238 371.706C273.539 374.113 263.697 393.144 260.333 418.436C258.624 431.338 257.862 444.398 247.047 451.947C246.396 452.39 245.907 453.031 245.651 453.776C245.395 454.521 245.387 455.328 245.628 456.077C245.87 456.827 246.347 457.478 246.989 457.933C247.631 458.388 248.403 458.623 249.189 458.602C289.059 457.353 307.653 437.822 309.993 429.668C309.379 433.93 308.281 438.109 306.72 442.123C306.434 442.831 306.377 443.612 306.56 444.354C306.742 445.096 307.154 445.761 307.737 446.255C308.319 446.749 309.043 447.047 309.804 447.105C310.565 447.164 311.326 446.98 311.977 446.581C323.16 439.571 337.194 426.656 338.127 405.704C329.901 394.038 303.238 371.706 303.238 371.706Z" fill="white"/>
<path d="M342.739 414.687L295.169 367.076L320.505 361.592L348.219 389.33L342.739 414.687Z" fill="#8715BC"/>
<path d="M64.8728 58L67.0016 62.3139L71.7586 63.011L68.3157 66.3516L69.1304 71.0995L64.8728 68.8637L60.6282 71.0995L61.4429 66.3516L58 63.011L62.757 62.3139L64.8728 58Z" fill="#F5F5F5"/>
<path d="M6.87276 500L9.0016 504.314L13.7586 505.011L10.3157 508.352L11.1304 513.1L6.87276 510.864L2.6282 513.1L3.44294 508.352L0 505.011L4.75704 504.314L6.87276 500Z" fill="#F5F5F5"/>
<path d="M834.873 696L837.002 700.314L841.759 701.011L838.316 704.352L839.13 709.1L834.873 706.864L830.628 709.1L831.443 704.352L828 701.011L832.757 700.314L834.873 696Z" fill="#F5F5F5"/>
<path d="M50.8728 249L53.0016 253.314L57.7586 254.011L54.3157 257.352L55.1304 262.1L50.8728 259.864L46.6282 262.1L47.4429 257.352L44 254.011L48.757 253.314L50.8728 249Z" fill="#F5F5F5"/>
<path d="M890.873 396L893.002 400.314L897.759 401.011L894.316 404.352L895.13 409.1L890.873 406.864L886.628 409.1L887.443 404.352L884 401.011L888.757 400.314L890.873 396Z" fill="#F5F5F5"/>
</svg>
