<svg width="21" height="20" viewBox="0 0 21 20" fill="none" xmlns="http://www.w3.org/2000/svg">
<path d="M5.25 1V3.25M15.75 1V3.25M1.5 16.75V5.5C1.5 4.25736 2.50736 3.25 3.75 3.25H17.25C18.4926 3.25 19.5 4.25736 19.5 5.5V16.75M1.5 16.75C1.5 17.9926 2.50736 19 3.75 19H17.25C18.4926 19 19.5 17.9926 19.5 16.75M1.5 16.75V9.25C1.5 8.00736 2.50736 7 3.75 7H17.25C18.4926 7 19.5 8.00736 19.5 9.25V16.75M10.5 10.75H10.5075V10.7575H10.5V10.75ZM10.5 13H10.5075V13.0075H10.5V13ZM10.5 15.25H10.5075V15.2575H10.5V15.25ZM8.25 13H8.2575V13.0075H8.25V13ZM8.25 15.25H8.2575V15.2575H8.25V15.25ZM6 13H6.0075V13.0075H6V13ZM6 15.25H6.0075V15.2575H6V15.25ZM12.75 10.75H12.7575V10.7575H12.75V10.75ZM12.75 13H12.7575V13.0075H12.75V13ZM12.75 15.25H12.7575V15.2575H12.75V15.25ZM15 10.75H15.0075V10.7575H15V10.75ZM15 13H15.0075V13.0075H15V13Z" stroke="#FAFAFA" stroke-width="1.5" stroke-linecap="round" stroke-linejoin="round"/>
</svg>
