<svg width="40" height="40" viewBox="0 0 39 39" fill="none" xmlns="http://www.w3.org/2000/svg">
<circle cx="19.5" cy="19.5" r="19.5" fill="#DEBCF9"/>
<rect width="24" height="24" transform="translate(8 8)" fill="#DEBCF9"/>
<path d="M24.8617 12.4867L26.5492 10.7992C27.2814 10.0669 28.4686 10.0669 29.2008 10.7992C29.9331 11.5314 29.9331 12.7186 29.2008 13.4508L18.5822 24.0695C18.0535 24.5981 17.4014 24.9868 16.6849 25.2002L14 26L14.7998 23.3151C15.0132 22.5986 15.4018 21.9465 15.9305 21.4178L24.8617 12.4867ZM24.8617 12.4867L27.5 15.125M26 22V26.75C26 27.9926 24.9926 29 23.75 29H13.25C12.0074 29 11 27.9926 11 26.75V16.25C11 15.0074 12.0074 14 13.25 14H18" stroke="#0B0A1E" stroke-width="1.5" stroke-linecap="round" stroke-linejoin="round"/>
</svg>
