<svg width="24" height="25" viewBox="0 0 24 25" fill="none" xmlns="http://www.w3.org/2000/svg">
<path d="M21.9707 1.62903C22.2832 1.62903 22.5664 1.74622 22.8203 1.98059C23.0742 2.21497 23.2012 2.4884 23.2012 2.8009V22.0197C23.2012 22.3322 23.0742 22.6056 22.8203 22.84C22.5664 23.0743 22.2832 23.1915 21.9707 23.1915H16.4629V14.8712H19.2754L19.6855 11.59H16.4629V9.48059C16.4629 8.4259 17.0098 7.89856 18.1035 7.89856H19.8027V5.02747C19.2168 4.91028 18.377 4.85168 17.2832 4.85168C16.0332 4.85168 15.0273 5.23254 14.2656 5.99426C13.5039 6.75598 13.123 7.82043 13.123 9.18762V11.59H10.3105V14.8712H13.123V23.1915H2.75195C2.43945 23.1915 2.16602 23.0743 1.93164 22.84C1.69727 22.6056 1.58008 22.3322 1.58008 22.0197V2.8009C1.58008 2.4884 1.69727 2.21497 1.93164 1.98059C2.16602 1.74622 2.43945 1.62903 2.75195 1.62903H21.9707Z" fill="#FAFAFA"/>
</svg>
