<svg width="584" height="355" viewBox="0 0 584 355" fill="none" xmlns="http://www.w3.org/2000/svg">
<path d="M285.268 106.399C284.577 106.4 283.89 106.285 283.238 106.057L272.765 102.426C271.736 102.066 270.818 101.442 270.105 100.618C269.391 99.7928 268.906 98.7954 268.698 97.7247L266.6 86.8238C266.394 85.752 266.474 84.6448 266.832 83.6136C267.189 82.5824 267.812 81.6636 268.638 80.9495L277.021 73.6879C277.848 72.9738 278.848 72.4889 279.921 72.2816C280.993 72.0742 282.102 72.1517 283.135 72.5062L293.617 76.1456C294.649 76.5028 295.569 77.1252 296.284 77.9504C297 78.7756 297.485 79.7744 297.693 80.8467L299.782 91.7391C299.986 92.8115 299.906 93.9186 299.55 94.9506C299.194 95.9826 298.575 96.9035 297.753 97.622L289.361 104.884C288.224 105.866 286.77 106.404 285.268 106.399ZM275.334 96.072L285.131 99.4973L292.974 92.7153L291.013 82.5337L281.217 79.1084L273.382 85.899L275.334 96.072Z" fill="#F5F5F5"/>
<path d="M407.583 74.7583C406.892 74.7595 406.206 74.6437 405.554 74.4158L400.244 72.5747C399.214 72.2163 398.296 71.5933 397.582 70.7682C396.868 69.9431 396.384 68.9449 396.177 67.8736L395.115 62.3589C394.91 61.2878 394.99 60.1816 395.346 59.1508C395.702 58.12 396.322 57.2006 397.145 56.4845L401.426 52.8024C402.252 52.0889 403.25 51.605 404.322 51.3991C405.394 51.1932 406.5 51.2725 407.532 51.6292L412.832 53.4703C413.864 53.8275 414.784 54.45 415.5 55.2751C416.215 56.1003 416.701 57.0992 416.908 58.1715L417.97 63.6862C418.176 64.7581 418.096 65.8652 417.738 66.8964C417.381 67.9276 416.758 68.8464 415.932 69.5605L411.651 73.2427C410.518 74.2155 409.076 74.7529 407.583 74.7583ZM402.831 66.1952L407.455 67.7965L411.145 64.5939L410.221 59.7985L405.605 58.1972L401.906 61.4512L402.831 66.1952Z" fill="#F5F5F5"/>
<path d="M554.219 155.449C553.542 155.444 552.874 155.288 552.265 154.992C551.656 154.695 551.121 154.266 550.699 153.736L547.711 150.003C547.217 149.385 546.894 148.649 546.774 147.868C546.654 147.087 546.741 146.287 547.026 145.55L548.738 141.097C549.025 140.361 549.5 139.713 550.117 139.218C550.733 138.724 551.468 138.4 552.249 138.28L556.976 137.552C557.759 137.434 558.559 137.522 559.297 137.809C560.034 138.096 560.684 138.571 561.181 139.188L564.169 142.921C564.663 143.539 564.986 144.275 565.106 145.056C565.226 145.837 565.139 146.637 564.854 147.374L563.142 151.827C562.855 152.565 562.379 153.214 561.761 153.708C561.143 154.203 560.405 154.526 559.622 154.644L554.895 155.372C554.672 155.415 554.446 155.441 554.219 155.449ZM557.687 140.952H557.524L552.797 141.679C552.608 141.708 552.429 141.785 552.279 141.904C552.129 142.022 552.012 142.178 551.941 142.356L550.228 146.809C550.159 146.986 550.137 147.178 550.166 147.366C550.194 147.554 550.272 147.731 550.391 147.879L553.38 151.613C553.501 151.759 553.657 151.872 553.834 151.941C554.011 152.01 554.202 152.033 554.39 152.007L559.117 151.279C559.307 151.252 559.487 151.176 559.637 151.057C559.788 150.938 559.904 150.781 559.973 150.602L561.686 146.149C561.754 145.972 561.775 145.78 561.746 145.593C561.717 145.405 561.641 145.228 561.523 145.079L558.535 141.346C558.431 141.222 558.301 141.123 558.155 141.054C558.008 140.986 557.848 140.951 557.687 140.952Z" fill="#E0E0E0"/>
<path d="M20.7512 192.665C19.8826 192.663 19.0252 192.468 18.2415 192.093C17.4579 191.718 16.7677 191.173 16.2213 190.498L9.1995 181.729C8.56928 180.934 8.15857 179.987 8.00832 178.984C7.85807 177.98 7.97353 176.954 8.34319 176.009L12.4449 165.536C12.8147 164.591 13.426 163.759 14.2179 163.123C15.0098 162.487 15.9545 162.071 16.9577 161.914L28.0898 160.202C29.0947 160.051 30.1216 160.166 31.0682 160.535C32.0147 160.905 32.8479 161.516 33.4846 162.308L40.4465 171.06C41.0775 171.856 41.4886 172.805 41.6388 173.81C41.7891 174.815 41.6732 175.842 41.3028 176.788L37.2781 187.27C36.9088 188.218 36.2967 189.053 35.5032 189.69C34.7096 190.327 33.7625 190.745 32.7568 190.901L21.6247 192.613C21.3356 192.656 21.0433 192.673 20.7512 192.665ZM13.9521 178.107L20.8026 186.67L31.6778 185.009L35.6682 174.733L28.8177 166.17L17.9425 167.84L13.9521 178.107Z" fill="#E0E0E0"/>
<path d="M49.1633 115.913H42.544C41.7554 115.915 40.9798 115.711 40.2947 115.32C39.6096 114.93 39.0388 114.366 38.6392 113.687L35.3253 107.958C34.9342 107.27 34.7285 106.493 34.7285 105.701C34.7285 104.91 34.9342 104.133 35.3253 103.445L38.6392 97.7162C39.0349 97.0309 39.6041 96.4619 40.2896 96.0666C40.9751 95.6712 41.7527 95.4634 42.544 95.4641H49.1633C49.9547 95.4634 50.7322 95.6712 51.4177 96.0666C52.1032 96.4619 52.6725 97.0309 53.0682 97.7162L56.3821 103.411C56.7732 104.098 56.9789 104.876 56.9789 105.667C56.9789 106.458 56.7732 107.236 56.3821 107.924L53.0682 113.687C52.6679 114.366 52.097 114.929 51.412 115.319C50.727 115.71 49.9518 115.915 49.1633 115.913ZM42.544 98.8551C42.3537 98.8555 42.1667 98.9055 42.0016 99.0001C41.8364 99.0947 41.6987 99.2306 41.6021 99.3946L38.2967 105.123C38.2004 105.288 38.1497 105.476 38.1497 105.667C38.1497 105.858 38.2004 106.046 38.2967 106.211L41.6021 111.974C41.6983 112.139 41.8357 112.276 42.0008 112.372C42.1659 112.468 42.353 112.52 42.544 112.522H49.1633C49.3572 112.523 49.548 112.473 49.7163 112.376C49.8847 112.28 50.0247 112.141 50.1224 111.974L53.4278 106.245C53.5241 106.08 53.5748 105.892 53.5748 105.701C53.5748 105.51 53.5241 105.323 53.4278 105.158L50.1224 99.3946C50.0258 99.2306 49.8881 99.0947 49.7229 99.0001C49.5578 98.9055 49.3708 98.8555 49.1805 98.8551H42.544Z" fill="#EBEBEB"/>
<path d="M162.111 51.1326L149.198 43.0061L133.348 16.2548L111.298 2.75928L107.033 7.37482L109.268 10.3891L116.23 19.7229L143.863 56.8185L155.132 63.0183L162.111 51.1326Z" fill="#EBEBEB"/>
<path d="M145.885 70.3655L142.185 58.0517L101.579 11.6564L96.167 14.8591L104.739 39.2555L128.313 62.4103L133.597 76.8649L145.885 70.3655Z" fill="#EBEBEB"/>
<path d="M167.883 53.4275C167.883 53.4275 213.739 78.5946 222.979 87.0893C232.218 95.5839 253.806 130.958 251.614 135.48C249.422 140.001 247.743 140.618 242.768 136.233C237.793 131.849 221.711 107.615 217.396 103.693C213.08 99.7713 159.354 68.3017 159.354 68.3017L167.883 53.4275Z" fill="#E0E0E0"/>
<path d="M136.791 64.2085C144.812 64.2085 151.314 57.7063 151.314 49.6854C151.314 41.6645 144.812 35.1623 136.791 35.1623C128.77 35.1623 122.268 41.6645 122.268 49.6854C122.268 57.7063 128.77 64.2085 136.791 64.2085Z" fill="#EBEBEB"/>
<path d="M133.185 63.7376C134.355 63.9577 135.541 64.0809 136.73 64.1058C138.123 64.1106 139.509 63.9057 140.841 63.4978C144.047 62.5596 146.826 60.5345 148.701 57.7702C150.576 55.006 151.43 51.6751 151.117 48.3496C150.971 46.9615 150.613 45.6041 150.055 44.3249C149.79 43.6682 149.481 43.0302 149.13 42.4153C148.754 41.7944 148.334 41.2019 147.871 40.6427C145.96 38.2726 143.34 36.5777 140.394 35.807C137.449 35.0364 134.334 35.2306 131.507 36.3611C130.837 36.6306 130.185 36.9423 129.555 37.2945C128.957 37.6645 128.385 38.0735 127.842 38.519C126.758 39.3727 125.813 40.3895 125.042 41.5333C123.586 43.6424 122.72 46.102 122.533 48.6578C122.394 50.6882 122.684 52.7251 123.385 54.6358C124.086 56.5465 125.181 58.2881 126.6 59.7471C127.564 60.7641 128.675 61.6301 129.897 62.3161C130.951 62.8712 132.048 63.3408 133.177 63.7204C133.1 63.7302 133.022 63.7302 132.946 63.7204L132.278 63.532C131.914 63.4397 131.559 63.3165 131.216 63.1638C130.735 62.9818 130.268 62.7643 129.82 62.513C128.555 61.8598 127.399 61.0133 126.395 60.004C124.92 58.5332 123.776 56.7653 123.037 54.8178C122.299 52.8703 121.984 50.7879 122.113 48.7092C122.299 46.0802 123.186 43.549 124.682 41.3791C125.477 40.1995 126.447 39.1483 127.559 38.2621C128.699 37.3147 129.987 36.5598 131.37 36.0272C134.28 34.8601 137.487 34.6561 140.522 35.4451C143.556 36.2342 146.258 37.9747 148.231 40.4115C148.7 40.9924 149.129 41.6047 149.515 42.244C149.878 42.8801 150.196 43.5411 150.466 44.2221C151.01 45.5317 151.345 46.9188 151.459 48.3324C151.695 50.782 151.305 53.2513 150.327 55.5096C149.349 57.7679 147.815 59.7414 145.867 61.2457C144.386 62.4019 142.693 63.2572 140.884 63.7632C139.527 64.1602 138.117 64.3422 136.705 64.3027C136.189 64.3048 135.674 64.2676 135.163 64.1914C134.785 64.1649 134.41 64.1077 134.042 64.0201L133.365 63.8574C133.3 63.826 133.239 63.7857 133.185 63.7376Z" fill="#E0E0E0"/>
<path d="M134.736 57.6235C133.165 57.217 131.749 56.3535 130.669 55.1423C129.588 53.9311 128.891 52.4266 128.666 50.8192C128.441 49.2118 128.698 47.5737 129.404 46.1123C130.11 44.6509 131.234 43.4318 132.633 42.6093C134.032 41.7868 135.644 41.3978 137.265 41.4916C138.885 41.5854 140.441 42.1578 141.736 43.1363C143.031 44.1148 144.007 45.4554 144.539 46.9886C145.072 48.5217 145.138 50.1785 144.729 51.7491C144.181 53.8523 142.821 55.6522 140.948 56.7536C139.074 57.8549 136.84 58.1678 134.736 57.6235Z" fill="#E0E0E0"/>
<path d="M134.736 57.6235C134.736 57.5635 135.446 57.7947 136.731 57.7947C138.268 57.7807 139.77 57.3328 141.064 56.5026C142.358 55.6724 143.391 54.4937 144.044 53.1021C144.643 51.8017 144.885 50.3654 144.746 48.9404C144.59 47.3697 143.973 45.8801 142.973 44.6588C141.905 43.3394 140.443 42.3971 138.8 41.9702C137.157 41.5433 135.42 41.6543 133.845 42.2868C133.097 42.5654 132.4 42.9646 131.781 43.4686C131.173 43.9539 130.644 44.5319 130.214 45.1812C129.401 46.3577 128.913 47.7286 128.801 49.1545C128.707 50.3993 128.907 51.6488 129.384 52.8024C130.074 54.4951 131.314 55.9065 132.903 56.81C133.497 57.1308 134.109 57.4167 134.736 57.6663C134.063 57.5482 133.415 57.3196 132.817 56.9898C131.147 56.1159 129.831 54.6908 129.093 52.9565C128.575 51.7592 128.349 50.4562 128.433 49.1545C128.53 47.6553 129.027 46.2095 129.872 44.9671C130.31 44.2842 130.85 43.672 131.473 43.1517C132.125 42.6128 132.859 42.182 133.648 41.8758C135.31 41.2033 137.143 41.0833 138.878 41.5336C140.613 41.984 142.157 42.9806 143.282 44.3763C144.347 45.6623 145.006 47.2361 145.174 48.8976C145.308 50.394 145.039 51.8989 144.395 53.2563C143.834 54.4317 143.003 55.4584 141.971 56.2534C140.479 57.4086 138.634 58.0135 136.748 57.966C136.063 57.9654 135.382 57.8496 134.736 57.6235Z" fill="#E0E0E0"/>
<path d="M158.94 50.6461L153.006 60.9741C151.267 64.0004 152.311 67.8632 155.337 69.602L155.894 69.922C158.92 71.6607 162.783 70.617 164.522 67.5907L170.456 57.2628C172.195 54.2365 171.151 50.3737 168.125 48.6349L167.568 48.3149C164.541 46.5761 160.679 47.6199 158.94 50.6461Z" fill="#EBEBEB"/>
<path d="M153.001 60.9802C152.646 61.7427 152.407 62.5536 152.29 63.3865C152.202 64.3651 152.333 65.3511 152.675 66.2723C152.888 66.8392 153.176 67.375 153.532 67.865C153.95 68.4028 154.453 68.8685 155.022 69.2437C155.645 69.6642 156.318 70.0064 157.026 70.2627C158.261 70.6813 159.599 70.6935 160.842 70.2976C162.086 69.9016 163.17 69.1182 163.936 68.062C165.906 64.7823 167.986 61.023 170.23 57.161C170.743 56.2454 171.012 55.2135 171.012 54.1639C171.012 53.1144 170.743 52.0824 170.23 51.1668C169.776 50.2876 169.111 49.5344 168.295 48.9747C167.503 48.4183 166.61 48.0226 165.666 47.8101C164.791 47.6326 163.888 47.6479 163.02 47.8549C162.152 48.062 161.34 48.4558 160.639 49.0089C159.295 50.0279 158.704 51.5779 157.916 52.8281L154.388 58.8223L153.412 60.4407C153.308 60.6355 153.185 60.8191 153.044 60.9888C153.129 60.7834 153.226 60.5832 153.335 60.3894C153.566 59.9783 153.866 59.4217 154.243 58.7367C155.099 57.2638 156.221 55.2086 157.668 52.6825L158.798 50.6787C159.215 49.9304 159.77 49.2679 160.434 48.7263C161.168 48.1363 162.021 47.7127 162.935 47.485C163.848 47.2573 164.801 47.2309 165.726 47.4076C166.714 47.6236 167.651 48.0309 168.483 48.6064C169.394 49.1769 170.146 49.9695 170.667 50.9099C171.227 51.8937 171.521 53.0062 171.521 54.1383C171.521 55.2703 171.227 56.3828 170.667 57.3666C168.415 61.2457 166.385 64.945 164.321 68.2932C163.753 69.0535 163.028 69.6821 162.194 70.1358C161.36 70.5896 160.439 70.8578 159.492 70.9221C158.635 70.9713 157.778 70.855 156.966 70.5795C156.236 70.2994 155.543 69.9313 154.902 69.4834C154.308 69.0839 153.785 68.5891 153.352 68.0191C152.99 67.4897 152.702 66.9135 152.496 66.3065C152.209 65.5303 152.081 64.7043 152.119 63.8777C152.157 63.051 152.361 62.2404 152.718 61.494C152.798 61.3151 152.892 61.1433 153.001 60.9802Z" fill="#E0E0E0"/>
<path d="M135.301 84.1778C135.301 84.1778 152.675 133.519 159.56 144.017C166.445 154.516 197.829 181.558 202.641 180.137C207.454 178.715 208.302 177.148 204.825 171.574C201.348 165.999 179.992 146.149 176.841 141.243C173.689 136.336 151.314 78.2179 151.314 78.2179L135.301 84.1778Z" fill="#E0E0E0"/>
<path d="M145.17 70.7342L134.014 74.9095C130.746 76.133 129.087 79.7746 130.311 83.0434L130.536 83.6449C131.76 86.9136 135.401 88.5717 138.67 87.3483L149.826 83.1729C153.094 81.9495 154.752 78.3078 153.529 75.0391L153.304 74.4376C152.08 71.1688 148.439 69.5107 145.17 70.7342Z" fill="#EBEBEB"/>
<path d="M145.174 70.7251C145.37 70.6228 145.577 70.5424 145.791 70.4853C146.406 70.31 147.044 70.2291 147.683 70.2456C148.697 70.2793 149.689 70.5522 150.577 71.0419C151.129 71.3585 151.636 71.7473 152.085 72.198C152.574 72.7198 152.978 73.315 153.283 73.962C153.622 74.6671 153.869 75.4124 154.02 76.1798C154.17 77.032 154.147 77.9058 153.951 78.7488C153.73 79.6766 153.309 80.545 152.717 81.2934C152.125 82.0417 151.378 82.652 150.526 83.0817C146.895 84.546 142.913 85.9761 138.717 87.5688C137.655 87.9603 136.51 88.0713 135.393 87.8914C134.275 87.7114 133.223 87.2464 132.338 86.5413C131.494 85.8583 130.835 84.9752 130.42 83.9723C129.981 83.049 129.731 82.0476 129.683 81.0266C129.652 80.0779 129.829 79.1338 130.201 78.2609C130.574 77.388 131.134 76.6074 131.841 75.9743C132.484 75.4085 133.227 74.9697 134.033 74.6813L136.191 73.8849L142.716 71.5215L144.498 70.8964C144.703 70.8142 144.915 70.7512 145.131 70.708C144.943 70.8222 144.742 70.9141 144.532 70.982L142.819 71.6842L136.345 74.1846C135.001 74.7583 133.357 75.0923 132.132 76.2483C131.473 76.8511 130.953 77.5897 130.607 78.4132C130.261 79.2366 130.098 80.1254 130.129 81.018C130.19 81.9838 130.438 82.9286 130.856 83.801C131.248 84.7272 131.867 85.54 132.655 86.1645C133.481 86.822 134.463 87.2549 135.506 87.4215C136.548 87.588 137.616 87.4824 138.606 87.115C142.776 85.5308 146.827 84.0836 150.389 82.6793C151.551 82.0902 152.496 81.1478 153.088 79.9876C153.681 78.8274 153.89 77.5092 153.686 76.2226C153.544 75.4803 153.311 74.7584 152.992 74.0733C152.715 73.4465 152.339 72.8682 151.879 72.3607C151.46 71.9201 150.981 71.5397 150.458 71.2303C149.608 70.7342 148.656 70.4411 147.674 70.374C146.828 70.3628 145.985 70.4812 145.174 70.7251Z" fill="#E0E0E0"/>
<path d="M583.403 354.714C583.403 354.834 452.866 354.937 291.878 354.937C130.891 354.937 0.328125 354.834 0.328125 354.714C0.328125 354.594 130.839 354.491 291.878 354.491C452.917 354.491 583.403 354.594 583.403 354.714Z" fill="#263238"/>
<path d="M45.8418 256.751C46.073 256.032 72.7558 168.808 72.7558 168.808L72.0879 157.975L79.0669 146.483L87.7328 149.352L86.5511 162.197L80.3856 171.565L53.5486 259.26L45.8418 256.751Z" fill="#E0E0E0"/>
<path d="M45.8418 256.751L46.3556 256.897L47.837 257.359L53.5486 259.149L53.4544 259.2C57.796 244.977 67.832 212.06 80.1972 171.531L86.3541 162.171V162.265C86.7309 158.164 87.1334 153.805 87.5358 149.421L87.69 149.652L86.9707 149.421L79.0241 146.792L79.281 146.697L72.302 158.189V158.061C72.5246 161.754 72.7444 165.365 72.9613 168.893V168.97C65.1603 194.309 58.404 216.256 53.6 231.875C51.1852 239.693 49.2499 245.919 47.9226 250.209C47.2633 252.35 46.7409 254.002 46.3898 255.133L45.9874 256.409L45.8418 256.845C45.8709 256.704 45.908 256.563 45.9531 256.426C46.0387 256.126 46.1586 255.707 46.3213 255.167C46.6639 254.037 47.1776 252.393 47.7942 250.269C49.0872 245.987 50.9711 239.753 53.3346 231.944C58.1128 216.273 64.8092 194.266 72.5503 168.842V168.919C72.3277 165.391 72.1022 161.78 71.8738 158.086V158.018V157.958L78.8528 146.466L78.9384 146.312L79.1097 146.372L87.0649 148.992L87.7756 149.232L87.9469 149.284V149.463C87.5444 153.873 87.1419 158.232 86.7566 162.308V162.368V162.411L80.5997 171.779V171.719C68.106 212.163 57.9844 245.037 53.6 259.26V259.337H53.523L47.8028 257.445L46.3556 256.957L45.8418 256.751Z" fill="#263238"/>
<path d="M39.4112 260.973L27.4228 277.174L10.6647 337.973C10.6647 337.973 8.25845 350.372 21.9509 353.892C37.3646 357.848 40.8755 346.065 40.8755 346.065L57.1455 286.697L56.9743 266.111L60.9904 261.581C61.172 261.37 61.2994 261.118 61.3615 260.846C61.4236 260.575 61.4186 260.292 61.3469 260.023C61.2752 259.754 61.139 259.506 60.95 259.302C60.7611 259.097 60.5251 258.942 60.2625 258.849L41.0126 252.495C40.745 252.412 40.461 252.395 40.1855 252.447C39.9101 252.499 39.6515 252.617 39.4325 252.792C39.2136 252.967 39.0409 253.193 38.9297 253.451C38.8185 253.708 38.7721 253.988 38.7947 254.268L39.4112 260.973Z" fill="#8715BC"/>
<path d="M57.0775 266.821C57.0347 266.941 53.0014 265.768 48.069 264.201C43.1367 262.634 39.1548 261.264 39.1976 261.144C39.2404 261.024 43.2651 262.206 48.2061 263.773C53.147 265.34 57.1117 266.702 57.0775 266.821Z" fill="#263238"/>
<path d="M57.1799 286.705C56.7742 286.68 56.3723 286.611 55.9811 286.5C55.2104 286.337 54.1143 286.072 52.7528 285.729C50.0297 285.053 46.2962 284.016 42.2287 282.715C38.1612 281.413 34.5218 280.094 31.8929 279.075C30.5913 278.562 29.5381 278.133 28.8187 277.825C28.4369 277.688 28.0698 277.513 27.7227 277.303C28.1217 277.384 28.5117 277.505 28.8872 277.662L32.0042 278.776C34.6417 279.718 38.2896 280.994 42.3571 282.287C46.4246 283.58 50.141 284.667 52.8299 285.429L56.0239 286.328C56.42 286.418 56.8069 286.544 57.1799 286.705Z" fill="#263238"/>
<g opacity="0.3">
<path d="M34.6418 283.62L34.2226 283.498C32.7243 283.061 31.1555 283.921 30.7185 285.419L15.8793 336.297C15.4423 337.795 16.3026 339.364 17.8008 339.801L18.2201 339.923C19.7183 340.36 21.2871 339.5 21.7241 338.002L36.5634 287.124C37.0004 285.626 36.1401 284.057 34.6418 283.62Z" fill="black"/>
</g>
<g opacity="0.3">
<path d="M43.2327 286.406L42.8134 286.284C41.3152 285.847 39.7463 286.707 39.3094 288.205L24.4701 339.083C24.0331 340.581 24.8934 342.15 26.3917 342.587L26.8109 342.709C28.3091 343.146 29.878 342.286 30.3149 340.787L45.1542 289.91C45.5912 288.412 44.7309 286.843 43.2327 286.406Z" fill="black"/>
</g>
<g opacity="0.3">
<path d="M50.9819 288.969L50.5631 288.845C49.0667 288.402 47.4944 289.256 47.0514 290.752L32.0082 341.57C31.5652 343.066 32.4192 344.639 33.9157 345.082L34.3345 345.206C35.8309 345.649 37.4032 344.795 37.8462 343.298L52.8894 292.481C53.3324 290.984 52.4784 289.412 50.9819 288.969Z" fill="black"/>
</g>
<path d="M80.326 171.573C79.0165 171.354 77.7356 170.989 76.5068 170.486C75.231 170.127 74.001 169.621 72.8418 168.979C74.1472 169.204 75.4248 169.569 76.6524 170.066C77.9306 170.426 79.1632 170.932 80.326 171.573Z" fill="#263238"/>
<path d="M87.7508 149.352C87.6866 149.76 87.5863 150.161 87.451 150.551C87.2027 151.407 86.8773 152.486 86.4748 153.822L83.0496 164.954L82.9811 165.168L82.767 165.1L78.8194 163.721L74.7604 162.3L74.5635 162.231L74.6234 162.034C75.8565 157.633 76.944 153.771 77.749 150.902C78.1429 149.575 78.4597 148.479 78.708 147.657C78.8087 147.259 78.9404 146.869 79.1019 146.492C79.0551 146.901 78.972 147.305 78.8536 147.699L77.9973 150.979C77.2352 153.831 76.2076 157.701 75.0259 162.111L74.8889 161.846L78.9564 163.267L82.8954 164.646L82.6129 164.791L86.2094 153.736C86.6547 152.409 87.0657 151.33 87.3055 150.508C87.421 150.111 87.57 149.724 87.7508 149.352Z" fill="#263238"/>
<path d="M340.329 62.239C339.638 62.2401 338.951 62.1243 338.299 61.8964L327.809 58.2657C326.78 57.9057 325.862 57.2822 325.149 56.4574C324.435 55.6326 323.95 54.6351 323.742 53.5645L321.644 42.6636C321.438 41.5917 321.518 40.4845 321.876 39.4533C322.233 38.4221 322.856 37.5033 323.682 36.7892L332.074 29.5277C332.9 28.815 333.898 28.3315 334.97 28.1257C336.041 27.9198 337.148 27.9987 338.179 28.3545L348.661 31.9853C349.692 32.344 350.611 32.967 351.326 33.7919C352.041 34.6168 352.528 35.6149 352.737 36.6865L354.835 47.5874C355.036 48.6592 354.954 49.7651 354.597 50.7955C354.239 51.8259 353.619 52.745 352.797 53.4617L344.405 60.7233C343.272 61.7014 341.825 62.2394 340.329 62.239ZM330.395 51.9118L340.2 55.3371L348.035 48.555L346.075 38.3306L336.278 34.9054L328.426 41.7559L330.395 51.9118Z" fill="#E0E0E0"/>
<path d="M330.395 51.9118C330.324 51.6902 330.267 51.4642 330.224 51.2353L329.796 49.223C329.428 47.4161 328.94 44.8729 328.28 41.7644C328.274 41.7352 328.275 41.7048 328.284 41.6762C328.293 41.6477 328.31 41.622 328.332 41.6017L336.141 34.7512C336.173 34.7347 336.208 34.7261 336.244 34.7261C336.28 34.7261 336.315 34.7347 336.347 34.7512L346.143 38.1765L346.297 38.3477V38.4933V38.6646L346.366 38.9985L346.494 39.6665C346.58 40.1032 346.657 40.5228 346.743 40.9852C346.914 41.8415 347.076 42.6978 347.239 43.5541C347.565 45.2668 347.881 46.9109 348.181 48.4951C348.188 48.531 348.186 48.5683 348.174 48.6029C348.162 48.6375 348.141 48.6683 348.113 48.692L340.303 55.4569C340.278 55.4712 340.25 55.4787 340.222 55.4787C340.193 55.4787 340.165 55.4712 340.14 55.4569L332.973 52.888L331.046 52.1687C330.823 52.0961 330.606 52.0073 330.395 51.9032C330.64 51.9544 330.88 52.023 331.115 52.1087L333.093 52.7424L340.252 55.1401H340.089L347.899 48.2896L347.83 48.4951C347.522 46.9023 347.196 45.2582 346.871 43.5541C346.708 42.6978 346.537 41.8415 346.366 40.9852C346.28 40.5485 346.203 40.1289 346.117 39.6665L345.989 38.9985L345.92 38.6646V38.4933V38.4077V38.3477C345.92 38.3477 346.194 38.6646 346.057 38.5104L336.27 35.0852H336.475L328.606 41.8415L328.666 41.6788C329.222 44.7787 329.685 47.3048 330.01 49.1116C330.156 49.9679 330.276 50.6444 330.361 51.1582C330.396 51.4078 330.407 51.6601 330.395 51.9118Z" fill="#263238"/>
<path d="M340.328 62.239C340.328 62.239 340.697 62.239 341.39 62.102C342.39 61.9116 343.328 61.4794 344.122 60.8432L352.642 53.3847C353.574 52.5798 354.24 51.5107 354.552 50.319C354.719 49.6913 354.789 49.0413 354.757 48.3923C354.681 47.7156 354.567 47.0437 354.415 46.38C353.875 43.6141 353.301 40.6684 352.702 37.5685C352.596 36.7931 352.386 36.0355 352.077 35.3164C351.744 34.5909 351.27 33.9391 350.681 33.3995C350.093 32.8598 349.403 32.4431 348.652 32.1737L346.237 31.3174L341.279 29.6047L338.71 28.7484C337.896 28.4059 337.024 28.2228 336.141 28.209C335.254 28.2079 334.377 28.4008 333.572 28.7741C332.79 29.1665 332.074 29.6778 331.448 30.2898L327.484 33.7151L323.656 37.029C322.491 38.0967 321.79 39.5783 321.703 41.1565C321.691 41.9208 321.777 42.6835 321.96 43.4257C322.106 44.1878 322.243 44.9328 322.388 45.6692C322.662 47.1421 322.937 48.5636 323.193 49.9508C323.45 51.3381 323.699 52.6739 323.964 53.9241C324.283 55.1096 324.952 56.1718 325.882 56.9726C326.315 57.3418 326.796 57.6501 327.312 57.8889C327.818 58.1115 328.357 58.2742 328.854 58.4626L331.722 59.4731L336.312 61.1001C337.261 61.4832 338.234 61.8064 339.224 62.0677C339.909 62.1962 340.285 62.1876 340.285 62.2047C339.927 62.2482 339.565 62.2482 339.207 62.2047C338.205 61.9742 337.22 61.6737 336.261 61.3056L331.688 59.7385L328.811 58.7623C328.297 58.5825 327.775 58.4284 327.235 58.1971C326.689 57.9506 326.179 57.6309 325.72 57.2466C324.732 56.412 324.018 55.2988 323.673 54.0526C323.382 52.751 323.151 51.4323 322.877 50.0536C322.603 48.6749 322.329 47.2449 322.02 45.772C321.872 45.047 321.726 44.302 321.584 43.537C321.39 42.7644 321.298 41.9699 321.31 41.1736C321.398 39.4827 322.145 37.8938 323.39 36.7464L327.21 33.4239L331.174 29.9987C331.517 29.7075 331.834 29.4164 332.202 29.1423C332.577 28.8635 332.978 28.6225 333.401 28.423C334.254 28.027 335.183 27.8224 336.124 27.8236C337.056 27.8382 337.977 28.03 338.838 28.3888L341.407 29.2451L346.365 30.9577L348.78 31.814C349.595 32.105 350.343 32.5563 350.981 33.1413C351.606 33.715 352.109 34.4079 352.462 35.1794C352.786 35.931 353.005 36.7233 353.113 37.5342C353.684 40.6455 354.241 43.5855 354.783 46.3543C354.937 47.0346 355.049 47.7238 355.117 48.418C355.166 49.4038 354.988 50.3877 354.596 51.2935C354.204 52.1993 353.609 53.0027 352.856 53.6415L344.242 60.9973C343.412 61.6308 342.438 62.0486 341.407 62.2133C341.05 62.2661 340.688 62.2747 340.328 62.239Z" fill="#263238"/>
<path d="M267.344 44.4105C266.665 44.4088 265.996 44.2539 265.385 43.9574C264.774 43.6609 264.238 43.2303 263.816 42.6978L260.828 38.9728C260.334 38.3536 260.012 37.616 259.891 36.8333C259.771 36.0507 259.858 35.2502 260.143 34.5114L261.856 30.0586C262.144 29.3217 262.621 28.6735 263.238 28.179C263.856 27.6845 264.593 27.3611 265.375 27.2413L270.093 26.5134C270.876 26.395 271.676 26.4836 272.414 26.7706C273.151 27.0575 273.801 27.5328 274.298 28.149L277.286 31.8825C277.78 32.5001 278.103 33.2363 278.223 34.0176C278.343 34.7989 278.256 35.5981 277.971 36.3354L276.259 40.7968C275.975 41.5342 275.503 42.1846 274.89 42.6833C274.277 43.182 273.545 43.5118 272.765 43.6398L268.038 44.3591C267.809 44.3938 267.577 44.4109 267.344 44.4105ZM270.77 29.913H270.607L265.914 30.6238C265.725 30.6519 265.546 30.7292 265.396 30.8479C265.246 30.9666 265.129 31.1225 265.058 31.3003L263.345 35.7617C263.278 35.9389 263.257 36.1307 263.285 36.3184C263.314 36.506 263.391 36.683 263.508 36.8321L266.497 40.557C266.617 40.7047 266.773 40.8187 266.95 40.8877C267.127 40.9568 267.319 40.9786 267.507 40.9509L272.234 40.2231C272.424 40.1958 272.603 40.1188 272.753 40C272.904 39.8812 273.02 39.7248 273.09 39.5466L274.803 35.0937C274.873 34.9168 274.894 34.7246 274.866 34.5367C274.837 34.3487 274.759 34.1716 274.64 34.0233L271.652 30.2984C271.547 30.1758 271.417 30.0778 271.271 30.0112C271.124 29.9446 270.965 29.9111 270.804 29.913H270.77Z" fill="#E0E0E0"/>
<path d="M270.804 29.913C270.924 29.8755 271.052 29.8755 271.172 29.913C271.321 29.9533 271.458 30.0265 271.575 30.1271C271.72 30.2707 271.857 30.4222 271.986 30.5809L274.418 33.501L274.812 33.9891C274.96 34.1906 275.044 34.4325 275.051 34.6827C275.046 34.9292 274.988 35.1716 274.88 35.3934C274.803 35.6075 274.717 35.8216 274.64 36.0442C274.298 36.9006 273.938 37.8682 273.561 38.8615C273.467 39.1099 273.373 39.3582 273.27 39.6151C273.158 39.9244 272.931 40.1788 272.636 40.3258C272.361 40.4285 272.073 40.4947 271.78 40.5228L270.924 40.6598C269.768 40.8311 268.637 41.028 267.353 41.1907C267.169 41.1912 266.986 41.1525 266.818 41.0772C266.65 41.0019 266.499 40.8918 266.377 40.754L265.812 40.0432L264.707 38.6731L263.654 37.3373L263.388 37.0119C263.287 36.8918 263.206 36.7558 263.148 36.6094C263.033 36.3061 263.033 35.9707 263.148 35.6675L264.262 32.8673L264.767 31.6C264.841 31.3842 264.938 31.1774 265.058 30.9834C265.195 30.7904 265.386 30.6416 265.606 30.5553C267.25 30.2555 268.5 30.1357 269.4 30.0158C269.859 29.9258 270.327 29.8856 270.795 29.8959C270.682 29.938 270.564 29.9667 270.444 29.9815L269.434 30.187C268.578 30.3583 267.225 30.5467 265.726 30.8464C265.565 30.917 265.426 31.0294 265.324 31.1718C265.228 31.35 265.147 31.5363 265.084 31.7284L264.604 33.0043L263.525 35.8216C263.448 36.0287 263.448 36.2568 263.525 36.4638C263.644 36.6843 263.791 36.8887 263.962 37.0718L265.058 38.4162L266.163 39.7863L266.719 40.48C266.8 40.5697 266.9 40.6413 267.01 40.6901C267.121 40.7388 267.241 40.7635 267.362 40.7625L270.864 40.2402L271.72 40.1117C271.98 40.0955 272.237 40.0437 272.482 39.9576C272.685 39.8612 272.842 39.689 272.919 39.4781C273.013 39.2212 273.116 38.9728 273.21 38.7245C273.604 37.7483 273.972 36.8064 274.323 35.9244C274.42 35.7131 274.506 35.4991 274.58 35.2821C274.673 35.1041 274.729 34.9088 274.743 34.7084C274.735 34.5258 274.679 34.3487 274.58 34.1946L274.204 33.7151L271.883 30.7094C271.781 30.4994 271.629 30.3174 271.441 30.1787C271.253 30.04 271.035 29.9489 270.804 29.913Z" fill="#263238"/>
<path d="M267.345 44.4105C267.531 44.3682 267.72 44.3396 267.91 44.3248L269.546 44.0423L272.115 43.6055C272.648 43.5473 273.172 43.4206 273.673 43.2288C274.222 43.0022 274.718 42.6639 275.129 42.2354C275.6 41.7664 275.963 41.1992 276.191 40.5742C276.439 39.9234 276.704 39.2383 276.97 38.5276C277.441 37.0975 278.4 35.6332 278.049 33.9977C277.897 33.1683 277.517 32.3974 276.953 31.7712L275.24 29.6476L274.384 28.5515C274.111 28.1831 273.788 27.8546 273.425 27.5753C272.684 27.0195 271.782 26.719 270.856 26.719C270.378 26.7365 269.903 26.7909 269.434 26.8817L268.004 27.0958L265.221 27.5325C264.367 27.7178 263.59 28.1601 262.995 28.7998C262.708 29.1066 262.465 29.4526 262.275 29.8274C262.096 30.1956 261.95 30.6238 261.796 31.0091L260.88 33.3297C260.56 34.0294 260.308 34.7576 260.126 35.5048C260.025 36.1793 260.078 36.868 260.281 37.5191C260.484 38.1702 260.832 38.7668 261.299 39.264L263.449 42.0042C263.774 42.3981 264.039 42.792 264.348 43.0917C264.627 43.3659 264.94 43.602 265.281 43.7939C265.937 44.1416 266.657 44.3514 267.396 44.4105C267.396 44.4105 267.345 44.4105 267.242 44.4105C267.139 44.4105 267.002 44.4105 266.814 44.4105C266.252 44.3596 265.705 44.1997 265.204 43.9395C264.843 43.7475 264.506 43.5116 264.202 43.2373C263.866 42.8918 263.549 42.5288 263.252 42.1498L261.051 39.4524C260.547 38.9253 260.17 38.2907 259.947 37.5965C259.725 36.9022 259.663 36.1665 259.766 35.4448C259.938 34.6654 260.188 33.9052 260.511 33.1756L261.411 30.855C261.573 30.4525 261.702 30.0586 261.899 29.639C262.103 29.2245 262.366 28.841 262.678 28.5001C263.318 27.8116 264.145 27.3263 265.058 27.1043C266 26.9416 266.917 26.8132 267.867 26.659L269.297 26.445C269.788 26.3465 270.287 26.2892 270.787 26.2737C271.808 26.2644 272.803 26.5892 273.622 27.1985C274.015 27.4989 274.364 27.8535 274.658 28.2518L275.514 29.3479C276.096 30.0672 276.662 30.7865 277.227 31.4801C277.838 32.1617 278.244 33.0015 278.4 33.9035C278.552 34.7685 278.457 35.6588 278.126 36.4724C277.835 37.2174 277.544 37.9453 277.27 38.656C276.996 39.3668 276.722 40.0347 276.465 40.6941C276.225 41.3381 275.848 41.9224 275.36 42.4067C274.491 43.2418 273.352 43.7371 272.149 43.8025L269.58 44.1621C268.869 44.2563 268.312 44.3334 267.936 44.3591C267.741 44.3996 267.543 44.4168 267.345 44.4105Z" fill="#263238"/>
<path d="M350.767 33.2355C350.164 34.2721 349.421 35.2202 348.558 36.0528C347.799 36.9902 346.887 37.7923 345.86 38.4248C346.582 37.478 347.375 36.5877 348.232 35.7617C348.979 34.8265 349.829 33.9791 350.767 33.2355Z" fill="#263238"/>
<path d="M334.711 28.3117C335.27 29.3187 335.655 30.4131 335.85 31.5486C336.197 32.6557 336.351 33.8145 336.304 34.9738C335.92 33.8999 335.633 32.7937 335.447 31.6685C335.099 30.5745 334.853 29.4509 334.711 28.3117Z" fill="#263238"/>
<path d="M328.324 41.5589C327.203 41.3384 326.103 41.0233 325.035 40.617C323.924 40.3442 322.836 39.9834 321.781 39.538C324.084 39.7239 326.317 40.4139 328.324 41.5589Z" fill="#263238"/>
<path d="M326.499 56.416C326.948 55.5206 327.524 54.6955 328.212 53.9669C328.801 53.1512 329.505 52.4245 330.301 51.809C329.858 52.7079 329.281 53.5338 328.588 54.2581C327.999 55.0738 327.295 55.8006 326.499 56.416Z" fill="#263238"/>
<path d="M340.92 61.1001C340.575 60.2187 340.372 59.2879 340.32 58.3428C340.114 57.4157 340.059 56.4615 340.158 55.5169C340.499 56.4023 340.702 57.3354 340.757 58.2828C340.958 59.2076 341.013 60.1583 340.92 61.1001Z" fill="#263238"/>
<path d="M353.105 50.1307C352.228 50.0282 351.374 49.7793 350.579 49.3942C349.728 49.1507 348.926 48.7626 348.207 48.2468C349.933 48.5971 351.589 49.2339 353.105 50.1307Z" fill="#263238"/>
<path d="M523.101 115.793C528.898 108.805 534.695 101.749 539.216 93.8713C543.738 85.9932 546.923 77.1903 547.154 68.1133C547.154 66.7347 546.598 57.1867 545.271 56.8014C544.329 56.5274 543.678 64.9621 542.907 65.5701C535.509 71.3588 530.705 79.9476 527.939 88.9218C525.335 97.6719 523.713 106.684 523.101 115.793Z" fill="#263238"/>
<path d="M447.582 168.902C449.895 162.908 461.284 132.936 461.224 132.936C461.164 132.936 441.605 122.729 448.379 101.938C451.633 91.8932 460.016 71.7612 467.809 53.6245C471.853 44.2278 479.287 36.698 488.631 32.533C497.975 28.3679 508.545 27.8728 518.237 31.1462L520.232 31.8227C541.349 40.3858 545.922 63.0525 536.785 83.9209L494.825 181.113L458.055 169.75L447.582 168.902Z" fill="#FFBF9D"/>
<path d="M461.232 132.954C461.232 132.954 474.017 138.092 490.869 134.084C490.869 134.084 479.206 147.263 459.186 138.425L461.232 132.954Z" fill="#FF9A6C"/>
<path d="M467.774 73.6366C467.507 74.4048 467.55 75.2468 467.894 75.9839C468.237 76.721 468.855 77.295 469.615 77.5842C469.981 77.7405 470.375 77.8222 470.773 77.8244C471.171 77.8265 471.565 77.7492 471.933 77.5968C472.301 77.4445 472.634 77.2202 472.914 76.9372C473.194 76.6541 473.414 76.318 473.563 75.9486C473.832 75.1805 473.79 74.3375 473.446 73.5998C473.102 72.8622 472.483 72.2883 471.722 72.001C471.356 71.8434 470.962 71.7608 470.563 71.7581C470.165 71.7553 469.77 71.8324 469.402 71.9849C469.034 72.1374 468.7 72.3621 468.421 72.6458C468.141 72.9295 467.921 73.2664 467.774 73.6366Z" fill="#263238"/>
<path d="M469.299 63.729C469.538 64.2428 472.338 63.3351 475.515 64.4226C478.692 65.5101 480.491 67.8479 480.962 67.6081C481.193 67.4968 481.056 66.6747 480.285 65.5872C479.234 64.1688 477.767 63.1124 476.089 62.5644C474.428 61.9907 472.627 61.9667 470.951 62.4959C469.718 62.9155 469.179 63.4978 469.299 63.729Z" fill="#263238"/>
<path d="M495.681 84.8628C495.412 85.6298 495.454 86.4716 495.798 87.2078C496.142 87.9441 496.761 88.5163 497.522 88.8019C497.888 88.9595 498.282 89.0421 498.68 89.0448C499.079 89.0476 499.473 88.9704 499.841 88.818C500.209 88.6655 500.543 88.4408 500.823 88.1571C501.103 87.8734 501.323 87.5365 501.47 87.1663C501.737 86.3981 501.694 85.5561 501.35 84.819C501.006 84.0819 500.389 83.5079 499.629 83.2187C499.262 83.0626 498.868 82.9814 498.47 82.9798C498.071 82.9782 497.676 83.0563 497.309 83.2094C496.941 83.3626 496.607 83.5878 496.328 83.8718C496.048 84.1557 495.828 84.4927 495.681 84.8628Z" fill="#263238"/>
<path d="M500.031 75.5376C500.263 76.0514 503.071 75.1522 506.248 76.2312C509.425 77.3102 511.215 79.6565 511.694 79.4253C511.917 79.3054 511.789 78.4833 511.018 77.4044C509.963 75.9838 508.494 74.9248 506.813 74.373C505.153 73.7975 503.351 73.7735 501.676 74.3045C500.477 74.7241 499.912 75.3064 500.031 75.5376Z" fill="#263238"/>
<path d="M480.362 96.132C480.439 95.9607 478.572 94.9503 475.507 93.4603C474.728 93.1006 474.008 92.681 474.06 92.0731C474.111 91.4651 474.702 90.6601 475.413 89.8552L479.908 84.4775C486.219 76.7707 491.083 70.374 490.766 70.1171C490.45 69.8602 485.089 75.8887 478.778 83.5698C477.245 85.4709 475.772 87.2777 474.376 89.016C473.76 89.8723 472.878 90.7286 472.878 92.0645C472.9 92.3898 472.996 92.7058 473.158 92.989C473.319 93.2722 473.543 93.5153 473.811 93.7001C474.223 93.9725 474.665 94.1939 475.13 94.3594C478.281 95.6182 480.285 96.3118 480.362 96.132Z" fill="#263238"/>
<path d="M488.986 101.493C488.472 101.296 487.273 104.747 483.522 106.194C479.772 107.641 476.184 106.031 475.995 106.502C475.875 106.699 476.595 107.444 478.127 108.018C480.143 108.725 482.343 108.704 484.344 107.958C486.262 107.233 487.825 105.794 488.703 103.942C489.32 102.554 489.225 101.552 488.986 101.493Z" fill="#263238"/>
<path d="M504.562 62.6929C504.562 63.6605 507.901 64.3284 511.481 66.0325C515.06 67.7366 517.74 69.7832 518.494 69.1752C518.836 68.8755 518.588 67.8821 517.637 66.6062C516.362 65.029 514.743 63.7639 512.905 62.9076C511.066 62.0513 509.056 61.6264 507.028 61.6653C505.486 61.7852 504.57 62.239 504.562 62.6929Z" fill="#263238"/>
<path d="M474.188 53.5988C474.505 54.5151 476.945 54.4551 479.591 55.3114C482.237 56.1677 484.301 57.4437 485.063 56.8614C485.414 56.5702 485.312 55.731 484.567 54.712C483.532 53.4506 482.147 52.5243 480.586 52.0502C479.025 51.5762 477.359 51.5757 475.798 52.0489C474.616 52.5198 474.06 53.1621 474.188 53.5988Z" fill="#263238"/>
<path d="M529.883 98.7009C530.294 98.7009 545.528 99.2918 540.304 113.258C535.081 127.225 522.09 119.124 522.219 118.713C522.347 118.302 529.883 98.7009 529.883 98.7009Z" fill="#FFBF9D"/>
<path d="M528.479 115.039C528.556 115.039 528.659 115.305 529.001 115.647C529.486 116.115 530.135 116.373 530.808 116.367C532.521 116.367 534.61 114.491 535.62 111.991C536.107 110.803 536.321 109.522 536.246 108.24C536.282 107.751 536.197 107.261 535.998 106.813C535.799 106.365 535.493 105.973 535.107 105.671C534.853 105.485 534.541 105.395 534.227 105.419C533.912 105.442 533.617 105.577 533.394 105.8C533.06 106.125 533.043 106.434 532.966 106.434C532.889 106.434 532.752 106.082 533.077 105.577C533.281 105.264 533.582 105.027 533.933 104.901C534.427 104.754 534.959 104.807 535.415 105.046C535.942 105.379 536.376 105.841 536.676 106.387C536.975 106.934 537.131 107.548 537.128 108.172C537.266 109.608 537.055 111.057 536.511 112.393C535.364 115.176 532.94 117.283 530.697 117.112C530.279 117.078 529.875 116.953 529.512 116.744C529.149 116.535 528.837 116.248 528.599 115.904C528.376 115.399 528.419 115.048 528.479 115.039Z" fill="#FF9A6C"/>
<path d="M485.68 33.9891C483.899 31.8826 493.481 27.1386 499.997 26.779C509.845 26.1967 523.555 28.7656 530.439 33.9292C538.746 40.1375 544.697 47.7416 546.119 58.0088C547.54 68.2761 545.511 78.8259 541.529 88.3995C540.313 91.3195 538.823 94.2738 536.288 96.1663C533.163 98.504 528.675 99.0092 527.203 103.334C526.959 104.123 526.561 104.857 526.032 105.492C525.503 106.127 524.853 106.651 524.12 107.033C520.523 108.746 518.383 105.021 517.929 101.895C516.961 95.25 519.119 88.5964 521.251 82.1997C522.767 77.6784 524.334 73.0629 527.245 69.2694C528.821 67.2057 530.756 65.4331 532.221 63.2752C533.685 61.1172 534.635 58.4198 533.933 55.928C533.754 55.3785 533.522 54.8479 533.24 54.3438C531.945 51.9003 530.024 49.8449 527.674 48.3883C525.324 46.9317 522.628 46.1263 519.864 46.0546C510.933 45.8234 495.887 44.8215 493.447 40.814C489.876 35.0424 489.627 32.0796 489.627 32.0796L485.68 33.9891Z" fill="#263238"/>
<path d="M532.229 25.3831C533.128 25.837 554.168 38.8359 554.031 57.7947C553.894 76.7536 550.426 81.3948 550.426 81.3948C551.131 82.2639 551.708 83.23 552.138 84.2635C552.703 85.7021 549.475 90.5831 546.709 88.9561C527.819 71.4273 501.787 61.357 472.09 52.1345L449.689 44.1108C443.129 42.6807 441.494 40.2402 444.696 39.5809C447.154 39.0671 467.5 38.0395 467.5 38.0395L471.893 36.6865L485.594 27.0016C485.594 27.0016 485.063 24.8094 487.846 24.0987C490.629 23.3879 514.537 16.3918 532.229 25.3831Z" fill="#8715BC"/>
<path d="M471.876 36.7208C471.876 36.7208 472.176 36.8406 472.732 37.029L475.301 37.834C477.511 38.4933 480.653 39.6065 484.524 41.028C494.539 44.8823 504.197 49.6043 513.39 55.1401C522.578 60.6991 531.441 66.7774 539.936 73.3454C543.224 75.8373 545.836 77.9096 547.643 79.3396L549.741 80.9752C550.22 81.3434 550.486 81.5232 550.486 81.5232C550.486 81.5232 550.255 81.3006 549.784 80.9067L547.737 79.1941C545.947 77.7383 543.353 75.6318 540.09 73.1142C531.625 66.4688 522.759 60.3489 513.544 54.789C504.324 49.2327 494.612 44.5346 484.532 40.754C480.384 39.1986 476.16 37.8525 471.876 36.7208Z" fill="#263238"/>
<g opacity="0.3">
<path d="M549.647 42.6123C549.647 42.6123 526.423 30.1785 513.596 31.6857L515.103 31.4801L503.114 32.4735C501.085 32.6447 498.764 32.7047 497.377 31.2232C497.377 31.2232 504.647 28.1405 516.13 28.2004C527.614 28.2604 544.466 32.3365 549.647 42.6123Z" fill="black"/>
</g>
<path d="M549.955 42.8178C549.44 42.0426 548.867 41.307 548.242 40.617C546.569 38.707 544.678 36.9998 542.608 35.5305C539.542 33.3344 536.169 31.6031 532.597 30.3926C528.245 28.7896 523.598 28.1441 518.973 28.5001C516.599 28.7394 514.242 29.1284 511.917 29.6647C509.674 30.17 507.49 30.5211 505.426 31.1205C503.534 31.7482 501.592 32.2123 499.621 32.5077C497.896 32.6782 496.154 32.4467 494.534 31.8312C488.463 29.836 485.183 27.3099 485.594 27.0273C485.616 27.2733 485.729 27.5023 485.911 27.6695C486.404 28.1515 486.957 28.5687 487.555 28.9112C489.735 30.2157 492.049 31.2809 494.457 32.0881C496.113 32.7285 497.894 32.9804 499.663 32.8245C501.656 32.546 503.622 32.0962 505.538 31.4801C507.559 30.9235 509.768 30.5467 512.011 30.0415C514.322 29.527 516.661 29.1496 519.016 28.9112C523.586 28.5673 528.176 29.1947 532.486 30.7523C536.03 31.9382 539.387 33.6251 542.453 35.7617C544.522 37.2013 546.426 38.864 548.131 40.7198C548.739 41.3791 549.193 41.9101 549.484 42.2783C549.775 42.6465 549.955 42.8178 549.955 42.8178Z" fill="#263238"/>
<g opacity="0.3">
<path d="M553.757 65.63C549.356 64.0801 546.41 61.7937 542.36 59.3275C538.078 56.7072 533.702 54.3095 529.515 51.4836C526.338 49.3429 522.493 47.0822 521.08 43.7768C520.611 44.5787 520.358 45.4882 520.344 46.417C520.331 47.3457 520.558 48.2622 521.003 49.0774C521.902 50.79 525.713 53.8471 527.34 54.9517C536.597 61.2456 543.027 65.5444 553.372 69.9201C553.592 68.5029 553.718 67.0725 553.749 65.6385" fill="black"/>
</g>
<path d="M553.979 55.6967C556.36 57.8632 557.79 59.2675 557.053 61.6909C556.446 63.6947 555.212 65.9725 553.14 65.6557C552.527 65.5133 551.946 65.2577 551.427 64.9021L523.066 48.2981C522.04 47.8484 521.208 47.0466 520.72 46.0375C520.155 44.4276 521.576 42.6636 523.212 42.2183C524.847 41.773 526.594 42.2183 528.221 42.7835C537.452 45.772 545.87 50.3619 553.979 55.6881" fill="#8715BC"/>
<path d="M521.029 46.654C520.768 46.159 520.644 45.6032 520.669 45.0442C520.733 44.2896 521.007 43.5682 521.462 42.9625C521.916 42.3568 522.532 41.8911 523.238 41.6189C525.053 41.0023 527.46 41.4134 529.823 42.3725C532.187 43.3315 534.85 44.419 537.53 45.6607C542.185 47.7255 546.647 50.2015 550.863 53.0593C552.473 54.1639 553.714 55.1401 554.579 55.8166L555.555 56.613C555.666 56.7112 555.786 56.7973 555.915 56.8699C555.915 56.8699 555.821 56.75 555.607 56.5531L554.673 55.6967C553.817 54.986 552.627 53.9841 551.026 52.8281C546.838 49.8897 542.372 47.3686 537.693 45.3011C534.97 44.0508 532.341 42.9719 529.926 42.0214C527.511 41.0708 525.036 40.6598 523.075 41.3534C522.332 41.6499 521.69 42.1538 521.225 42.8052C520.761 43.4566 520.493 44.2279 520.455 45.027C520.444 45.4561 520.535 45.8817 520.72 46.2687C520.8 46.4141 520.904 46.5445 521.029 46.654Z" fill="#263238"/>
<path d="M481.296 30.0757L500.571 36.2498L497.103 41.088L476.44 33.501L481.296 30.0757Z" fill="white"/>
<path d="M504.416 57.0069C504.459 56.9041 496.35 52.7253 486.288 47.7415C476.226 42.7578 468.006 38.7245 468.006 38.8273C468.006 38.9301 476.072 43.1089 486.134 48.0926C496.196 53.0764 504.365 57.1011 504.416 57.0069Z" fill="#263238"/>
<path d="M509.271 160.895L509.528 148.239L466.215 164.329C466.215 164.329 458.209 138.323 458.209 137.098L448.609 143.092L432.656 136.242L416.703 128.364L384.437 184.881L350.587 284.676L430.327 337.87L489.464 274.503L525.43 219.698L545.193 185.001L509.271 160.895Z" fill="#8715BC"/>
<path d="M462.363 164.141C462.312 163.72 462.292 163.297 462.303 162.873C462.303 162.017 462.303 160.801 462.251 159.328L462.448 159.448C457.688 161.773 453.294 164.782 449.406 168.379L449.064 168.705V168.234C449.064 167.669 448.995 167.069 448.961 166.461C448.61 160.253 448.319 154.636 448.105 150.559C448.019 148.573 447.951 146.946 447.899 145.738C447.899 145.213 447.899 144.776 447.899 144.428C447.843 144.418 447.792 144.386 447.758 144.34C447.723 144.294 447.707 144.237 447.712 144.18C447.717 144.122 447.744 144.069 447.786 144.03C447.829 143.991 447.885 143.97 447.942 143.97C448 143.97 448.055 143.991 448.098 144.03C448.14 144.069 448.167 144.122 448.172 144.18C448.178 144.237 448.161 144.294 448.127 144.34C448.092 144.386 448.042 144.418 447.985 144.428C447.985 144.771 448.053 145.208 448.105 145.73C448.191 146.937 448.302 148.564 448.439 150.542C448.713 154.61 449.047 160.227 449.398 166.436C449.398 167.044 449.466 167.643 449.492 168.208L449.124 168.054C453.042 164.431 457.504 161.444 462.345 159.2L462.551 159.114V159.328C462.551 160.801 462.491 161.991 462.474 162.873C462.468 163.298 462.431 163.722 462.363 164.141Z" fill="#263238"/>
<path d="M505.28 161.503C505.126 161.611 504.959 161.7 504.784 161.769L503.337 162.462L497.976 164.92L480.199 172.866L471.756 176.6L471.396 176.754L471.464 176.369C472.161 172.354 472.488 168.284 472.441 164.209L472.638 164.329L468.639 166.273L467.568 166.77C467.328 166.881 467.2 166.932 467.191 166.915C467.296 166.83 467.411 166.758 467.534 166.701L468.57 166.136L472.518 164.081L472.706 163.978V164.209C472.827 168.318 472.54 172.428 471.85 176.48L471.559 176.249L479.993 172.498L497.822 164.663L503.251 162.334L504.732 161.726C504.905 161.629 505.089 161.555 505.28 161.503Z" fill="#263238"/>
<path d="M429.557 98.17H103.386C96.4951 98.17 90.9092 103.756 90.9092 110.647V336.491C90.9092 343.382 96.4951 348.968 103.386 348.968H429.557C436.447 348.968 442.033 343.382 442.033 336.491V110.647C442.033 103.756 436.447 98.17 429.557 98.17Z" fill="#455A64"/>
<path d="M77.1826 332.766H457.601V339.471C457.601 343.514 455.995 347.391 453.137 350.249C450.278 353.108 446.401 354.714 442.359 354.714H92.425C88.3825 354.714 84.5055 353.108 81.647 350.249C78.7885 347.391 77.1826 343.514 77.1826 339.471V332.766Z" fill="#455A64"/>
<path d="M431.63 108.138H100.338V319.93H431.63V108.138Z" fill="#263238"/>
<path d="M231.859 330.42L236.578 338.529H303.002L307.386 330.42H231.859Z" fill="#263238"/>
<path d="M422.68 115.305H109.953C108.407 115.305 107.153 116.559 107.153 118.105V316.445C107.153 317.992 108.407 319.245 109.953 319.245H422.68C424.227 319.245 425.48 317.992 425.48 316.445V118.105C425.48 116.559 424.227 115.305 422.68 115.305Z" fill="#EBEBEB"/>
<path d="M425.146 319.545H106.819L107.153 130.547H425.146V319.545Z" fill="#FAFAFA"/>
<path d="M133.905 123.183C133.88 123.695 133.706 124.188 133.403 124.602C133.1 125.016 132.683 125.332 132.202 125.51C131.722 125.689 131.199 125.723 130.7 125.608C130.2 125.493 129.745 125.234 129.392 124.863C129.038 124.492 128.801 124.025 128.71 123.52C128.619 123.016 128.677 122.496 128.879 122.024C129.081 121.553 129.416 121.151 129.844 120.868C130.271 120.586 130.772 120.435 131.285 120.434C131.997 120.452 132.672 120.752 133.164 121.267C133.655 121.782 133.922 122.471 133.905 123.183Z" fill="#263238"/>
<path d="M118.012 123.183C117.987 123.695 117.812 124.188 117.509 124.602C117.206 125.016 116.789 125.332 116.309 125.51C115.828 125.689 115.306 125.723 114.806 125.608C114.307 125.493 113.852 125.234 113.498 124.863C113.144 124.492 112.907 124.025 112.816 123.52C112.725 123.016 112.784 122.496 112.985 122.024C113.187 121.553 113.522 121.151 113.95 120.868C114.378 120.586 114.879 120.435 115.392 120.434C116.103 120.452 116.779 120.752 117.27 121.267C117.761 121.782 118.028 122.471 118.012 123.183Z" fill="#263238"/>
<path d="M126.181 123.183C126.156 123.695 125.981 124.188 125.678 124.602C125.375 125.016 124.958 125.332 124.477 125.51C123.997 125.689 123.475 125.723 122.975 125.608C122.476 125.493 122.021 125.234 121.667 124.863C121.313 124.492 121.076 124.025 120.985 123.52C120.894 123.016 120.953 122.496 121.154 122.024C121.356 121.553 121.691 121.151 122.119 120.868C122.547 120.586 123.048 120.435 123.561 120.434C124.272 120.452 124.948 120.752 125.439 121.267C125.93 121.782 126.197 122.471 126.181 123.183Z" fill="#263238"/>
<path d="M439.019 330.42C439.019 330.557 361.094 330.66 264.973 330.66C168.851 330.66 90.9092 330.557 90.9092 330.42C90.9092 330.283 168.834 330.172 264.973 330.172C361.111 330.172 439.019 330.283 439.019 330.42Z" fill="#263238"/>
<path d="M232.124 166.778C237.3 163.654 242.87 161.235 248.685 159.585L252.111 143.187L279.804 142.698L283.794 158.968C289.663 160.418 295.313 162.641 300.595 165.579L314.596 156.408L334.523 175.65L325.857 189.976C328.982 195.154 331.402 200.726 333.05 206.545L349.44 209.971L349.928 237.664L333.658 241.654C332.205 247.507 329.979 253.14 327.038 258.404L336.218 272.405L316.977 292.331L302.668 283.657C297.49 286.782 291.917 289.202 286.098 290.85L282.673 307.248L254.971 307.728L250.989 291.458C245.136 290.024 239.5 287.815 234.231 284.89L220.23 294.07L200.304 274.828L208.978 260.519C205.85 255.342 203.428 249.769 201.776 243.949L185.387 240.524L184.898 212.831L201.168 208.84C202.616 202.971 204.839 197.321 207.779 192.039L198.608 178.039L217.849 158.112L232.124 166.778ZM246.887 203.677C242.806 207.905 240.069 213.248 239.024 219.031C237.979 224.814 238.673 230.777 241.017 236.166C243.361 241.555 247.25 246.128 252.193 249.307C257.136 252.486 262.91 254.127 268.786 254.024C274.662 253.921 280.375 252.078 285.203 248.728C290.032 245.378 293.758 240.672 295.912 235.204C298.066 229.736 298.55 223.753 297.303 218.01C296.056 212.267 293.134 207.023 288.907 202.94C286.098 200.231 282.783 198.102 279.151 196.673C275.519 195.245 271.641 194.547 267.739 194.618C263.837 194.688 259.987 195.527 256.409 197.086C252.832 198.645 249.596 200.893 246.887 203.702V203.677Z" fill="#E0E0E0"/>
<path d="M342.77 177.371C343.149 175.322 343.797 173.333 344.696 171.454L341.271 166.829L347.471 159.568L352.609 162.257C354.322 161.076 356.185 160.128 358.149 159.439L359.005 153.728L368.519 152.983L370.232 158.489C372.281 158.867 374.271 159.518 376.149 160.424L380.773 156.999L388.034 163.207L385.346 168.345C386.531 170.06 387.481 171.927 388.171 173.894L393.875 174.75L394.62 184.273L389.113 185.985C388.738 188.036 388.087 190.026 387.178 191.902L390.603 196.535L384.404 203.788L379.266 201.099C377.551 202.285 375.684 203.235 373.717 203.925L372.861 209.637L363.347 210.382L361.634 204.867C359.585 204.491 357.595 203.844 355.717 202.94L351.084 206.366L343.84 200.089L346.529 194.951C345.345 193.235 344.395 191.369 343.703 189.402L338 188.546L337.255 179.023L342.761 177.311L342.77 177.371ZM355.674 180.257C355.471 182.398 355.945 184.549 357.029 186.407C358.114 188.265 359.754 189.736 361.718 190.612C363.683 191.488 365.873 191.726 367.98 191.291C370.086 190.857 372.004 189.772 373.461 188.19C374.919 186.608 375.843 184.609 376.104 182.473C376.365 180.338 375.949 178.175 374.915 176.288C373.881 174.402 372.281 172.888 370.341 171.959C368.401 171.03 366.218 170.733 364.1 171.111C361.89 171.505 359.869 172.613 358.347 174.265C356.825 175.916 355.886 178.021 355.674 180.257Z" fill="#E0E0E0"/>
<path d="M134.23 272.961C134.299 270.501 134.7 268.062 135.42 265.708L130.565 260.973L136.508 251.399L142.947 253.626C144.746 251.938 146.762 250.498 148.942 249.344L148.89 242.536L159.868 239.967L162.84 246.09C165.3 246.159 167.74 246.559 170.093 247.28L174.879 242.425L184.453 248.368L182.227 254.807C183.914 256.606 185.354 258.622 186.508 260.802L193.316 260.75L195.885 271.72L189.754 274.674C189.677 277.134 189.274 279.573 188.555 281.927L193.41 286.705L187.467 296.287L181.028 294.061C179.231 295.751 177.215 297.191 175.034 298.343L175.085 305.15L164.116 307.719L161.136 301.597C158.682 301.511 156.251 301.096 153.908 300.363L149.13 305.219L139.548 299.276L141.774 292.836C140.087 291.038 138.647 289.022 137.493 286.842L130.642 286.894L128.073 275.924L134.196 272.944L134.23 272.961ZM150.098 276.044C150.648 278.37 151.875 280.48 153.624 282.109C155.373 283.738 157.565 284.812 159.924 285.196C162.283 285.579 164.703 285.255 166.878 284.264C169.052 283.273 170.885 281.66 172.143 279.628C173.402 277.596 174.03 275.237 173.948 272.849C173.867 270.46 173.079 268.149 171.685 266.208C170.291 264.267 168.353 262.782 166.116 261.942C163.878 261.102 161.442 260.943 159.115 261.487C157.563 261.848 156.098 262.513 154.804 263.443C153.51 264.372 152.412 265.548 151.574 266.904C150.736 268.259 150.175 269.766 149.921 271.339C149.668 272.912 149.728 274.52 150.098 276.07V276.044Z" fill="#E0E0E0"/>
<path d="M153.934 181.49C154.214 179.943 154.704 178.442 155.39 177.028L152.821 173.534L157.496 168.063L161.35 170.092C162.643 169.2 164.048 168.483 165.529 167.96L166.162 163.678L173.338 163.113L174.623 167.266C176.167 167.554 177.667 168.043 179.084 168.722L182.578 166.153L188.041 170.828L186.02 174.682C186.913 175.973 187.627 177.379 188.144 178.861L192.425 179.486L192.991 186.662L188.846 187.912C188.563 189.456 188.076 190.957 187.399 192.373L189.968 195.859L185.292 201.33L181.439 199.301C180.148 200.196 178.743 200.913 177.26 201.433L176.635 205.715L169.459 206.271L168.166 202.118C166.62 201.837 165.119 201.347 163.705 200.663L160.219 203.231L154.748 198.556L156.768 194.703C155.876 193.411 155.162 192.006 154.645 190.524L150.363 189.89L149.807 182.714L153.96 181.43L153.934 181.49ZM163.653 184.975C163.774 186.493 164.343 187.941 165.286 189.137C166.23 190.332 167.507 191.221 168.955 191.692C170.404 192.162 171.959 192.193 173.425 191.78C174.891 191.367 176.202 190.529 177.192 189.372C178.182 188.215 178.807 186.79 178.988 185.278C179.169 183.765 178.898 182.234 178.209 180.875C177.52 179.517 176.444 178.393 175.117 177.646C173.79 176.899 172.271 176.562 170.752 176.677C169.74 176.754 168.754 177.03 167.849 177.489C166.944 177.948 166.139 178.581 165.48 179.352C164.82 180.123 164.319 181.016 164.006 181.981C163.692 182.946 163.573 183.963 163.653 184.975Z" fill="#EBEBEB"/>
<path d="M343.129 258.772C343.377 257.444 343.797 256.155 344.379 254.936L342.144 251.939L346.16 247.238L349.474 248.95C350.583 248.182 351.79 247.565 353.062 247.118L353.602 243.418L359.767 242.939L360.872 246.51C362.201 246.753 363.491 247.174 364.708 247.76L367.705 245.525L372.406 249.541L370.694 252.846C371.462 253.958 372.079 255.168 372.526 256.443L376.226 256.982L376.705 263.148L373.134 264.253C372.891 265.581 372.47 266.872 371.884 268.089L374.119 271.086L370.103 275.779L366.798 274.066C365.684 274.831 364.475 275.447 363.201 275.899L362.662 279.589L356.496 280.069L355.391 276.507C354.064 276.259 352.774 275.838 351.555 275.256L348.558 277.491L343.84 273.475L345.552 270.17C344.784 269.061 344.168 267.854 343.72 266.582L340.029 266.042L339.541 259.877L343.112 258.772H343.129ZM351.478 261.761C351.579 263.071 352.067 264.322 352.881 265.355C353.694 266.388 354.795 267.156 356.045 267.562C357.295 267.967 358.638 267.993 359.903 267.635C361.167 267.277 362.297 266.551 363.149 265.55C364.001 264.549 364.536 263.318 364.687 262.012C364.838 260.707 364.598 259.385 363.998 258.216C363.397 257.047 362.462 256.083 361.313 255.446C360.163 254.808 358.851 254.526 357.541 254.636C355.793 254.78 354.174 255.611 353.038 256.946C351.902 258.282 351.341 260.013 351.478 261.761Z" fill="#EBEBEB"/>
<path d="M267.397 268.063H224.812C222.309 268.057 219.851 267.394 217.685 266.14C215.518 264.887 213.719 263.086 212.466 260.919C211.214 258.752 210.552 256.294 210.547 253.791C210.542 251.288 211.194 248.827 212.438 246.655L233.743 209.757L255.04 172.858C256.296 170.687 258.101 168.885 260.273 167.632C262.446 166.379 264.91 165.719 267.418 165.719C269.926 165.719 272.39 166.379 274.563 167.632C276.735 168.885 278.54 170.687 279.796 172.858L301.101 209.757L322.406 246.655C323.651 248.828 324.303 251.289 324.298 253.793C324.292 256.297 323.63 258.755 322.376 260.923C321.122 263.09 319.322 264.89 317.154 266.143C314.986 267.396 312.528 268.058 310.024 268.063H267.397Z" fill="#8715BC"/>
<path d="M313.261 250.886C313.261 250.886 313.372 251.1 313.586 251.545C313.951 252.437 314.091 253.405 313.992 254.365C313.894 255.324 313.56 256.243 313.021 257.042C312.597 257.673 312.053 258.215 311.419 258.635C310.683 259.104 309.841 259.381 308.97 259.44C301.709 259.517 291.228 259.5 278.263 259.534L232.724 259.586H226.216C225.055 259.573 223.927 259.201 222.987 258.52C222.046 257.839 221.341 256.883 220.967 255.784C220.57 254.686 220.496 253.497 220.753 252.358C220.821 252.076 220.915 251.793 221.01 251.502C221.104 251.211 221.258 250.963 221.386 250.706L222.243 249.207C223.339 247.195 224.452 245.174 225.565 243.127L239.369 217.789L253.258 192.468C255.491 188.374 257.688 184.358 259.852 180.419C260.4 179.443 260.905 178.458 261.488 177.491C262.066 176.502 262.893 175.682 263.885 175.11C264.858 174.553 265.95 174.236 267.07 174.185C268.19 174.134 269.306 174.352 270.325 174.819C271.336 175.276 272.218 175.976 272.894 176.857C273.479 177.745 274.008 178.669 274.478 179.623C275.48 181.455 276.473 183.262 277.441 185.043C279.393 188.606 281.28 192.062 283.101 195.413C286.758 202.101 290.157 208.335 293.257 214.021C299.457 225.402 304.466 234.616 307.934 240.995L311.908 248.334C312.353 249.19 312.695 249.807 312.927 250.252C313.158 250.697 313.269 250.911 313.269 250.911C313.269 250.911 313.132 250.697 312.892 250.269L311.83 248.377L307.78 241.072C304.286 234.71 299.217 225.53 292.983 214.175L282.784 195.585L277.098 185.232C276.122 183.451 275.137 181.644 274.127 179.811C273.656 178.886 273.132 177.988 272.56 177.122C271.928 176.3 271.105 175.645 270.162 175.213C269.203 174.772 268.152 174.567 267.098 174.615C266.043 174.663 265.015 174.962 264.099 175.487C263.171 176.03 262.399 176.802 261.856 177.73C261.291 178.664 260.777 179.666 260.237 180.642L253.644 192.69C249.174 200.877 244.533 209.346 239.789 218.029L225.925 243.35C224.803 245.397 223.698 247.426 222.594 249.43C221.992 250.374 221.517 251.393 221.181 252.461C220.936 253.528 221.005 254.643 221.378 255.672C221.716 256.692 222.366 257.58 223.235 258.211C224.105 258.843 225.15 259.186 226.225 259.192H232.733L278.271 259.235L308.97 259.277C309.812 259.228 310.627 258.969 311.342 258.524C311.966 258.119 312.505 257.595 312.927 256.982C313.586 256.013 313.938 254.867 313.937 253.694C313.927 252.719 313.696 251.759 313.261 250.886Z" fill="#263238"/>
<path d="M260.494 242.99C260.494 239.214 263.508 236.397 267.799 236.397C272.089 236.397 275.034 239.214 275.034 242.99C275.034 246.767 272.089 249.712 267.799 249.712C263.508 249.712 260.494 246.715 260.494 242.99ZM260.563 204.31H275.034L272.602 232.809H262.935L260.563 204.31Z" fill="white"/>
<path d="M269.434 168.593C268.558 168.298 267.65 168.108 266.728 168.028C264.489 167.98 262.303 168.713 260.546 170.101C258.83 171.531 257.447 173.32 256.495 175.341C255.716 176.883 255.348 177.91 255.279 177.867C255.302 177.614 255.363 177.366 255.459 177.131C255.673 176.475 255.925 175.831 256.213 175.204C257.118 173.083 258.519 171.209 260.297 169.741C262.129 168.287 264.437 167.567 266.771 167.72C267.47 167.772 268.156 167.94 268.801 168.217C269.22 168.414 269.451 168.568 269.434 168.593Z" fill="white"/>
<path d="M251.623 184.247C251.799 183.508 252.116 182.81 252.556 182.192C253.182 181.139 253.772 180.334 253.884 180.394C253.703 181.122 253.383 181.808 252.942 182.414C252.624 183.104 252.176 183.727 251.623 184.247Z" fill="white"/>
<g opacity="0.3">
<path d="M288.77 188.409L222.414 229.289L213.8 244.223L293.454 196.518L288.77 188.409Z" fill="white"/>
</g>
<g opacity="0.3">
<path d="M299.217 206.528L211.265 258.404C211.617 259.764 212.27 261.028 213.174 262.103L300.767 209.217L299.217 206.528Z" fill="white"/>
</g>
<path d="M516.576 303.275C513.232 299.59 508.898 296.946 504.092 295.658C499.286 294.371 494.211 294.494 489.473 296.013L481.278 287.022L480.139 285.746L415.291 214.595C417.113 210.372 417.779 205.739 417.218 201.174C416.657 196.608 414.891 192.274 412.101 188.618C409.311 184.961 405.597 182.113 401.342 180.366C397.087 178.62 392.443 178.038 387.888 178.681L384.72 179.94L395.741 187.33L395.15 199.361L386.236 207.453L374.205 206.862L366.344 198.196L363.098 199.472C362.165 206.725 367.029 215.871 372.329 221.736C375.667 225.416 379.993 228.058 384.791 229.348C389.589 230.637 394.656 230.518 399.389 229.007L465.325 301.348L467.346 303.6L473.597 310.451C471.642 315.009 471.037 320.032 471.856 324.924C472.674 329.815 474.88 334.368 478.213 338.041C483.488 343.864 490.492 347.752 497.78 347.555L501.034 346.288L493.164 337.613L493.755 325.625L502.669 317.533L514.658 318.115L519.264 328.057L522.518 326.781C523.522 322.675 523.505 318.387 522.469 314.289C521.433 310.192 519.41 306.41 516.576 303.275Z" fill="#E0E0E0"/>
<g opacity="0.3">
<path d="M516.576 303.275C513.232 299.59 508.898 296.946 504.092 295.658C499.286 294.371 494.211 294.494 489.473 296.013L481.278 287.022L480.139 285.746L415.291 214.595C417.113 210.372 417.779 205.739 417.218 201.174C416.657 196.608 414.891 192.274 412.101 188.618C409.311 184.961 405.597 182.113 401.342 180.366C397.087 178.62 392.443 178.038 387.888 178.681L384.72 179.94L395.741 187.33L395.15 199.361L386.236 207.453L374.205 206.862L366.344 198.196L363.098 199.472C362.165 206.725 367.029 215.871 372.329 221.736C375.667 225.416 379.993 228.058 384.791 229.348C389.589 230.637 394.656 230.518 399.389 229.007L465.325 301.348L467.346 303.6L473.597 310.451C471.642 315.009 471.037 320.032 471.856 324.924C472.674 329.815 474.88 334.368 478.213 338.041C483.488 343.864 490.492 347.752 497.78 347.555L501.034 346.288L493.164 337.613L493.755 325.625L502.669 317.533L514.658 318.115L519.264 328.057L522.518 326.781C523.522 322.675 523.505 318.387 522.469 314.289C521.433 310.192 519.41 306.41 516.576 303.275Z" fill="black"/>
</g>
<path d="M513.321 304.542C509.98 300.858 505.647 298.215 500.842 296.928C496.037 295.642 490.963 295.767 486.228 297.289L478.024 288.289L476.885 287.014L412.036 215.862C413.86 211.639 414.526 207.007 413.965 202.442C413.405 197.876 411.639 193.543 408.848 189.886C406.058 186.23 402.344 183.383 398.088 181.637C393.832 179.892 389.188 179.312 384.634 179.957L392.495 188.623L391.913 200.611L382.982 208.738L370.993 208.155L363.132 199.489C362.045 203.957 362.168 208.633 363.487 213.038C364.807 217.442 367.276 221.416 370.64 224.55C374.004 227.684 378.142 229.865 382.629 230.87C387.116 231.874 391.789 231.666 396.169 230.265L462.105 302.607L464.135 304.859L470.386 311.71C468.571 315.931 467.911 320.559 468.476 325.119C469.04 329.679 470.807 334.007 473.597 337.659C476.386 341.31 480.097 344.154 484.348 345.897C488.599 347.641 493.238 348.222 497.788 347.581L489.918 338.898L490.501 326.909L499.423 318.817L511.412 319.408L519.273 328.074C520.283 323.964 520.268 319.669 519.23 315.566C518.193 311.463 516.164 307.678 513.321 304.542Z" fill="#E0E0E0"/>
<path d="M513.322 304.542C513.322 304.542 513.699 304.953 514.41 305.784C515.422 307.048 516.319 308.401 517.09 309.826C520.066 315.421 520.889 321.913 519.402 328.074V328.245L519.282 328.117L511.412 319.459L511.481 319.502L499.493 318.928H499.578L490.672 327.029V326.935C490.501 330.668 490.304 334.736 490.099 338.966V338.855L497.9 347.461L498.105 347.684L497.806 347.726C493.463 348.357 489.032 347.878 484.925 346.335C480.818 344.791 477.168 342.232 474.317 338.898C471.214 335.294 469.169 330.901 468.408 326.207C467.6 321.286 468.212 316.236 470.172 311.65V311.855L395.938 230.428L396.169 230.488C391.478 231.97 386.466 232.113 381.698 230.899C375.056 229.181 369.357 224.919 365.832 219.034C362.307 213.149 361.239 206.113 362.859 199.447L362.961 199.036L363.244 199.344L371.105 208.01L370.951 207.941L382.982 208.524L382.819 208.583L391.794 200.483L391.717 200.637C391.914 196.578 392.11 192.579 392.307 188.606L392.359 188.76L384.498 180.094L384.232 179.794L384.626 179.743C389.362 179.073 394.19 179.718 398.585 181.605C402.979 183.493 406.77 186.551 409.545 190.447C412.2 194.163 413.827 198.514 414.263 203.06C414.668 207.442 413.976 211.856 412.251 215.905V215.699L486.365 297.187H486.262C489.79 296.06 493.518 295.701 497.195 296.134C500.873 296.567 504.415 297.781 507.585 299.696C509.195 300.679 510.699 301.827 512.072 303.121C512.928 304.037 513.391 304.508 513.391 304.508L512.038 303.155C510.653 301.867 509.144 300.72 507.533 299.73C504.372 297.845 500.845 296.655 497.188 296.238C493.531 295.822 489.827 296.189 486.322 297.315H486.262V297.264L412.011 215.914L411.926 215.819L411.977 215.708C413.675 211.706 414.352 207.345 413.947 203.017C413.518 198.54 411.911 194.255 409.288 190.601C406.556 186.768 402.825 183.76 398.5 181.904C394.175 180.048 389.423 179.416 384.763 180.077L384.892 179.726L392.65 188.477L392.71 188.537V188.631C392.522 192.593 392.327 196.589 392.128 200.62V200.714L392.059 200.774L383.145 208.866L383.076 208.926H382.982L370.994 208.335H370.9L370.84 208.267L362.97 199.601L363.355 199.507C362.28 203.934 362.402 208.567 363.708 212.932C365.013 217.297 367.456 221.236 370.786 224.345C374.116 227.455 378.213 229.623 382.657 230.627C387.101 231.631 391.732 231.435 396.075 230.06H396.204L396.306 230.163C423.263 259.774 448.542 287.493 470.489 311.624L470.575 311.718L470.523 311.838C468.597 316.349 467.988 321.313 468.768 326.156C469.519 330.665 471.452 334.894 474.37 338.413C477.289 341.931 481.088 344.613 485.38 346.185C489.341 347.618 493.592 348.059 497.763 347.469L497.66 347.735L489.808 339.069L489.765 339.018V338.898C489.97 334.676 490.167 330.609 490.356 326.909V326.849V326.807L499.287 318.731H499.338L511.327 319.331C514.204 322.516 516.85 325.436 519.171 328.014H519.017C520.515 321.892 519.726 315.433 516.799 309.851C516.039 308.427 515.159 307.069 514.17 305.792C513.673 304.979 513.322 304.542 513.322 304.542Z" fill="#263238"/>
<path d="M409.083 220.015C409.022 220.243 408.927 220.459 408.8 220.658C408.5 221.215 408.166 221.752 407.798 222.267C405.37 225.721 401.947 228.353 397.985 229.812C397.393 230.035 396.786 230.218 396.169 230.36C395.949 230.434 395.717 230.471 395.484 230.471C395.484 230.394 396.418 230.137 397.874 229.52C401.693 227.931 405.029 225.368 407.55 222.088C408.518 220.829 409.014 219.981 409.083 220.015Z" fill="#263238"/>
<path d="M481.501 250.92L456.873 239.445L434.857 236.696L442.941 243.547C442.941 243.547 414.477 253.472 413.98 255.707C413.484 257.942 416.224 263.953 421.242 262.84C421.242 262.84 418.425 266.265 419.598 270.041C420.771 273.818 423.366 274.528 428.161 273.646C428.161 273.646 424.907 278.519 427.459 281.002C430.011 283.485 433.984 282.86 433.984 282.86C433.984 282.86 434.035 288.795 437.17 289.308C440.304 289.822 449.038 289.214 452.301 288.212L468.87 283.074L479.609 280.668L481.501 250.92Z" fill="#FFBF9D"/>
<path d="M436.167 258.455C436.262 258.781 432.982 260.014 428.854 261.221C424.727 262.429 421.285 263.131 421.19 262.805C421.096 262.48 424.376 261.238 428.503 260.04C432.631 258.841 436.073 258.13 436.167 258.455Z" fill="#FF9A6C"/>
<path d="M440.355 270.161C440.449 270.487 437.854 271.557 434.549 272.559C431.244 273.561 428.478 274.092 428.375 273.766C428.272 273.441 430.884 272.37 434.189 271.377C437.495 270.384 440.261 269.844 440.355 270.161Z" fill="#FF9A6C"/>
<path d="M444.114 279.897C444.174 280.266 441.81 280.754 439.036 281.456C436.261 282.158 434.095 283.169 433.898 282.818C433.701 282.466 435.739 281.053 438.693 280.249C441.648 279.444 444.071 279.598 444.114 279.897Z" fill="#FF9A6C"/>
<path d="M447.223 242.562C447.317 242.896 444.088 244.069 440.089 245.448C436.09 246.827 432.828 247.88 432.691 247.563C432.554 247.246 435.654 245.671 439.696 244.283C443.737 242.896 447.137 242.237 447.223 242.562Z" fill="#FF9A6C"/>
<path d="M476.86 248.762L530.2 268.08L527.083 304.688L468.356 281.011L476.86 248.762Z" fill="#FFBF9D"/>
<path d="M545.297 184.701C545.297 184.701 552.25 191.885 556.3 204.807C560.351 217.729 579.421 272.507 578.958 289.934C578.453 307.959 566.319 320.821 539.653 313.696C523.743 309.415 504.784 302.564 504.784 302.564L518.263 258.258L528.804 260.973L511.78 229.015L545.297 184.701Z" fill="#8715BC"/>
<path d="M533.085 205.638C533.188 205.715 525.807 216.222 516.61 229.109C507.413 241.997 499.886 252.41 499.783 252.324C499.681 252.238 507.062 241.74 516.259 228.852C525.456 215.965 532.991 205.569 533.085 205.638Z" fill="#263238"/>
<path d="M553.5 266.967C553.5 266.967 553.038 266.745 552.207 266.359C551.025 265.831 549.802 265.399 548.551 265.066C546.967 264.629 545.048 264.21 542.916 263.756L535.997 262.232C531.091 261.136 526.646 260.117 523.444 259.354L519.65 258.43C519.18 258.34 518.718 258.208 518.271 258.036C518.748 258.075 519.22 258.152 519.684 258.267L523.512 259.046C526.74 259.731 531.219 260.699 536.1 261.795L543.01 263.362C545.134 263.842 547.052 264.287 548.636 264.766C549.895 265.131 551.116 265.613 552.284 266.205C552.6 266.366 552.906 266.546 553.201 266.744C553.31 266.805 553.411 266.88 553.5 266.967Z" fill="#263238"/>
<g opacity="0.3">
<path d="M567.132 268.92C566.962 267.868 566.54 266.873 565.901 266.02C565.263 265.167 564.428 264.482 563.467 264.021C561.539 263.109 559.462 262.553 557.336 262.377C547.754 261.059 538.06 260.665 528.393 260.331L529.249 260.716C541.193 262.924 552.884 266.332 564.144 270.889C564.76 271.231 565.486 271.317 566.165 271.129C566.532 270.903 566.821 270.57 566.994 270.176C567.167 269.781 567.215 269.343 567.132 268.92Z" fill="black"/>
</g>
<g opacity="0.3">
<path d="M347.384 99.0606C338.393 97.5278 327.638 100.14 318.646 98.6068C317.311 98.3841 315.838 98.1701 314.656 98.8551C313.234 99.6686 312.746 101.484 312.678 103.137C312.642 105.404 313.08 107.654 313.965 109.742C314.85 111.831 316.162 113.711 317.816 115.262C321.183 118.34 325.388 120.349 329.898 121.034C333.486 121.642 337.348 121.522 340.542 119.792C346.16 116.744 348.857 105.235 347.384 99.0606Z" fill="black"/>
</g>
<path d="M312.49 115.51C312.49 115.51 307.035 109.114 306.247 106.168C305.725 104.216 305.982 98.7438 306.247 95.2757C306.308 94.107 306.709 92.9816 307.401 92.0381C308.093 91.0947 309.047 90.3746 310.143 89.9665C310.465 89.8071 310.823 89.7381 311.181 89.7667C311.538 89.7954 311.881 89.9207 312.173 90.1292C312.914 89.1247 313.745 88.1902 314.656 87.3376C316.797 85.1455 317.816 83.664 322.526 85.0256C322.526 85.0256 325.994 81.3691 327.989 81.6431C329.328 81.8412 330.653 82.1273 331.954 82.4995C331.954 82.4995 339.549 82.1741 341.108 84.5889C341.993 85.679 343.187 86.476 344.533 86.8752C345.721 87.2945 346.813 87.9478 347.744 88.7965C348.675 89.6451 349.426 90.672 349.954 91.8162C350.84 93.9178 351.353 96.1577 351.469 98.4355L343.762 98.7438C343.762 98.7438 344.311 116.478 342.367 117.908C340.423 119.338 339.686 118.824 339.686 118.824C339.686 118.824 338.205 122.986 332.425 119.912C332.425 119.912 327.629 121.359 325.574 119.381C323.519 117.403 316.001 98.4013 316.001 98.4013L316.215 107.821C316.215 107.821 320.18 113.926 318.236 115.356C316.292 116.786 312.49 115.51 312.49 115.51Z" fill="#FFBF9D"/>
<path d="M322.115 91.4736C322.298 91.8292 322.444 92.2021 322.552 92.5868L323.597 95.6696C324.453 98.2385 325.626 101.904 326.876 105.903C328.127 109.902 329.171 113.609 330.353 116.041C330.807 117.021 331.334 117.966 331.929 118.867C332.348 119.509 332.614 119.835 332.588 119.861C332.562 119.886 332.494 119.801 332.357 119.646C332.156 119.432 331.967 119.206 331.792 118.97C331.134 118.096 330.56 117.161 330.079 116.178C328.803 113.704 327.733 110.03 326.465 106.04C325.198 102.049 324.093 98.4012 323.306 95.7638C322.946 94.505 322.638 93.4603 322.398 92.6382C322.268 92.2595 322.173 91.8697 322.115 91.4736Z" fill="#FF9A6C"/>
<path d="M331.594 89.2815C331.765 89.6489 331.897 90.0336 331.988 90.429L332.904 93.6059C333.649 96.2862 334.617 100.003 335.747 104.113C336.877 108.223 337.793 111.957 338.461 114.663C338.778 115.947 339.035 117.026 339.241 117.865C339.356 118.256 339.43 118.658 339.463 119.064C339.301 118.693 339.17 118.309 339.069 117.917C338.83 117.06 338.53 116.016 338.162 114.74C337.408 112.06 336.398 108.343 335.319 104.233C334.24 100.122 333.272 96.3889 332.596 93.683C332.287 92.3899 332.022 91.3195 331.825 90.4718C331.71 90.0833 331.633 89.6847 331.594 89.2815Z" fill="#FF9A6C"/>
</svg>
