<svg width="25" height="24" viewBox="0 0 25 24" fill="none" xmlns="http://www.w3.org/2000/svg">
<path d="M22.2874 12.225C22.2874 11.5667 22.2291 10.9417 22.1291 10.3334H12.7124V14.0917H18.1041C17.8624 15.325 17.1541 16.3667 16.1041 17.075V19.575H19.3207C21.2041 17.8334 22.2874 15.2667 22.2874 12.225Z" fill="#4285F4"/>
<path d="M12.7126 21.9999C15.4126 21.9999 17.6709 21.0999 19.3209 19.5749L16.1042 17.0749C15.2042 17.6749 14.0626 18.0415 12.7126 18.0415C10.1043 18.0415 7.89593 16.2832 7.10426 13.9082H3.7876V16.4832C5.42926 19.7499 8.80426 21.9999 12.7126 21.9999Z" fill="#34A853"/>
<path d="M7.10406 13.9083C6.89573 13.3083 6.7874 12.6666 6.7874 11.9999C6.7874 11.3333 6.90406 10.6916 7.10406 10.0916V7.5166H3.7874C3.10407 8.8666 2.7124 10.3833 2.7124 11.9999C2.7124 13.6166 3.10407 15.1333 3.7874 16.4833L7.10406 13.9083Z" fill="#FBBC05"/>
<path d="M12.7126 5.95833C14.1876 5.95833 15.5042 6.46666 16.5459 7.45833L19.3959 4.60833C17.6709 2.99167 15.4126 2 12.7126 2C8.80426 2 5.42926 4.25 3.7876 7.51666L7.10426 10.0917C7.89593 7.71666 10.1043 5.95833 12.7126 5.95833Z" fill="#EA4335"/>
</svg>
