<svg width="24" height="25" viewBox="0 0 24 25" fill="none" xmlns="http://www.w3.org/2000/svg">
<path d="M17 2.19153H7C4.23858 2.19153 2 4.4301 2 7.19153V17.1915C2 19.953 4.23858 22.1915 7 22.1915H17C19.7614 22.1915 22 19.953 22 17.1915V7.19153C22 4.4301 19.7614 2.19153 17 2.19153Z" stroke="#FAFAFA" stroke-width="2" stroke-linecap="round" stroke-linejoin="round"/>
<path d="M15.9997 11.5616C16.1231 12.3938 15.981 13.2438 15.5935 13.9906C15.206 14.7374 14.5929 15.343 13.8413 15.7213C13.0898 16.0995 12.2382 16.2312 11.4075 16.0975C10.5768 15.9639 9.80947 15.5717 9.21455 14.9767C8.61962 14.3818 8.22744 13.6145 8.09377 12.7838C7.96011 11.9531 8.09177 11.1015 8.47003 10.35C8.84829 9.59844 9.45389 8.98533 10.2007 8.59783C10.9475 8.21033 11.7975 8.06817 12.6297 8.19159C13.4786 8.31747 14.2646 8.71305 14.8714 9.31989C15.4782 9.92674 15.8738 10.7127 15.9997 11.5616Z" stroke="#FAFAFA" stroke-width="2" stroke-linecap="round" stroke-linejoin="round"/>
</svg>
