<svg width="32" height="32" viewBox="0 0 32 32" fill="none" xmlns="http://www.w3.org/2000/svg">
<path d="M17.587 11.5846C18.1857 11.8706 18.7468 12.2615 19.2426 12.7574C21.5858 15.1005 21.5858 18.8995 19.2426 21.2426L13.2426 27.2426C10.8995 29.5858 7.1005 29.5858 4.75736 27.2426C2.41421 24.8995 2.41421 21.1005 4.75736 18.7574L7.09999 16.4147M24.9 15.5853L27.2426 13.2426C29.5858 10.8995 29.5858 7.1005 27.2426 4.75736C24.8995 2.41421 21.1005 2.41421 18.7574 4.75736L12.7574 10.7574C10.4142 13.1005 10.4142 16.8995 12.7574 19.2426C13.2532 19.7385 13.8143 20.1294 14.413 20.4154" stroke="#FAFAFA" stroke-width="1.5" stroke-linecap="round" stroke-linejoin="round"/>
</svg>
