<svg width="24" height="24" viewBox="0 0 24 24" fill="none" xmlns="http://www.w3.org/2000/svg">
<path d="M19.0413 19.0411H16.0778V14.4003C16.0778 13.2936 16.0581 11.869 14.5366 11.869C12.9931 11.869 12.7569 13.0747 12.7569 14.3197V19.0408H9.79353V9.49729H12.6384V10.8015H12.6783C13.2575 9.8111 14.3385 9.21737 15.4852 9.25995C18.4887 9.25995 19.0425 11.2355 19.0425 13.8057L19.0413 19.0411ZM6.44979 8.19273C5.50637 8.19273 4.7297 7.41651 4.7297 6.47309C4.7297 5.52967 5.50601 4.75336 6.44943 4.75336C7.39276 4.75336 8.16898 5.52949 8.16916 6.47273C8.16916 7.41597 7.39303 8.19264 6.44979 8.19273ZM7.93148 19.0411H4.96498V9.49729H7.93148V19.0411ZM20.5186 2.00138H3.47578C2.67576 1.99234 2.00975 2.64288 2 3.4429V20.5565C2.00939 21.3569 2.67532 22.0082 3.47578 21.9996H20.5186C21.321 22.0097 21.9893 21.3585 22 20.5565V3.44173C21.9893 2.64001 21.3201 1.98957 20.5186 2.00013V2.00138Z" fill="#0A66C2"/>
<path d="M19.0413 19.0412H16.0779V14.4003C16.0779 13.2936 16.0581 11.869 14.5366 11.869C12.9931 11.869 12.7569 13.0747 12.7569 14.3197V19.0408H9.79356V9.49734H12.6384V10.8015H12.6783C13.2575 9.81116 14.3385 9.21743 15.4852 9.26001C18.4887 9.26001 19.0426 11.2356 19.0426 13.8058L19.0413 19.0412ZM6.44983 8.19279C5.50641 8.19279 4.72974 7.41657 4.72974 6.47315C4.72974 5.52973 5.50605 4.75342 6.44946 4.75342C7.39279 4.75342 8.16902 5.52955 8.16919 6.47279C8.16919 7.41603 7.39306 8.1927 6.44983 8.19279ZM7.93151 19.0412H4.96501V9.49734H7.93151V19.0412Z" fill="white"/>
</svg>
