<svg width="24" height="25" viewBox="0 0 24 25" fill="none" xmlns="http://www.w3.org/2000/svg">
<path d="M20.7002 1.62903C21.1299 1.62903 21.5107 1.77551 21.8428 2.06848C22.1748 2.36145 22.3408 2.72278 22.3408 3.15247V21.6681C22.3408 22.0978 22.1748 22.4591 21.8428 22.7521C21.5107 23.045 21.1299 23.1915 20.7002 23.1915H2.30176C1.87207 23.1915 1.50098 23.045 1.18848 22.7521C0.875977 22.4591 0.719727 22.0978 0.719727 21.6681V3.15247C0.719727 2.72278 0.875977 2.36145 1.18848 2.06848C1.50098 1.77551 1.87207 1.62903 2.30176 1.62903H20.7002ZM7.10645 20.0275V9.71497H3.94238V20.0275H7.10645ZM5.52441 8.30872C6.03223 8.30872 6.47168 8.12317 6.84277 7.75208C7.21387 7.38098 7.39941 6.94153 7.39941 6.43372C7.39941 5.9259 7.21387 5.48645 6.84277 5.11536C6.47168 4.74426 6.03223 4.55872 5.52441 4.55872C5.0166 4.55872 4.57715 4.74426 4.20605 5.11536C3.83496 5.48645 3.64941 5.9259 3.64941 6.43372C3.64941 6.98059 3.8252 7.42981 4.17676 7.78137C4.52832 8.13293 4.97754 8.30872 5.52441 8.30872ZM19.1182 20.0275V14.3439C19.1182 12.7814 18.8545 11.5802 18.3271 10.7404C17.7998 9.90051 16.7939 9.48059 15.3096 9.48059C13.8252 9.48059 12.8096 10.0275 12.2627 11.1212H12.2041V9.71497H9.15723V20.0275H12.3213V14.9298C12.3213 13.172 12.9658 12.2931 14.2549 12.2931C14.7627 12.2931 15.1436 12.4591 15.3975 12.7911C15.6514 13.1232 15.7979 13.4357 15.8369 13.7286C15.876 14.0216 15.8955 14.4415 15.8955 14.9884V20.0275H19.1182Z" fill="#FAFAFA"/>
</svg>
