<svg width="144" height="31" viewBox="0 0 144 31" fill="none" xmlns="http://www.w3.org/2000/svg">
<path d="M75.3115 20.485L72.0615 27.141C71.7842 27.6956 71.4895 28.0943 71.1775 28.337C70.8655 28.5623 70.4928 28.675 70.0595 28.675C69.5048 28.675 69.0368 28.4843 68.6555 28.103C68.2742 27.7043 67.7802 26.9936 67.1735 25.971L64.1575 20.485V27.843C64.1575 28.5883 63.9842 29.1343 63.6375 29.481C63.3082 29.8276 62.8055 30.001 62.1295 30.001C61.3668 30.001 60.8122 29.8363 60.4655 29.507C60.1188 29.1603 59.9455 28.493 59.9455 27.505V16.169C59.9455 14.8343 60.2488 13.829 60.8555 13.153C61.4622 12.477 62.4848 12.139 63.9235 12.139C64.4608 12.139 64.9288 12.2343 65.3275 12.425C65.7262 12.5983 66.0208 12.8063 66.2115 13.049C66.4195 13.2743 66.6188 13.5603 66.8095 13.907L70.2935 21.525L73.9855 14.037C74.6268 12.789 75.7795 12.165 77.4435 12.165C78.2235 12.165 78.8908 12.3036 79.4455 12.581C80.0002 12.841 80.4335 13.2743 80.7455 13.881C81.0748 14.4703 81.2395 15.2156 81.2395 16.117V27.427C81.2222 29.143 80.1388 30.001 77.9895 30.001C77.2095 30.001 76.5682 29.793 76.0655 29.377C75.5802 28.9436 75.3288 28.2503 75.3115 27.297V20.485ZM99.9912 20.485L96.7412 27.141C96.4638 27.6956 96.1692 28.0943 95.8572 28.337C95.5452 28.5623 95.1725 28.675 94.7392 28.675C94.1845 28.675 93.7165 28.4843 93.3352 28.103C92.9538 27.7043 92.4598 26.9936 91.8532 25.971L88.8372 20.485V27.843C88.8372 28.5883 88.6638 29.1343 88.3172 29.481C87.9878 29.8276 87.4852 30.001 86.8092 30.001C86.0465 30.001 85.4918 29.8363 85.1452 29.507C84.7985 29.1603 84.6252 28.493 84.6252 27.505V16.169C84.6252 14.8343 84.9285 13.829 85.5352 13.153C86.1418 12.477 87.1645 12.139 88.6032 12.139C89.1405 12.139 89.6085 12.2343 90.0072 12.425C90.4058 12.5983 90.7005 12.8063 90.8912 13.049C91.0992 13.2743 91.2985 13.5603 91.4892 13.907L94.9732 21.525L98.6652 14.037C99.3065 12.789 100.459 12.165 102.123 12.165C102.903 12.165 103.571 12.3036 104.125 12.581C104.68 12.841 105.113 13.2743 105.425 13.881C105.755 14.4703 105.919 15.2156 105.919 16.117V27.427C105.902 29.143 104.819 30.001 102.669 30.001C101.889 30.001 101.248 29.793 100.745 29.377C100.26 28.9436 100.009 28.2503 99.9912 27.297V20.485ZM119.835 19.445C120.754 19.445 121.395 19.5923 121.759 19.887C122.14 20.1816 122.331 20.6843 122.331 21.395C122.331 21.9843 122.106 22.409 121.655 22.669C121.222 22.9116 120.537 23.033 119.601 23.033H115.389V25.789L121.031 25.815C122.002 25.815 122.695 25.9623 123.111 26.257C123.544 26.5343 123.761 27.037 123.761 27.765C123.761 28.597 123.51 29.1776 123.007 29.507C122.522 29.8363 121.776 30.001 120.771 30.001H112.347C111.324 30.001 110.57 29.7323 110.085 29.195C109.617 28.6403 109.383 27.6696 109.383 26.283V15.311C109.383 13.231 110.371 12.191 112.347 12.191H120.771C121.776 12.191 122.522 12.347 123.007 12.659C123.51 12.971 123.761 13.5343 123.761 14.349C123.761 15.1116 123.544 15.649 123.111 15.961C122.695 16.2556 122.002 16.403 121.031 16.403H115.363V19.445H119.835ZM136.602 17.365C136.602 16.533 136.298 15.961 135.692 15.649C135.085 15.337 134.062 15.181 132.624 15.181V19.679C133.976 19.679 134.972 19.5143 135.614 19.185C136.272 18.8383 136.602 18.2316 136.602 17.365ZM132.624 26.101C132.624 28.701 131.61 30.001 129.582 30.001C128.559 30.001 127.805 29.7323 127.32 29.195C126.852 28.6403 126.618 27.6696 126.618 26.283V15.311C126.618 14.3056 126.886 13.543 127.424 13.023C127.978 12.4856 128.698 12.217 129.582 12.217H135.042C137.174 12.217 138.898 12.7196 140.216 13.725C141.533 14.713 142.192 15.987 142.192 17.547C142.192 18.7256 141.94 19.653 141.438 20.329C140.952 20.9876 140.164 21.473 139.072 21.785C139.904 21.837 140.675 22.2443 141.386 23.007C142.096 23.7523 142.452 24.6883 142.452 25.815C142.452 26.959 142.339 27.843 142.114 28.467C141.906 29.0736 141.602 29.481 141.204 29.689C140.805 29.897 140.242 30.001 139.514 30.001C138.491 30.001 137.737 29.793 137.252 29.377C136.784 28.9436 136.55 28.2936 136.55 27.427C136.55 26.3523 136.446 25.529 136.238 24.957C136.03 24.3676 135.761 23.9863 135.432 23.813C135.102 23.6396 134.643 23.553 134.054 23.553L132.624 23.579V26.101Z" fill="#FAFAFA"/>
<path d="M12.8506 25.2902C12.8506 26.2782 12.7293 27.0669 12.4866 27.6562C12.2439 28.2282 11.9059 28.6269 11.4726 28.8522C11.0566 29.0775 10.5019 29.1902 9.80859 29.1902C8.78593 29.1902 8.04059 28.9215 7.57259 28.3842C7.12193 27.8295 6.88793 26.8589 6.87059 25.4722L6.81859 15.8782H4.60859C3.51659 15.8782 2.69326 15.7049 2.13859 15.3582C1.60126 15.0115 1.33259 14.3962 1.33259 13.5122C1.33259 12.9749 1.43659 12.5502 1.64459 12.2382C1.86993 11.9262 2.19926 11.7095 2.63259 11.5882C3.06593 11.4495 3.64659 11.3802 4.37459 11.3802H15.5026C16.4733 11.3802 17.1753 11.5535 17.6086 11.9002C18.0419 12.2469 18.2586 12.8449 18.2586 13.6942C18.2586 14.2662 18.1286 14.7169 17.8686 15.0462C17.6259 15.3582 17.2966 15.5749 16.8806 15.6962C16.4646 15.8175 15.9273 15.8782 15.2686 15.8782H12.8506V25.2902ZM30.7725 16.5542C30.7725 15.7222 30.4692 15.1502 29.8625 14.8382C29.2558 14.5262 28.2332 14.3702 26.7945 14.3702V18.8682C28.1465 18.8682 29.1432 18.7035 29.7845 18.3742C30.4432 18.0275 30.7725 17.4209 30.7725 16.5542ZM26.7945 25.2902C26.7945 27.8902 25.7805 29.1902 23.7525 29.1902C22.7298 29.1902 21.9758 28.9215 21.4905 28.3842C21.0225 27.8295 20.7885 26.8589 20.7885 25.4722V14.5002C20.7885 13.4949 21.0572 12.7322 21.5945 12.2122C22.1492 11.6749 22.8685 11.4062 23.7525 11.4062H29.2125C31.3445 11.4062 33.0692 11.9089 34.3865 12.9142C35.7038 13.9022 36.3625 15.1762 36.3625 16.7362C36.3625 17.9149 36.1112 18.8422 35.6085 19.5182C35.1232 20.1769 34.3345 20.6622 33.2425 20.9742C34.0745 21.0262 34.8458 21.4335 35.5565 22.1962C36.2672 22.9415 36.6225 23.8775 36.6225 25.0042C36.6225 26.1482 36.5098 27.0322 36.2845 27.6562C36.0765 28.2629 35.7732 28.6702 35.3745 28.8782C34.9759 29.0862 34.4125 29.1902 33.6845 29.1902C32.6618 29.1902 31.9078 28.9822 31.4225 28.5662C30.9545 28.1329 30.7205 27.4829 30.7205 26.6162C30.7205 25.5415 30.6165 24.7182 30.4085 24.1462C30.2005 23.5569 29.9318 23.1755 29.6025 23.0022C29.2732 22.8289 28.8138 22.7422 28.2245 22.7422L26.7945 22.7682V25.2902Z" fill="#FAFAFA"/>
<path fill-rule="evenodd" clip-rule="evenodd" d="M47.2072 20.9393L47.0795 21.3812C46.9646 21.7771 46.9325 22.2057 46.3598 22.3865C45.9774 22.5074 45.5043 22.41 44.9686 22.1592C44.4224 22.028 43.8697 21.9826 43.3091 22.028C42.7669 22.0709 42.2183 22.1991 41.6617 22.4155C40.0134 23.2188 39.0029 24.4538 39.0038 26.3713C38.9234 28.5916 40.1387 29.9089 42.0825 30.7183C43.4256 31.1408 44.6047 31.0725 45.6553 30.6173C47.2578 29.9228 48.1156 28.779 48.4313 27.4407C48.6313 26.5926 48.6361 25.6767 48.6088 24.6696L49 22.5884L49.3912 24.6696C49.3639 25.6767 49.3687 26.5926 49.5687 27.4407C49.8844 28.779 50.7422 29.9228 52.3447 30.6173C53.3953 31.0725 54.5744 31.1408 55.9175 30.7183C57.8613 29.9089 59.0766 28.5916 58.9962 26.3713C58.9971 24.4538 57.9866 23.2188 56.3383 22.4155C55.7817 22.1991 55.2331 22.0709 54.6909 22.028C54.1303 21.9826 53.5776 22.028 53.0314 22.1592C52.4957 22.41 52.0226 22.5074 51.6394 22.3865C51.0675 22.2057 51.0354 21.7771 50.9205 21.3812L50.7928 20.9393C50.743 20.0331 51.0812 19.0708 51.1246 18.1157C51.1567 17.4048 51.1382 16.6763 51.131 15.9854C51.0748 10.7003 50.6298 4.56458 48.5486 0C47.8883 0.614172 47.2 4.48297 46.9269 9.40542C46.7702 12.2109 46.8313 13.5039 46.8546 15.8415C46.8618 16.5681 46.8425 17.3298 46.8746 18.0733C46.9164 19.0411 47.257 20.0259 47.2072 20.9393ZM48.551 0.436449C50.1101 3.63607 50.0378 9.79895 50.7205 13.1001V14.5884C47.2931 14.0014 47.947 3.06844 48.551 0.436449ZM53.282 23.6075C54.3624 23.1965 55.3825 23.5471 56.1175 24.1921C56.7078 24.7095 57.0251 25.4041 57.0845 26.2655C57.1344 26.9921 56.8331 27.9968 56.1761 28.6962C54.9038 30.0503 53.0041 29.586 52.0065 28.3196C51.5631 27.7568 51.3567 27.1173 51.4073 26.3961C51.4418 25.9077 51.5703 25.3666 51.8362 24.88C52.131 24.342 52.5937 23.8693 53.282 23.6075ZM48.5807 17.6695C48.1365 17.8624 47.9839 18.2904 48.2409 18.6246C48.4972 18.9589 49.0659 19.0738 49.5101 18.8804C49.9542 18.6875 50.1061 18.2595 49.8498 17.9252C49.5936 17.591 49.0249 17.4767 48.5807 17.6695ZM44.718 23.6075C43.6376 23.1965 42.6175 23.5471 41.8825 24.1921C41.2922 24.7095 40.9749 25.4041 40.9154 26.2655C40.8656 26.9921 41.1669 27.9968 41.8239 28.6962C43.0962 30.0503 44.9959 29.586 45.9935 28.3196C46.4369 27.7568 46.6433 27.1173 46.5927 26.3961C46.5582 25.9077 46.4297 25.3666 46.1638 24.88C45.869 24.342 45.4063 23.8693 44.718 23.6075Z" fill="#FAFAFA"/>
</svg>
