<svg width="24" height="24" viewBox="0 0 24 24" fill="none" xmlns="http://www.w3.org/2000/svg">
<path d="M6.21648 14.6434C6.21648 15.8057 5.27776 16.7452 4.1163 16.7452C2.95483 16.7452 2.01611 15.8057 2.01611 14.6434C2.01611 13.481 2.95483 12.5415 4.1163 12.5415H6.21648V14.6434Z" fill="#E01E5A"/>
<path d="M7.26587 14.6434C7.26587 13.481 8.20458 12.5415 9.36605 12.5415C10.5275 12.5415 11.4662 13.481 11.4662 14.6434V19.898C11.4662 21.0604 10.5275 21.9998 9.36605 21.9998C8.20458 21.9998 7.26587 21.0604 7.26587 19.898V14.6434Z" fill="#E01E5A"/>
<path d="M9.36613 6.20419C8.20466 6.20419 7.26594 5.26473 7.26594 4.10234C7.26594 2.93995 8.20466 2.00049 9.36613 2.00049C10.5276 2.00049 11.4663 2.93995 11.4663 4.10234V6.20419H9.36613Z" fill="#36C5F0"/>
<path d="M9.36654 7.27106C10.528 7.27106 11.4667 8.21052 11.4667 9.37291C11.4667 10.5353 10.528 11.4748 9.36654 11.4748H4.10018C2.93872 11.4748 2 10.5353 2 9.37291C2 8.21052 2.93872 7.27106 4.10018 7.27106H9.36654Z" fill="#36C5F0"/>
<path d="M17.7832 9.37291C17.7832 8.21052 18.7219 7.27106 19.8834 7.27106C21.0449 7.27106 21.9836 8.21052 21.9836 9.37291C21.9836 10.5353 21.0449 11.4748 19.8834 11.4748H17.7832V9.37291Z" fill="#2EB67D"/>
<path d="M16.7336 9.3729C16.7336 10.5353 15.7949 11.4748 14.6334 11.4748C13.4719 11.4748 12.5332 10.5353 12.5332 9.3729V4.10234C12.5332 2.93995 13.4719 2.00049 14.6334 2.00049C15.7949 2.00049 16.7336 2.93995 16.7336 4.10234V9.3729Z" fill="#2EB67D"/>
<path d="M14.6334 17.7962C15.7949 17.7962 16.7336 18.7357 16.7336 19.8981C16.7336 21.0604 15.7949 21.9999 14.6334 21.9999C13.4719 21.9999 12.5332 21.0604 12.5332 19.8981V17.7962H14.6334Z" fill="#ECB22E"/>
<path d="M14.6334 16.7452C13.4719 16.7452 12.5332 15.8057 12.5332 14.6434C12.5332 13.481 13.4719 12.5415 14.6334 12.5415H19.8997C21.0612 12.5415 21.9999 13.481 21.9999 14.6434C21.9999 15.8057 21.0612 16.7452 19.8997 16.7452H14.6334Z" fill="#ECB22E"/>
</svg>
