<svg width="24" height="24" viewBox="0 0 24 24" fill="none" xmlns="http://www.w3.org/2000/svg">
<g clip-path="url(#clip0_1_648)">
<path d="M12.717 1.24639C12.6508 1.11284 12.5487 1.00044 12.422 0.921858C12.2954 0.843275 12.1493 0.801636 12.0002 0.801636C11.8512 0.801636 11.7051 0.843275 11.5784 0.921858C11.4518 1.00044 11.3496 1.11284 11.2834 1.24639L8.00823 7.88159L0.685032 8.94559C0.537272 8.96705 0.398466 9.02943 0.284316 9.12567C0.170167 9.22192 0.0852295 9.34819 0.0391138 9.4902C-0.00700184 9.63221 -0.0124555 9.78429 0.0233698 9.92924C0.059195 10.0742 0.134869 10.2062 0.241832 10.3104L5.54103 15.4752L4.28983 22.7696C4.26473 22.9166 4.28123 23.0677 4.33745 23.2058C4.39368 23.344 4.4874 23.4636 4.60804 23.5513C4.72868 23.639 4.87143 23.6913 5.02017 23.7021C5.16892 23.713 5.31774 23.682 5.44983 23.6128L12.0002 20.168L18.5506 23.6128C18.6827 23.682 18.8315 23.713 18.9803 23.7021C19.129 23.6913 19.2718 23.639 19.3924 23.5513C19.5131 23.4636 19.6068 23.344 19.663 23.2058C19.7192 23.0677 19.7357 22.9166 19.7106 22.7696L18.4594 15.4736L23.7586 10.3104C23.8656 10.2062 23.9413 10.0742 23.9771 9.92924C24.0129 9.78429 24.0075 9.63221 23.9613 9.4902C23.9152 9.34819 23.8303 9.22192 23.7161 9.12567C23.602 9.02943 23.4632 8.96705 23.3154 8.94559L15.9922 7.88159L12.717 1.24639Z" fill="#F49609"/>
</g>
<defs>
<clipPath id="clip0_1_648">
<rect width="24" height="24" fill="white"/>
</clipPath>
</defs>
</svg>
