<svg width="24" height="24" viewBox="0 0 24 24" fill="none" xmlns="http://www.w3.org/2000/svg">
<path d="M7.91884 20.8796C16.2213 20.8796 20.7612 14.0014 20.7612 8.03717C20.7612 7.84181 20.7573 7.64732 20.7485 7.45372C21.6298 6.8166 22.3959 6.02151 23 5.11642C22.1913 5.4759 21.3209 5.71791 20.4079 5.82703C21.3399 5.26822 22.0553 4.38425 22.3928 3.33044C21.5207 3.84744 20.5549 4.22321 19.5266 4.42605C18.7029 3.54868 17.5303 3 16.2319 3C13.7392 3 11.7178 5.02138 11.7178 7.51312C11.7178 7.86733 11.7574 8.21185 11.8349 8.54229C8.08341 8.35353 4.75698 6.55743 2.531 3.82633C2.14336 4.49337 1.91984 5.26822 1.91984 6.09499C1.91984 7.66096 2.71668 9.04346 3.92845 9.85218C3.18793 9.8293 2.49228 9.62602 1.88419 9.28766C1.88353 9.3066 1.88353 9.32506 1.88353 9.3453C1.88353 11.5312 3.43938 13.3564 5.50477 13.77C5.12548 13.8734 4.7264 13.9288 4.31455 13.9288C4.02415 13.9288 3.74123 13.9002 3.46622 13.8474C4.04087 15.6409 5.70717 16.9459 7.68279 16.9825C6.13793 18.1933 4.19179 18.9145 2.07669 18.9145C1.71281 18.9145 1.35332 18.8938 1 18.852C2.99762 20.1324 5.36968 20.8796 7.91907 20.8796" fill="#FAFAFA"/>
</svg>
